M48
;Layer_Color=9474304
;FILE_FORMAT=2:4
INCH,TZ
;TYPE=PLATED
T01F00S00C0.0315
T03F00S00C0.0335
T04F00S00C0.0350
T05F00S00C0.0354
T06F00S00C0.0430
T07F00S00C0.0551
T08F00S00C0.0650
;TYPE=NON_PLATED
T09F00S00C0.1260
%
T01
X26400Y13874
Y16826
X25650Y27300
Y28087
T03
X16222Y22750
X19778Y22550
X23322
X21678Y24900
X25222
X12678Y22750
T04
X37950Y20063
Y20850
X12300Y20650
Y19863
T05
X37950Y27716
Y29684
X22750Y28550
X21750
X20750
X19750
X19450Y20800
Y19800
Y18800
Y17800
X16450
Y18800
Y19800
Y20800
X19750Y31550
X20750
X21750
X22750
T06
X30450Y20450
Y28220
T07
X14750Y12700
X17250
X19750
T08
X12391Y27500
X13950
X15509
T09
X11050Y11100
X40550Y11200
X11300Y32100
X40250Y31950
M30
