G04*
G04 #@! TF.GenerationSoftware,Altium Limited,Altium Designer,25.2.1 (25)*
G04*
G04 Layer_Color=16711935*
%FSLAX25Y25*%
%MOIN*%
G70*
G04*
G04 #@! TF.SameCoordinates,C35E73BE-C39F-499D-9B8D-0DC63BFC9BBD*
G04*
G04*
G04 #@! TF.FilePolarity,Positive*
G04*
G01*
G75*
%ADD11C,0.00787*%
%ADD14C,0.00500*%
%ADD55C,0.00394*%
%ADD56C,0.00000*%
%ADD57C,0.00100*%
G36*
X389440Y263419D02*
X388263Y262923D01*
X385823Y262170D01*
X383319Y261664D01*
X380777Y261409D01*
X378223D01*
X375681Y261664D01*
X373177Y262170D01*
X370737Y262923D01*
X369560Y263419D01*
D01*
X372310Y269993D01*
X372319Y269989D01*
X373177Y269652D01*
X374938Y269108D01*
X376744Y268742D01*
X378578Y268558D01*
X380422D01*
X382256Y268742D01*
X384062Y269108D01*
X385823Y269652D01*
X386682Y269989D01*
X386682D01*
X386690Y269993D01*
X389440Y263419D01*
D02*
G37*
D11*
X422242Y134052D02*
G03*
X422242Y134052I-394J0D01*
G01*
X375366Y212437D02*
X383634D01*
X375366Y196689D02*
Y212437D01*
Y196689D02*
X383634D01*
Y212437D01*
X254157Y138736D02*
X273843D01*
Y168264D01*
X254157D02*
X273843D01*
X254157Y138736D02*
Y168264D01*
X118866Y194689D02*
X127134D01*
Y210437D01*
X118866D02*
X127134D01*
X118866Y194689D02*
Y210437D01*
D14*
X363551Y125862D02*
X418669D01*
X363551D02*
Y171138D01*
X418669Y125862D02*
Y137673D01*
Y161295D01*
Y171138D01*
X363551D02*
X418669D01*
Y137673D02*
X432449D01*
Y161295D01*
X418669D02*
X432449D01*
D55*
X405091Y287000D02*
G03*
X405091Y287000I-25591J0D01*
G01*
X397965D02*
G03*
X397965Y287000I-18465J0D01*
G01*
X198031Y291051D02*
G03*
X198031Y291051I-1969J0D01*
G01*
X266342Y276937D02*
G03*
X266342Y276937I-9843J0D01*
G01*
X190917Y176563D02*
G03*
X190917Y176563I-1969J0D01*
G01*
X210000Y51764D02*
Y129756D01*
X135000Y51764D02*
X210000D01*
X135000Y129756D02*
X210000D01*
X135000Y51764D02*
Y129756D01*
X157651Y267127D02*
X162768D01*
Y293110D01*
X116232Y267127D02*
X121351D01*
X116232D02*
Y293110D01*
X121351Y259647D02*
Y267127D01*
X157651Y259647D02*
Y267127D01*
X121351Y259647D02*
X157651D01*
X116232Y293110D02*
X162768D01*
X156902Y222776D02*
Y232224D01*
X132098Y222776D02*
X156902D01*
X132098Y232224D02*
X156902D01*
X132098Y222776D02*
Y232224D01*
X192520Y287508D02*
X232480D01*
X192520Y313492D02*
X232480D01*
X192520Y287508D02*
Y313492D01*
X232480Y287508D02*
Y313492D01*
X246902Y244276D02*
Y253724D01*
X222098Y244276D02*
X246902D01*
X222098Y253724D02*
X246902D01*
X222098Y244276D02*
Y253724D01*
X227902Y220776D02*
Y230224D01*
X203098Y220776D02*
X227902D01*
X203098Y230224D02*
X227902D01*
X203098Y220776D02*
Y230224D01*
X192492Y173020D02*
Y212980D01*
X166508Y173020D02*
Y212980D01*
Y173020D02*
X192492D01*
X166508Y212980D02*
X192492D01*
D56*
X304800Y222700D02*
G03*
X304800Y222700I-300J0D01*
G01*
D57*
X296050Y221700D02*
X312950D01*
X296050D02*
Y265000D01*
X312950D01*
Y221700D02*
Y265000D01*
X304500D02*
Y282200D01*
Y204500D02*
Y221700D01*
M02*
