G04*
G04 #@! TF.GenerationSoftware,Altium Limited,Altium Designer,25.2.1 (25)*
G04*
G04 Layer_Color=16711935*
%FSLAX25Y25*%
%MOIN*%
G70*
G04*
G04 #@! TF.SameCoordinates,C35E73BE-C39F-499D-9B8D-0DC63BFC9BBD*
G04*
G04*
G04 #@! TF.FilePolarity,Positive*
G04*
G01*
G75*
%ADD11C,0.00787*%
G36*
X380297Y204261D02*
X380293D01*
X380286D01*
X380272D01*
X380250Y204257D01*
X380228Y204254D01*
X380203D01*
X380141Y204243D01*
X380075Y204232D01*
X380010Y204210D01*
X379951Y204188D01*
X379926Y204174D01*
X379904Y204155D01*
X379900Y204152D01*
X379889Y204137D01*
X379871Y204115D01*
X379853Y204086D01*
X379831Y204046D01*
X379817Y204002D01*
X379802Y203948D01*
X379798Y203890D01*
Y203868D01*
X379802Y203846D01*
X379806Y203813D01*
X379813Y203780D01*
X379820Y203744D01*
X379835Y203708D01*
X379853Y203671D01*
X379857Y203668D01*
X379864Y203657D01*
X379878Y203642D01*
X379893Y203620D01*
X379919Y203602D01*
X379944Y203580D01*
X379973Y203562D01*
X380010Y203548D01*
X380013D01*
X380028Y203540D01*
X380053Y203537D01*
X380086Y203529D01*
X380130Y203522D01*
X380184Y203518D01*
X380250Y203511D01*
X380326D01*
X382063D01*
Y203176D01*
X380344D01*
X380341D01*
X380330D01*
X380315D01*
X380293D01*
X380264Y203180D01*
X380235D01*
X380166Y203187D01*
X380086Y203194D01*
X380002Y203209D01*
X379926Y203231D01*
X379853Y203256D01*
X379849D01*
X379846Y203260D01*
X379824Y203271D01*
X379795Y203289D01*
X379755Y203314D01*
X379715Y203351D01*
X379671Y203391D01*
X379627Y203442D01*
X379591Y203500D01*
X379587Y203507D01*
X379576Y203529D01*
X379562Y203562D01*
X379547Y203609D01*
X379529Y203668D01*
X379515Y203733D01*
X379504Y203806D01*
X379500Y203886D01*
Y203919D01*
X379504Y203941D01*
X379507Y203970D01*
X379511Y203999D01*
X379525Y204075D01*
X379547Y204155D01*
X379580Y204239D01*
X379602Y204283D01*
X379627Y204323D01*
X379657Y204359D01*
X379689Y204396D01*
X379693Y204399D01*
X379696Y204403D01*
X379711Y204410D01*
X379726Y204421D01*
X379744Y204436D01*
X379769Y204450D01*
X379798Y204465D01*
X379831Y204483D01*
X379868Y204498D01*
X379911Y204512D01*
X379955Y204527D01*
X380006Y204541D01*
X380061Y204549D01*
X380122Y204559D01*
X380184Y204563D01*
X380253D01*
X380297Y204261D01*
D02*
G37*
G36*
X381440Y202517D02*
X381447Y202510D01*
X381451Y202496D01*
X381462Y202477D01*
X381473Y202455D01*
X381487Y202430D01*
X381524Y202368D01*
X381564Y202295D01*
X381615Y202222D01*
X381673Y202146D01*
X381735Y202070D01*
X381739Y202066D01*
X381742Y202062D01*
X381753Y202051D01*
X381764Y202037D01*
X381800Y202004D01*
X381844Y201960D01*
X381895Y201917D01*
X381953Y201869D01*
X382012Y201829D01*
X382073Y201793D01*
Y201593D01*
X379544D01*
Y201902D01*
X381513D01*
X381509Y201906D01*
X381495Y201924D01*
X381473Y201946D01*
X381447Y201982D01*
X381415Y202022D01*
X381378Y202073D01*
X381338Y202132D01*
X381298Y202197D01*
Y202201D01*
X381294Y202204D01*
X381280Y202226D01*
X381262Y202263D01*
X381240Y202306D01*
X381214Y202357D01*
X381189Y202412D01*
X381163Y202466D01*
X381142Y202521D01*
X381440D01*
Y202517D01*
D02*
G37*
G36*
X263956Y162713D02*
X263953D01*
X263938D01*
X263916D01*
X263887Y162716D01*
X263854Y162720D01*
X263818Y162727D01*
X263782Y162735D01*
X263742Y162749D01*
X263738D01*
X263734Y162753D01*
X263713Y162760D01*
X263680Y162775D01*
X263636Y162796D01*
X263585Y162826D01*
X263527Y162862D01*
X263469Y162902D01*
X263407Y162953D01*
X263403D01*
X263399Y162960D01*
X263378Y162978D01*
X263345Y163011D01*
X263298Y163059D01*
X263243Y163113D01*
X263177Y163182D01*
X263105Y163266D01*
X263028Y163357D01*
X263024Y163361D01*
X263014Y163375D01*
X262995Y163397D01*
X262973Y163423D01*
X262944Y163455D01*
X262912Y163495D01*
X262875Y163535D01*
X262835Y163583D01*
X262748Y163674D01*
X262661Y163765D01*
X262617Y163808D01*
X262573Y163848D01*
X262533Y163885D01*
X262493Y163914D01*
X262489D01*
X262486Y163921D01*
X262475Y163928D01*
X262460Y163936D01*
X262420Y163961D01*
X262373Y163990D01*
X262315Y164016D01*
X262253Y164041D01*
X262184Y164056D01*
X262118Y164063D01*
X262115D01*
X262111D01*
X262089Y164060D01*
X262053Y164056D01*
X262013Y164045D01*
X261962Y164031D01*
X261911Y164005D01*
X261860Y163972D01*
X261809Y163928D01*
X261802Y163921D01*
X261787Y163903D01*
X261769Y163878D01*
X261743Y163838D01*
X261721Y163787D01*
X261700Y163728D01*
X261685Y163659D01*
X261681Y163583D01*
Y163561D01*
X261685Y163546D01*
X261689Y163503D01*
X261700Y163452D01*
X261714Y163397D01*
X261740Y163335D01*
X261772Y163277D01*
X261816Y163222D01*
X261823Y163215D01*
X261842Y163200D01*
X261871Y163179D01*
X261914Y163157D01*
X261965Y163131D01*
X262031Y163110D01*
X262104Y163095D01*
X262187Y163088D01*
X262155Y162771D01*
X262151D01*
X262140Y162775D01*
X262122D01*
X262096Y162778D01*
X262067Y162786D01*
X262034Y162793D01*
X261994Y162804D01*
X261954Y162815D01*
X261867Y162844D01*
X261780Y162888D01*
X261736Y162913D01*
X261692Y162946D01*
X261652Y162978D01*
X261616Y163015D01*
X261612Y163019D01*
X261609Y163026D01*
X261598Y163037D01*
X261587Y163055D01*
X261572Y163077D01*
X261558Y163102D01*
X261539Y163131D01*
X261521Y163168D01*
X261503Y163208D01*
X261485Y163251D01*
X261470Y163299D01*
X261456Y163350D01*
X261445Y163404D01*
X261434Y163463D01*
X261430Y163524D01*
X261426Y163590D01*
Y163626D01*
X261430Y163652D01*
X261434Y163681D01*
X261438Y163717D01*
X261445Y163758D01*
X261452Y163797D01*
X261477Y163892D01*
X261514Y163987D01*
X261536Y164034D01*
X261561Y164081D01*
X261594Y164125D01*
X261630Y164165D01*
X261634Y164169D01*
X261638Y164176D01*
X261652Y164183D01*
X261667Y164198D01*
X261685Y164216D01*
X261711Y164234D01*
X261736Y164252D01*
X261769Y164274D01*
X261838Y164311D01*
X261925Y164347D01*
X261969Y164362D01*
X262020Y164369D01*
X262071Y164376D01*
X262125Y164380D01*
X262133D01*
X262151D01*
X262180Y164376D01*
X262220Y164373D01*
X262264Y164365D01*
X262315Y164351D01*
X262369Y164336D01*
X262424Y164314D01*
X262431Y164311D01*
X262449Y164304D01*
X262478Y164289D01*
X262519Y164267D01*
X262562Y164238D01*
X262617Y164201D01*
X262671Y164158D01*
X262733Y164107D01*
X262741Y164100D01*
X262762Y164081D01*
X262781Y164063D01*
X262799Y164045D01*
X262821Y164023D01*
X262850Y163994D01*
X262879Y163965D01*
X262912Y163928D01*
X262948Y163892D01*
X262988Y163848D01*
X263028Y163801D01*
X263075Y163750D01*
X263123Y163692D01*
X263174Y163634D01*
X263177Y163630D01*
X263185Y163623D01*
X263196Y163608D01*
X263210Y163590D01*
X263232Y163568D01*
X263254Y163543D01*
X263301Y163485D01*
X263356Y163423D01*
X263410Y163364D01*
X263458Y163313D01*
X263476Y163292D01*
X263494Y163273D01*
X263498Y163270D01*
X263509Y163259D01*
X263523Y163244D01*
X263545Y163226D01*
X263570Y163208D01*
X263596Y163186D01*
X263658Y163142D01*
Y164383D01*
X263956D01*
Y162713D01*
D02*
G37*
G36*
X263177Y162469D02*
X263199Y162462D01*
X263228Y162451D01*
X263261Y162440D01*
X263301Y162425D01*
X263345Y162407D01*
X263392Y162385D01*
X263494Y162334D01*
X263596Y162269D01*
X263647Y162229D01*
X263698Y162189D01*
X263742Y162145D01*
X263785Y162094D01*
X263789Y162090D01*
X263796Y162083D01*
X263804Y162065D01*
X263818Y162047D01*
X263836Y162018D01*
X263854Y161988D01*
X263873Y161948D01*
X263891Y161908D01*
X263913Y161861D01*
X263931Y161810D01*
X263949Y161756D01*
X263967Y161697D01*
X263982Y161635D01*
X263989Y161570D01*
X263996Y161501D01*
X264000Y161428D01*
Y161388D01*
X263996Y161359D01*
Y161326D01*
X263993Y161286D01*
X263985Y161242D01*
X263978Y161191D01*
X263960Y161086D01*
X263931Y160977D01*
X263891Y160867D01*
X263865Y160816D01*
X263836Y160765D01*
X263833Y160762D01*
X263829Y160755D01*
X263818Y160740D01*
X263804Y160725D01*
X263789Y160704D01*
X263767Y160678D01*
X263742Y160649D01*
X263713Y160620D01*
X263680Y160591D01*
X263647Y160558D01*
X263563Y160492D01*
X263465Y160431D01*
X263356Y160376D01*
X263352D01*
X263341Y160369D01*
X263323Y160365D01*
X263301Y160354D01*
X263272Y160347D01*
X263236Y160336D01*
X263196Y160321D01*
X263152Y160310D01*
X263105Y160300D01*
X263050Y160285D01*
X262937Y160267D01*
X262810Y160252D01*
X262679Y160245D01*
X262675D01*
X262661D01*
X262639D01*
X262613Y160248D01*
X262577D01*
X262540Y160252D01*
X262493Y160256D01*
X262446Y160263D01*
X262340Y160281D01*
X262224Y160307D01*
X262107Y160343D01*
X261994Y160394D01*
X261991Y160398D01*
X261980Y160401D01*
X261965Y160409D01*
X261947Y160423D01*
X261922Y160438D01*
X261893Y160456D01*
X261827Y160503D01*
X261754Y160565D01*
X261681Y160638D01*
X261609Y160722D01*
X261547Y160820D01*
X261543Y160824D01*
X261539Y160835D01*
X261532Y160849D01*
X261521Y160867D01*
X261510Y160896D01*
X261499Y160925D01*
X261485Y160962D01*
X261470Y161002D01*
X261456Y161046D01*
X261441Y161093D01*
X261419Y161195D01*
X261401Y161311D01*
X261394Y161432D01*
Y161468D01*
X261397Y161493D01*
X261401Y161526D01*
X261405Y161566D01*
X261408Y161606D01*
X261419Y161653D01*
X261441Y161752D01*
X261474Y161861D01*
X261496Y161916D01*
X261521Y161967D01*
X261554Y162018D01*
X261587Y162068D01*
X261590Y162072D01*
X261594Y162079D01*
X261605Y162094D01*
X261623Y162112D01*
X261641Y162130D01*
X261667Y162156D01*
X261696Y162181D01*
X261725Y162211D01*
X261761Y162240D01*
X261805Y162269D01*
X261849Y162302D01*
X261896Y162331D01*
X261951Y162356D01*
X262005Y162385D01*
X262064Y162407D01*
X262129Y162429D01*
X262206Y162101D01*
X262202D01*
X262195Y162098D01*
X262180Y162090D01*
X262162Y162083D01*
X262140Y162076D01*
X262111Y162065D01*
X262053Y162036D01*
X261987Y161999D01*
X261922Y161956D01*
X261860Y161901D01*
X261805Y161843D01*
X261798Y161836D01*
X261783Y161814D01*
X261765Y161777D01*
X261740Y161730D01*
X261718Y161668D01*
X261696Y161599D01*
X261681Y161515D01*
X261678Y161424D01*
Y161395D01*
X261681Y161377D01*
Y161351D01*
X261685Y161322D01*
X261696Y161253D01*
X261711Y161177D01*
X261736Y161097D01*
X261772Y161013D01*
X261820Y160936D01*
Y160933D01*
X261827Y160929D01*
X261845Y160904D01*
X261874Y160871D01*
X261918Y160831D01*
X261973Y160784D01*
X262034Y160740D01*
X262111Y160700D01*
X262195Y160663D01*
X262198D01*
X262206Y160660D01*
X262216Y160656D01*
X262235Y160652D01*
X262257Y160645D01*
X262282Y160638D01*
X262344Y160627D01*
X262417Y160612D01*
X262497Y160598D01*
X262584Y160591D01*
X262679Y160587D01*
X262682D01*
X262693D01*
X262712D01*
X262733D01*
X262759Y160591D01*
X262792D01*
X262828Y160594D01*
X262868Y160598D01*
X262955Y160609D01*
X263050Y160627D01*
X263145Y160649D01*
X263239Y160678D01*
X263243D01*
X263250Y160682D01*
X263261Y160689D01*
X263279Y160696D01*
X263323Y160718D01*
X263374Y160751D01*
X263432Y160791D01*
X263494Y160842D01*
X263549Y160900D01*
X263600Y160969D01*
Y160973D01*
X263603Y160980D01*
X263611Y160991D01*
X263618Y161006D01*
X263625Y161024D01*
X263636Y161046D01*
X263658Y161097D01*
X263680Y161162D01*
X263698Y161235D01*
X263713Y161315D01*
X263716Y161399D01*
Y161424D01*
X263713Y161446D01*
Y161472D01*
X263709Y161497D01*
X263694Y161563D01*
X263676Y161639D01*
X263647Y161715D01*
X263607Y161795D01*
X263585Y161836D01*
X263556Y161872D01*
X263552Y161876D01*
X263549Y161879D01*
X263538Y161890D01*
X263527Y161905D01*
X263509Y161919D01*
X263487Y161937D01*
X263465Y161959D01*
X263436Y161978D01*
X263403Y161999D01*
X263367Y162025D01*
X263330Y162047D01*
X263287Y162068D01*
X263239Y162087D01*
X263188Y162105D01*
X263134Y162123D01*
X263075Y162138D01*
X263159Y162473D01*
X263163D01*
X263177Y162469D01*
D02*
G37*
G36*
X263199Y159007D02*
X262890D01*
Y159965D01*
X263199D01*
Y159007D01*
D02*
G37*
G36*
X263956Y158166D02*
Y157839D01*
X262038Y157311D01*
X262034D01*
X262027Y157307D01*
X262016Y157304D01*
X261998Y157300D01*
X261958Y157289D01*
X261911Y157278D01*
X261860Y157264D01*
X261812Y157249D01*
X261772Y157238D01*
X261754Y157235D01*
X261743Y157231D01*
X261747D01*
X261751Y157227D01*
X261772Y157224D01*
X261805Y157216D01*
X261845Y157205D01*
X261889Y157195D01*
X261940Y157180D01*
X261991Y157169D01*
X262038Y157155D01*
X263956Y156623D01*
Y156274D01*
X261438Y155615D01*
Y155961D01*
X263090Y156335D01*
X263094D01*
X263101Y156339D01*
X263116Y156343D01*
X263134Y156346D01*
X263159Y156350D01*
X263185Y156357D01*
X263217Y156365D01*
X263254Y156372D01*
X263330Y156390D01*
X263418Y156408D01*
X263512Y156427D01*
X263607Y156445D01*
X263603D01*
X263589Y156448D01*
X263570Y156456D01*
X263541Y156459D01*
X263512Y156467D01*
X263476Y156477D01*
X263396Y156496D01*
X263316Y156518D01*
X263276Y156525D01*
X263239Y156536D01*
X263207Y156543D01*
X263177Y156550D01*
X263156Y156558D01*
X263141Y156561D01*
X261438Y157038D01*
Y157442D01*
X262715Y157799D01*
X262719D01*
X262737Y157806D01*
X262762Y157813D01*
X262795Y157821D01*
X262839Y157832D01*
X262886Y157846D01*
X262941Y157861D01*
X263003Y157875D01*
X263072Y157893D01*
X263141Y157908D01*
X263290Y157941D01*
X263447Y157974D01*
X263607Y157999D01*
X263603D01*
X263596Y158003D01*
X263581D01*
X263563Y158010D01*
X263541Y158014D01*
X263516Y158021D01*
X263483Y158025D01*
X263447Y158035D01*
X263367Y158054D01*
X263272Y158075D01*
X263170Y158097D01*
X263057Y158126D01*
X261438Y158519D01*
Y158858D01*
X263956Y158166D01*
D02*
G37*
G36*
X262224Y155418D02*
X262249Y155415D01*
X262282Y155411D01*
X262318Y155404D01*
X262358Y155396D01*
X262442Y155371D01*
X262486Y155356D01*
X262533Y155334D01*
X262580Y155309D01*
X262624Y155283D01*
X262668Y155251D01*
X262712Y155214D01*
X262715Y155211D01*
X262722Y155203D01*
X262733Y155193D01*
X262744Y155174D01*
X262762Y155152D01*
X262781Y155123D01*
X262803Y155087D01*
X262821Y155047D01*
X262842Y155000D01*
X262864Y154945D01*
X262882Y154887D01*
X262897Y154818D01*
X262912Y154745D01*
X262923Y154665D01*
X262930Y154574D01*
X262933Y154479D01*
Y153835D01*
X263956D01*
Y153500D01*
X261438D01*
Y154534D01*
X261441Y154588D01*
X261445Y154650D01*
X261448Y154716D01*
X261456Y154778D01*
X261463Y154832D01*
Y154840D01*
X261470Y154865D01*
X261477Y154898D01*
X261488Y154941D01*
X261507Y154989D01*
X261528Y155040D01*
X261554Y155094D01*
X261583Y155142D01*
X261587Y155149D01*
X261598Y155163D01*
X261619Y155185D01*
X261645Y155214D01*
X261678Y155247D01*
X261721Y155280D01*
X261769Y155316D01*
X261823Y155345D01*
X261831Y155349D01*
X261849Y155356D01*
X261882Y155371D01*
X261925Y155385D01*
X261976Y155396D01*
X262034Y155411D01*
X262100Y155418D01*
X262169Y155422D01*
X262173D01*
X262184D01*
X262198D01*
X262224Y155418D01*
D02*
G37*
G36*
X123000Y204620D02*
X121894D01*
X121890D01*
X121886D01*
X121861D01*
X121828D01*
X121788Y204616D01*
X121741Y204612D01*
X121693Y204605D01*
X121650Y204594D01*
X121610Y204583D01*
X121606D01*
X121595Y204576D01*
X121577Y204565D01*
X121555Y204554D01*
X121533Y204536D01*
X121508Y204514D01*
X121482Y204485D01*
X121460Y204452D01*
X121457Y204449D01*
X121449Y204437D01*
X121442Y204416D01*
X121431Y204390D01*
X121420Y204361D01*
X121409Y204325D01*
X121406Y204281D01*
X121402Y204237D01*
Y204219D01*
X121406Y204205D01*
X121409Y204168D01*
X121417Y204121D01*
X121435Y204070D01*
X121457Y204012D01*
X121486Y203953D01*
X121529Y203899D01*
X121537Y203891D01*
X121555Y203877D01*
X121570Y203866D01*
X121588Y203855D01*
X121610Y203841D01*
X121635Y203830D01*
X121664Y203815D01*
X121701Y203801D01*
X121741Y203790D01*
X121784Y203779D01*
X121832Y203771D01*
X121883Y203764D01*
X121944Y203757D01*
X122006D01*
X123000D01*
Y203448D01*
X121173D01*
Y203724D01*
X121435D01*
X121431Y203728D01*
X121420Y203735D01*
X121406Y203746D01*
X121388Y203761D01*
X121366Y203782D01*
X121340Y203808D01*
X121311Y203837D01*
X121282Y203873D01*
X121256Y203910D01*
X121227Y203953D01*
X121202Y204001D01*
X121180Y204052D01*
X121162Y204110D01*
X121147Y204168D01*
X121136Y204234D01*
X121133Y204303D01*
Y204332D01*
X121136Y204361D01*
X121140Y204401D01*
X121147Y204449D01*
X121158Y204499D01*
X121173Y204554D01*
X121195Y204605D01*
X121198Y204612D01*
X121205Y204627D01*
X121216Y204652D01*
X121235Y204681D01*
X121256Y204718D01*
X121286Y204751D01*
X121315Y204783D01*
X121351Y204812D01*
X121355Y204816D01*
X121369Y204823D01*
X121388Y204834D01*
X121413Y204853D01*
X121449Y204867D01*
X121486Y204882D01*
X121529Y204900D01*
X121577Y204911D01*
X121580D01*
X121595Y204914D01*
X121617Y204918D01*
X121646Y204922D01*
X121690D01*
X121741Y204925D01*
X121802Y204929D01*
X121879D01*
X123000D01*
Y204620D01*
D02*
G37*
G36*
Y202563D02*
X120481D01*
Y202898D01*
X123000D01*
Y202563D01*
D02*
G37*
%LPC*%
G36*
X262180Y155080D02*
X262176D01*
X262173D01*
X262155D01*
X262122Y155076D01*
X262085Y155069D01*
X262045Y155061D01*
X261998Y155047D01*
X261954Y155025D01*
X261911Y155000D01*
X261907Y154996D01*
X261893Y154985D01*
X261874Y154967D01*
X261849Y154945D01*
X261823Y154912D01*
X261802Y154876D01*
X261780Y154836D01*
X261761Y154788D01*
Y154785D01*
X261758Y154770D01*
X261754Y154748D01*
X261747Y154719D01*
X261743Y154676D01*
X261740Y154621D01*
X261736Y154555D01*
Y153835D01*
X262635D01*
Y154512D01*
X262631Y154537D01*
Y154563D01*
X262628Y154592D01*
X262620Y154661D01*
X262606Y154738D01*
X262584Y154814D01*
X262555Y154883D01*
X262537Y154916D01*
X262515Y154941D01*
X262508Y154949D01*
X262493Y154963D01*
X262464Y154985D01*
X262428Y155010D01*
X262380Y155036D01*
X262322Y155058D01*
X262257Y155072D01*
X262180Y155080D01*
D02*
G37*
%LPD*%
D11*
X371350Y212831D02*
X387650D01*
X371350Y196295D02*
Y212831D01*
Y196295D02*
X387650D01*
Y212831D01*
X253764Y135784D02*
X274236D01*
Y171216D01*
X253764D02*
X274236D01*
X253764Y135784D02*
Y171216D01*
X114850Y194295D02*
X131150D01*
Y210831D01*
X114850D02*
X131150D01*
X114850Y194295D02*
Y210831D01*
M02*
