G04*
G04 #@! TF.GenerationSoftware,Altium Limited,Altium Designer,25.2.1 (25)*
G04*
G04 Layer_Color=16711935*
%FSLAX25Y25*%
%MOIN*%
G70*
G04*
G04 #@! TF.SameCoordinates,C35E73BE-C39F-499D-9B8D-0DC63BFC9BBD*
G04*
G04*
G04 #@! TF.FilePolarity,Negative*
G04*
G01*
G75*
%ADD17C,0.13398*%
%ADD18C,0.08280*%
%ADD19R,0.08280X0.08280*%
%ADD20C,0.09265*%
%ADD21R,0.09265X0.09265*%
%ADD22C,0.06312*%
G04:AMPARAMS|DCode=23|XSize=63.12mil|YSize=63.12mil|CornerRadius=17.78mil|HoleSize=0mil|Usage=FLASHONLY|Rotation=90.000|XOffset=0mil|YOffset=0mil|HoleType=Round|Shape=RoundedRectangle|*
%AMROUNDEDRECTD23*
21,1,0.06312,0.02756,0,0,90.0*
21,1,0.02756,0.06312,0,0,90.0*
1,1,0.03556,0.01378,0.01378*
1,1,0.03556,0.01378,-0.01378*
1,1,0.03556,-0.01378,-0.01378*
1,1,0.03556,-0.01378,0.01378*
%
%ADD23ROUNDEDRECTD23*%
%ADD24R,0.06115X0.06115*%
%ADD25C,0.06115*%
%ADD26C,0.05472*%
%ADD27R,0.05472X0.05472*%
%ADD28R,0.06706X0.06706*%
%ADD29C,0.06706*%
%ADD30C,0.06300*%
%ADD31R,0.06300X0.06300*%
%ADD32R,0.05918X0.05918*%
%ADD33C,0.05918*%
%ADD34O,0.06312X0.11824*%
%ADD35O,0.11824X0.06312*%
%ADD36C,0.05118*%
%ADD37R,0.05118X0.05118*%
%ADD38R,0.06706X0.06706*%
D17*
X113000Y321000D02*
D03*
X110500Y111000D02*
D03*
X405500Y112000D02*
D03*
X402500Y319500D02*
D03*
D18*
X172500Y127000D02*
D03*
X197500D02*
D03*
D19*
X147500D02*
D03*
D20*
X123909Y275000D02*
D03*
X139500D02*
D03*
D21*
X155091D02*
D03*
D22*
X379500Y277157D02*
D03*
D23*
Y296843D02*
D03*
D24*
X162216Y227500D02*
D03*
X252217Y249000D02*
D03*
X233217Y225500D02*
D03*
D25*
X126784Y227500D02*
D03*
X216783Y249000D02*
D03*
X197784Y225500D02*
D03*
D26*
X379500Y200626D02*
D03*
X123000Y206500D02*
D03*
D27*
X379500Y208500D02*
D03*
X123000Y198626D02*
D03*
D28*
X197500Y285500D02*
D03*
D29*
X207500D02*
D03*
X217500D02*
D03*
X227500D02*
D03*
X197500Y315500D02*
D03*
X207500D02*
D03*
X217500D02*
D03*
X227500D02*
D03*
X194500Y188000D02*
D03*
Y198000D02*
D03*
Y208000D02*
D03*
X164500Y178000D02*
D03*
Y188000D02*
D03*
Y198000D02*
D03*
Y208000D02*
D03*
D30*
X304500Y282200D02*
D03*
D31*
Y204500D02*
D03*
D32*
X256500Y273000D02*
D03*
D33*
Y280874D02*
D03*
D34*
X410795Y149484D02*
D03*
X367488Y165232D02*
D03*
D35*
X380087Y129012D02*
D03*
X385598Y139642D02*
D03*
X397410Y167201D02*
D03*
D36*
X264000Y168264D02*
D03*
D37*
Y138736D02*
D03*
D38*
X194500Y178000D02*
D03*
M02*
