G04*
G04 #@! TF.GenerationSoftware,Altium Limited,Altium Designer,25.2.1 (25)*
G04*
G04 Layer_Color=255*
%FSLAX25Y25*%
%MOIN*%
G70*
G04*
G04 #@! TF.SameCoordinates,C35E73BE-C39F-499D-9B8D-0DC63BFC9BBD*
G04*
G04*
G04 #@! TF.FilePolarity,Positive*
G04*
G01*
G75*
%ADD26C,0.05472*%
%ADD27R,0.05472X0.05472*%
%ADD30C,0.06300*%
%ADD31R,0.06300X0.06300*%
%ADD36C,0.05118*%
%ADD37R,0.05118X0.05118*%
%ADD39C,0.12598*%
%ADD40C,0.07480*%
%ADD41R,0.07480X0.07480*%
%ADD42C,0.08465*%
%ADD43R,0.08465X0.08465*%
%ADD44C,0.05512*%
G04:AMPARAMS|DCode=45|XSize=55.12mil|YSize=55.12mil|CornerRadius=13.78mil|HoleSize=0mil|Usage=FLASHONLY|Rotation=90.000|XOffset=0mil|YOffset=0mil|HoleType=Round|Shape=RoundedRectangle|*
%AMROUNDEDRECTD45*
21,1,0.05512,0.02756,0,0,90.0*
21,1,0.02756,0.05512,0,0,90.0*
1,1,0.02756,0.01378,0.01378*
1,1,0.02756,0.01378,-0.01378*
1,1,0.02756,-0.01378,-0.01378*
1,1,0.02756,-0.01378,0.01378*
%
%ADD45ROUNDEDRECTD45*%
%ADD46R,0.05315X0.05315*%
%ADD47C,0.05315*%
%ADD48R,0.05906X0.05906*%
%ADD49C,0.05906*%
%ADD50O,0.05512X0.11024*%
%ADD51O,0.11024X0.05512*%
%ADD52R,0.05906X0.05906*%
D26*
X379500Y200626D02*
D03*
X123000Y206500D02*
D03*
D27*
X379500Y208500D02*
D03*
X123000Y198626D02*
D03*
D30*
X304500Y282200D02*
D03*
D31*
Y204500D02*
D03*
D36*
X256500Y280874D02*
D03*
X264000Y168264D02*
D03*
D37*
X256500Y273000D02*
D03*
X264000Y138736D02*
D03*
D39*
X113000Y321000D02*
D03*
X110500Y111000D02*
D03*
X405500Y112000D02*
D03*
X402500Y319500D02*
D03*
D40*
X172500Y127000D02*
D03*
X197500D02*
D03*
D41*
X147500D02*
D03*
D42*
X123909Y275000D02*
D03*
X139500D02*
D03*
D43*
X155091D02*
D03*
D44*
X379500Y277157D02*
D03*
D45*
Y296843D02*
D03*
D46*
X162216Y227500D02*
D03*
X252217Y249000D02*
D03*
X233217Y225500D02*
D03*
D47*
X126784Y227500D02*
D03*
X216783Y249000D02*
D03*
X197784Y225500D02*
D03*
D48*
X197500Y285500D02*
D03*
D49*
X207500D02*
D03*
X217500D02*
D03*
X227500D02*
D03*
X197500Y315500D02*
D03*
X207500D02*
D03*
X217500D02*
D03*
X227500D02*
D03*
X194500Y188000D02*
D03*
Y198000D02*
D03*
Y208000D02*
D03*
X164500Y178000D02*
D03*
Y188000D02*
D03*
Y198000D02*
D03*
Y208000D02*
D03*
D50*
X410795Y149484D02*
D03*
X367488Y165232D02*
D03*
D51*
X380087Y129012D02*
D03*
X385598Y139642D02*
D03*
X397410Y167201D02*
D03*
D52*
X194500Y178000D02*
D03*
M02*
