G04*
G04 #@! TF.GenerationSoftware,Altium Limited,Altium Designer,25.2.1 (25)*
G04*
G04 Layer_Physical_Order=2*
G04 Layer_Color=16711680*
%FSLAX25Y25*%
%MOIN*%
G70*
G04*
G04 #@! TF.SameCoordinates,C35E73BE-C39F-499D-9B8D-0DC63BFC9BBD*
G04*
G04*
G04 #@! TF.FilePolarity,Positive*
G04*
G01*
G75*
%ADD26C,0.05472*%
%ADD27R,0.05472X0.05472*%
%ADD30C,0.06300*%
%ADD31R,0.06300X0.06300*%
%ADD36C,0.05118*%
%ADD37R,0.05118X0.05118*%
%ADD39C,0.12598*%
%ADD40C,0.07480*%
%ADD41R,0.07480X0.07480*%
%ADD42C,0.08465*%
%ADD43R,0.08465X0.08465*%
%ADD44C,0.05512*%
G04:AMPARAMS|DCode=45|XSize=55.12mil|YSize=55.12mil|CornerRadius=13.78mil|HoleSize=0mil|Usage=FLASHONLY|Rotation=90.000|XOffset=0mil|YOffset=0mil|HoleType=Round|Shape=RoundedRectangle|*
%AMROUNDEDRECTD45*
21,1,0.05512,0.02756,0,0,90.0*
21,1,0.02756,0.05512,0,0,90.0*
1,1,0.02756,0.01378,0.01378*
1,1,0.02756,0.01378,-0.01378*
1,1,0.02756,-0.01378,-0.01378*
1,1,0.02756,-0.01378,0.01378*
%
%ADD45ROUNDEDRECTD45*%
%ADD46R,0.05315X0.05315*%
%ADD47C,0.05315*%
%ADD48R,0.05906X0.05906*%
%ADD49C,0.05906*%
%ADD50O,0.05512X0.11024*%
%ADD51O,0.11024X0.05512*%
%ADD52R,0.05906X0.05906*%
%ADD53C,0.04000*%
D26*
X379500Y200626D02*
D03*
X123000Y206500D02*
D03*
D27*
X379500Y208500D02*
D03*
X123000Y198626D02*
D03*
D30*
X304500Y282200D02*
D03*
D31*
Y204500D02*
D03*
D36*
X256500Y280874D02*
D03*
X264000Y168264D02*
D03*
D37*
X256500Y273000D02*
D03*
X264000Y138736D02*
D03*
D39*
X113000Y321000D02*
D03*
X110500Y111000D02*
D03*
X405500Y112000D02*
D03*
X402500Y319500D02*
D03*
D40*
X172500Y127000D02*
D03*
X197500D02*
D03*
D41*
X147500D02*
D03*
D42*
X123909Y275000D02*
D03*
X139500D02*
D03*
D43*
X155091D02*
D03*
D44*
X379500Y277157D02*
D03*
D45*
Y296843D02*
D03*
D46*
X162216Y227500D02*
D03*
X252217Y249000D02*
D03*
X233217Y225500D02*
D03*
D47*
X126784Y227500D02*
D03*
X216783Y249000D02*
D03*
X197784Y225500D02*
D03*
D48*
X197500Y285500D02*
D03*
D49*
X207500D02*
D03*
X217500D02*
D03*
X227500D02*
D03*
X197500Y315500D02*
D03*
X207500D02*
D03*
X217500D02*
D03*
X227500D02*
D03*
X194500Y188000D02*
D03*
Y198000D02*
D03*
Y208000D02*
D03*
X164500Y178000D02*
D03*
Y188000D02*
D03*
Y198000D02*
D03*
Y208000D02*
D03*
D50*
X410795Y149484D02*
D03*
X367488Y165232D02*
D03*
D51*
X380087Y129012D02*
D03*
X385598Y139642D02*
D03*
X397410Y167201D02*
D03*
D52*
X194500Y178000D02*
D03*
D53*
X367488Y165232D02*
X367777Y164943D01*
Y154707D02*
Y164943D01*
Y154707D02*
X382842Y139642D01*
X385598D01*
X296759D02*
X385598D01*
X284117Y127000D02*
X296759Y139642D01*
X197500Y127000D02*
X284117D01*
X123000Y198626D02*
Y206500D01*
Y198626D02*
X143547D01*
X144173Y198000D01*
X164500D01*
X303350Y203350D02*
X304500Y204500D01*
X299086Y203350D02*
X303350D01*
X264000Y168264D02*
X299086Y203350D01*
X155091Y247410D02*
Y275000D01*
Y247410D02*
X194500Y208000D01*
X193283Y227587D02*
X195341D01*
X160565Y282232D02*
X176924Y265873D01*
X195341Y227587D02*
X197428Y225500D01*
X147858Y280475D02*
X149616Y282232D01*
X147858Y241858D02*
Y280475D01*
X149616Y282232D02*
X160565D01*
X176924Y243946D02*
X193283Y227587D01*
X197428Y225500D02*
X197784D01*
X176924Y243946D02*
Y265873D01*
X147858Y241858D02*
X162216Y227500D01*
X126784D02*
X140331Y213953D01*
X166966D01*
X170453Y210466D01*
Y195534D02*
Y210466D01*
X164865Y189946D02*
X170453Y195534D01*
X164865Y188365D02*
Y189946D01*
X164500Y188000D02*
X164865Y188365D01*
X161966Y218953D02*
X169037D01*
X170453Y188463D02*
X175453Y193463D01*
X169037Y218953D02*
X175453Y212537D01*
Y193463D02*
Y212537D01*
X159076Y221843D02*
X161966Y218953D01*
X170453Y184468D02*
Y188463D01*
X164500Y197484D02*
Y198000D01*
X158547Y191532D02*
X164500Y197484D01*
X158547Y166713D02*
Y191532D01*
Y166713D02*
X172500Y152760D01*
X164500Y178000D02*
Y178516D01*
X170453Y184468D01*
X158316Y221843D02*
X159076D01*
X123909Y256249D02*
X158316Y221843D01*
X123909Y256249D02*
Y275000D01*
X170362Y321453D01*
X211032D01*
X216984Y315500D01*
X217500D01*
X197500D02*
X214888Y298112D01*
X239262D01*
X256500Y280874D01*
X252217Y249000D02*
X256500Y253284D01*
Y273000D01*
X216783Y249000D02*
X233453Y265669D01*
Y287966D01*
X229966Y291453D02*
X233453Y287966D01*
X203453Y291453D02*
X229966D01*
X197500Y285500D02*
X203453Y291453D01*
X197784Y265784D02*
X217500Y285500D01*
X197784Y225500D02*
Y265784D01*
X118843Y117500D02*
X188000D01*
X172500Y127000D02*
Y152760D01*
X188000Y117500D02*
X197500Y127000D01*
X116500Y119843D02*
X118843Y117500D01*
X116500Y119843D02*
Y217216D01*
X126784Y227500D01*
X379102Y200626D02*
X379500D01*
X376964Y202764D02*
X379102Y200626D01*
X375521Y202764D02*
X376964D01*
X373764Y204521D02*
X375521Y202764D01*
X373764Y204521D02*
Y237767D01*
X379500Y243503D01*
Y277157D01*
X364858Y282200D02*
X379500Y296843D01*
X304500Y282200D02*
X364858D01*
X271200Y315500D02*
X304500Y282200D01*
X227500Y315500D02*
X271200D01*
M02*
