G04*
G04 #@! TF.GenerationSoftware,Altium Limited,Altium Designer,25.2.1 (25)*
G04*
G04 Layer_Color=65535*
%FSLAX25Y25*%
%MOIN*%
G70*
G04*
G04 #@! TF.SameCoordinates,F99C0EAD-8B59-483C-989D-22E72BE8A830*
G04*
G04*
G04 #@! TF.FilePolarity,Positive*
G04*
G01*
G75*
%ADD10C,0.00984*%
%ADD11C,0.00787*%
%ADD12C,0.02362*%
%ADD13C,0.01000*%
G36*
X187561Y153064D02*
Y152917D01*
Y151442D01*
X187413D01*
Y151590D01*
X174293D01*
Y151442D01*
X174145D01*
Y151590D01*
X173998D01*
Y151737D01*
X174145D01*
Y154686D01*
X173998D01*
Y154833D01*
X174145D01*
Y154980D01*
X187561D01*
Y153064D01*
D02*
G37*
G36*
X232820Y142302D02*
X226038D01*
Y142449D01*
X225154D01*
Y142597D01*
X224711D01*
Y142744D01*
X224269D01*
Y142892D01*
X223827D01*
Y143039D01*
X223532D01*
Y143187D01*
X223384D01*
Y143334D01*
X223090D01*
Y143481D01*
X222795D01*
Y143629D01*
X222647D01*
Y143776D01*
X222500D01*
Y143924D01*
X222205D01*
Y144071D01*
X222058D01*
Y144219D01*
X221910D01*
Y144366D01*
X221763D01*
Y144513D01*
X221616D01*
Y144661D01*
X221468D01*
Y144808D01*
X221321D01*
Y144956D01*
X221173D01*
Y145103D01*
X221026D01*
Y145398D01*
X220878D01*
Y145545D01*
X220731D01*
Y145693D01*
X220584D01*
Y145840D01*
X220436D01*
Y145988D01*
X220289D01*
Y146135D01*
X220141D01*
Y146430D01*
X219994D01*
Y146577D01*
X219846D01*
Y146725D01*
X219699D01*
Y146872D01*
X219551D01*
Y147020D01*
X219404D01*
Y147167D01*
X219257D01*
Y147462D01*
X219109D01*
Y147609D01*
X218962D01*
Y147757D01*
X218814D01*
Y147904D01*
X218667D01*
Y148052D01*
X218520D01*
Y148199D01*
X218372D01*
Y148494D01*
X218225D01*
Y148641D01*
X218077D01*
Y148789D01*
X217930D01*
Y148936D01*
X217782D01*
Y149083D01*
X217635D01*
Y149231D01*
X217488D01*
Y149526D01*
X217340D01*
Y149673D01*
X217193D01*
Y149821D01*
X217045D01*
Y149968D01*
X216898D01*
Y150116D01*
X216751D01*
Y150263D01*
X216603D01*
Y150558D01*
X216456D01*
Y150705D01*
X216308D01*
Y150853D01*
X216161D01*
Y151000D01*
X216013D01*
Y151147D01*
X215866D01*
Y151295D01*
X215719D01*
Y151590D01*
X215571D01*
Y151737D01*
X215424D01*
Y151884D01*
X215276D01*
Y152032D01*
X215129D01*
Y152179D01*
X214981D01*
Y152327D01*
X214834D01*
Y152622D01*
X214687D01*
Y152769D01*
X214539D01*
Y152917D01*
X214392D01*
Y153064D01*
X214244D01*
Y153211D01*
X214097D01*
Y153359D01*
X213949D01*
Y153654D01*
X213802D01*
Y153801D01*
X213655D01*
Y153948D01*
X213507D01*
Y154096D01*
X213360D01*
Y154243D01*
X213212D01*
Y154391D01*
X213065D01*
Y154686D01*
X212917D01*
Y154833D01*
X212770D01*
Y154980D01*
X212623D01*
Y155128D01*
X212475D01*
Y155275D01*
X212328D01*
Y155423D01*
X212180D01*
Y155718D01*
X212033D01*
Y155865D01*
X211886D01*
Y156012D01*
X211738D01*
Y156160D01*
X211591D01*
Y156307D01*
X211443D01*
Y156455D01*
X211296D01*
Y156749D01*
X211149D01*
Y156897D01*
X211001D01*
Y157044D01*
X210854D01*
Y157192D01*
X210706D01*
Y157339D01*
X210559D01*
Y157487D01*
X210411D01*
Y157634D01*
X210117D01*
Y157781D01*
X209969D01*
Y157929D01*
X209674D01*
Y158076D01*
X209527D01*
Y158224D01*
X209085D01*
Y158371D01*
X208642D01*
Y158519D01*
X207758D01*
Y142302D01*
X202745D01*
Y163383D01*
X209674D01*
Y163236D01*
X210411D01*
Y163089D01*
X210854D01*
Y162941D01*
X211296D01*
Y162794D01*
X211591D01*
Y162646D01*
X211886D01*
Y162499D01*
X212180D01*
Y162352D01*
X212328D01*
Y162204D01*
X212623D01*
Y162057D01*
X212770D01*
Y161909D01*
X213065D01*
Y161762D01*
X213212D01*
Y161614D01*
X213360D01*
Y161467D01*
X213507D01*
Y161320D01*
X213655D01*
Y161172D01*
X213802D01*
Y161025D01*
X213949D01*
Y160877D01*
X214097D01*
Y160730D01*
X214244D01*
Y160582D01*
X214392D01*
Y160435D01*
X214539D01*
Y160288D01*
X214687D01*
Y160140D01*
X214834D01*
Y159845D01*
X214981D01*
Y159698D01*
X215129D01*
Y159550D01*
X215276D01*
Y159403D01*
X215424D01*
Y159256D01*
X215571D01*
Y159108D01*
X215719D01*
Y158813D01*
X215866D01*
Y158666D01*
X216013D01*
Y158519D01*
X216161D01*
Y158371D01*
X216308D01*
Y158224D01*
X216456D01*
Y158076D01*
X216603D01*
Y157929D01*
X216751D01*
Y157634D01*
X216898D01*
Y157487D01*
X217045D01*
Y157339D01*
X217193D01*
Y157192D01*
X217340D01*
Y157044D01*
X217488D01*
Y156897D01*
X217635D01*
Y156749D01*
X217782D01*
Y156455D01*
X217930D01*
Y156307D01*
X218077D01*
Y156160D01*
X218225D01*
Y156012D01*
X218372D01*
Y155865D01*
X218520D01*
Y155718D01*
X218667D01*
Y155423D01*
X218814D01*
Y155275D01*
X218962D01*
Y155128D01*
X219109D01*
Y154980D01*
X219257D01*
Y154833D01*
X219404D01*
Y154686D01*
X219551D01*
Y154538D01*
X219699D01*
Y154243D01*
X219846D01*
Y154096D01*
X219994D01*
Y153948D01*
X220141D01*
Y153801D01*
X220289D01*
Y153654D01*
X220436D01*
Y153506D01*
X220584D01*
Y153211D01*
X220731D01*
Y153064D01*
X220878D01*
Y152917D01*
X221026D01*
Y152769D01*
X221173D01*
Y152622D01*
X221321D01*
Y152474D01*
X221468D01*
Y152327D01*
X221616D01*
Y152032D01*
X221763D01*
Y151884D01*
X221910D01*
Y151737D01*
X222058D01*
Y151590D01*
X222205D01*
Y151442D01*
X222353D01*
Y151295D01*
X222500D01*
Y151000D01*
X222647D01*
Y150853D01*
X222795D01*
Y150705D01*
X222942D01*
Y150558D01*
X223090D01*
Y150410D01*
X223237D01*
Y150263D01*
X223384D01*
Y150116D01*
X223532D01*
Y149821D01*
X223679D01*
Y149673D01*
X223827D01*
Y149526D01*
X223974D01*
Y149378D01*
X224122D01*
Y149231D01*
X224269D01*
Y149083D01*
X224416D01*
Y148789D01*
X224564D01*
Y148641D01*
X224711D01*
Y148494D01*
X224859D01*
Y148346D01*
X225006D01*
Y148199D01*
X225301D01*
Y148052D01*
X225448D01*
Y147904D01*
X225596D01*
Y147757D01*
X225891D01*
Y147609D01*
X226186D01*
Y147462D01*
X226480D01*
Y147314D01*
X226923D01*
Y147167D01*
X227807D01*
Y163383D01*
X232820D01*
Y142302D01*
D02*
G37*
G36*
X197586Y158961D02*
X173113D01*
Y158813D01*
X172819D01*
Y158666D01*
X172524D01*
Y158371D01*
X172376D01*
Y148052D01*
X172524D01*
Y147904D01*
X172671D01*
Y147757D01*
X172966D01*
Y147609D01*
X197586D01*
Y147462D01*
X197733D01*
Y142744D01*
X197586D01*
Y142597D01*
X173113D01*
Y142744D01*
X171492D01*
Y142892D01*
X170902D01*
Y143039D01*
X170312D01*
Y143187D01*
X169870D01*
Y143334D01*
X169575D01*
Y143481D01*
X169280D01*
Y143629D01*
X169133D01*
Y143776D01*
X168838D01*
Y143924D01*
X168691D01*
Y144071D01*
X168543D01*
Y144219D01*
X168396D01*
Y144366D01*
X168248D01*
Y144513D01*
X168101D01*
Y144661D01*
X167954D01*
Y144956D01*
X167806D01*
Y145250D01*
X167659D01*
Y145545D01*
X167511D01*
Y145840D01*
X167364D01*
Y146430D01*
X167217D01*
Y159993D01*
X167364D01*
Y160582D01*
X167511D01*
Y161025D01*
X167659D01*
Y161320D01*
X167806D01*
Y161614D01*
X167954D01*
Y161762D01*
X168101D01*
Y161909D01*
X168248D01*
Y162204D01*
X168396D01*
Y162352D01*
X168691D01*
Y162499D01*
X168838D01*
Y162646D01*
X168986D01*
Y162794D01*
X169280D01*
Y162941D01*
X169428D01*
Y163089D01*
X169723D01*
Y163236D01*
X170165D01*
Y163383D01*
X170607D01*
Y163531D01*
X171197D01*
Y163678D01*
X172229D01*
Y163826D01*
X197586D01*
Y158961D01*
D02*
G37*
G36*
X298275Y158519D02*
X273656D01*
Y158371D01*
X273361D01*
Y158224D01*
X273213D01*
Y158076D01*
X273066D01*
Y157929D01*
Y157781D01*
Y147609D01*
X273213D01*
Y147462D01*
X273361D01*
Y147314D01*
X273656D01*
Y147167D01*
X298423D01*
Y142302D01*
X272624D01*
Y142449D01*
X271739D01*
Y142597D01*
X271149D01*
Y142744D01*
X270707D01*
Y142892D01*
X270412D01*
Y143039D01*
X270117D01*
Y143187D01*
X269823D01*
Y143334D01*
X269675D01*
Y143481D01*
X269380D01*
Y143629D01*
X269233D01*
Y143776D01*
X269086D01*
Y143924D01*
X268938D01*
Y144071D01*
X268791D01*
Y144366D01*
X268643D01*
Y144513D01*
X268496D01*
Y144808D01*
X268349D01*
Y145103D01*
X268201D01*
Y145545D01*
X268054D01*
Y145988D01*
X267906D01*
Y147314D01*
X267759D01*
Y158371D01*
X267906D01*
Y159698D01*
X268054D01*
Y160288D01*
X268201D01*
Y160582D01*
X268349D01*
Y160877D01*
X268496D01*
Y161172D01*
X268643D01*
Y161467D01*
X268791D01*
Y161614D01*
X268938D01*
Y161762D01*
X269086D01*
Y161909D01*
X269233D01*
Y162057D01*
X269380D01*
Y162204D01*
X269528D01*
Y162352D01*
X269823D01*
Y162499D01*
X270117D01*
Y162646D01*
X270265D01*
Y162794D01*
X270707D01*
Y162941D01*
X271149D01*
Y163089D01*
X271592D01*
Y163236D01*
X272476D01*
Y163383D01*
X298275D01*
Y158519D01*
D02*
G37*
G36*
X251690Y164268D02*
X251985D01*
Y164121D01*
X252427D01*
Y163973D01*
X252722D01*
Y163826D01*
X253016D01*
Y163678D01*
X253164D01*
Y163531D01*
X253459D01*
Y163383D01*
X253606D01*
Y163236D01*
X253754D01*
Y163089D01*
X254048D01*
Y162941D01*
X254196D01*
Y162794D01*
X254343D01*
Y162646D01*
X254491D01*
Y162499D01*
X254638D01*
Y162352D01*
X254786D01*
Y162057D01*
X254933D01*
Y161909D01*
X255080D01*
Y161762D01*
X255228D01*
Y161467D01*
X255375D01*
Y161172D01*
X255523D01*
Y160877D01*
X255670D01*
Y160582D01*
X255818D01*
Y160140D01*
X255965D01*
Y159845D01*
Y159698D01*
Y159403D01*
X256112D01*
Y158519D01*
X254343D01*
Y141712D01*
X249184D01*
Y157929D01*
X236800D01*
Y162794D01*
X250953D01*
Y163089D01*
X251100D01*
Y163531D01*
X251247D01*
Y163973D01*
X251395D01*
Y164268D01*
X251542D01*
Y164416D01*
X251690D01*
Y164268D01*
D02*
G37*
G36*
X291494Y136847D02*
X290757D01*
Y137290D01*
X291494D01*
Y136847D01*
D02*
G37*
G36*
X277636D02*
X276899D01*
Y137290D01*
X277636D01*
Y136847D01*
D02*
G37*
G36*
X255375D02*
X254638D01*
Y137290D01*
X255375D01*
Y136847D01*
D02*
G37*
G36*
X246088Y137142D02*
Y136995D01*
X245940D01*
Y136847D01*
X245351D01*
Y136995D01*
X245203D01*
Y137290D01*
X246088D01*
Y137142D01*
D02*
G37*
G36*
X191836D02*
Y136995D01*
Y136847D01*
X191099D01*
Y137290D01*
X191836D01*
Y137142D01*
D02*
G37*
G36*
X214244Y136553D02*
X214097D01*
Y136700D01*
X212623D01*
Y136553D01*
X212475D01*
Y135816D01*
Y135668D01*
Y134341D01*
X211738D01*
Y136553D01*
X211591D01*
Y136700D01*
X210117D01*
Y136553D01*
X209969D01*
Y136700D01*
X209822D01*
Y137290D01*
X214244D01*
Y136553D01*
D02*
G37*
G36*
X171934Y136700D02*
X171787D01*
Y136553D01*
X171639D01*
Y136700D01*
X168396D01*
Y136553D01*
X168248D01*
Y136110D01*
X171934D01*
Y135521D01*
X171787D01*
Y135373D01*
X168248D01*
Y134931D01*
X171934D01*
Y134341D01*
X167806D01*
Y134489D01*
X167659D01*
Y134636D01*
X167511D01*
Y136995D01*
X167659D01*
Y137142D01*
X167954D01*
Y137290D01*
X171934D01*
Y136700D01*
D02*
G37*
G36*
X241223Y134636D02*
X241075D01*
Y134489D01*
X240928D01*
Y134341D01*
X238569D01*
Y134489D01*
X238274D01*
Y134783D01*
X238127D01*
Y136405D01*
X239011D01*
Y136258D01*
X238864D01*
Y134931D01*
X240486D01*
Y136405D01*
X241223D01*
Y134636D01*
D02*
G37*
G36*
X294442Y136405D02*
X294737D01*
Y136258D01*
X294884D01*
Y136110D01*
X295032D01*
Y134341D01*
X294295D01*
Y135816D01*
X294147D01*
Y135963D01*
X292673D01*
Y134341D01*
X291789D01*
Y136405D01*
X291936D01*
Y136553D01*
X294442D01*
Y136405D01*
D02*
G37*
G36*
X291494Y134341D02*
X290757D01*
Y135078D01*
Y135226D01*
Y136553D01*
X291494D01*
Y134341D01*
D02*
G37*
G36*
X290462Y135963D02*
X289282D01*
Y135816D01*
X289135D01*
Y134931D01*
Y134783D01*
Y134489D01*
X289282D01*
Y134341D01*
X288398D01*
Y135963D01*
X288545D01*
Y136258D01*
X288693D01*
Y136405D01*
X288988D01*
Y136553D01*
X290462D01*
Y135963D01*
D02*
G37*
G36*
X287661Y136405D02*
X287956D01*
Y135373D01*
X287808D01*
Y135226D01*
X285744D01*
Y134931D01*
X287956D01*
Y134341D01*
X285302D01*
Y134489D01*
X285155D01*
Y134783D01*
X285007D01*
Y136110D01*
X285155D01*
Y136405D01*
X285450D01*
Y136553D01*
X287661D01*
Y136405D01*
D02*
G37*
G36*
X284270D02*
X284565D01*
Y135373D01*
X284418D01*
Y135226D01*
X282354D01*
Y134931D01*
X284418D01*
Y134783D01*
X284565D01*
Y134341D01*
X281911D01*
Y134489D01*
X281764D01*
Y134636D01*
X281616D01*
Y136110D01*
X281764D01*
Y136405D01*
X282059D01*
Y136553D01*
X284270D01*
Y136405D01*
D02*
G37*
G36*
X280732D02*
X281027D01*
Y136258D01*
X281174D01*
Y134341D01*
X280437D01*
Y135226D01*
Y135373D01*
Y135963D01*
X278816D01*
Y134341D01*
X278078D01*
Y136553D01*
X280732D01*
Y136405D01*
D02*
G37*
G36*
X277636Y134341D02*
X276899D01*
Y136553D01*
X277636D01*
Y134341D01*
D02*
G37*
G36*
X272476Y136405D02*
X272771D01*
Y136258D01*
X272919D01*
Y134341D01*
X272181D01*
Y135963D01*
X270560D01*
Y134341D01*
X269823D01*
Y136553D01*
X272476D01*
Y136405D01*
D02*
G37*
G36*
X269380Y136700D02*
X265842D01*
Y136553D01*
X265695D01*
Y136110D01*
X269380D01*
Y135373D01*
X265695D01*
Y134931D01*
X269380D01*
Y134341D01*
X265253D01*
Y134489D01*
X265105D01*
Y134636D01*
X264958D01*
Y136995D01*
X265105D01*
Y137142D01*
X265400D01*
Y137290D01*
X269380D01*
Y136700D01*
D02*
G37*
G36*
X262009Y136405D02*
X262304D01*
Y136258D01*
X262452D01*
Y134341D01*
X261714D01*
Y135963D01*
X260093D01*
Y134636D01*
Y134489D01*
Y134341D01*
X259356D01*
Y136553D01*
X262009D01*
Y136405D01*
D02*
G37*
G36*
X258471D02*
X258766D01*
Y136258D01*
X258913D01*
Y134636D01*
X258766D01*
Y134489D01*
X258619D01*
Y134341D01*
X256112D01*
Y134489D01*
X255965D01*
Y134636D01*
X255818D01*
Y136110D01*
X255965D01*
Y136258D01*
X256112D01*
Y136405D01*
X256407D01*
Y136553D01*
X258471D01*
Y136405D01*
D02*
G37*
G36*
X255375Y134341D02*
X254638D01*
Y136553D01*
X255375D01*
Y134341D01*
D02*
G37*
G36*
X253901Y136553D02*
X254343D01*
Y135963D01*
X253901D01*
Y134341D01*
X253164D01*
Y135963D01*
X252869D01*
Y136110D01*
X252722D01*
Y136405D01*
X252869D01*
Y136553D01*
X253164D01*
Y137142D01*
X253901D01*
Y136553D01*
D02*
G37*
G36*
X252132Y136405D02*
X252427D01*
Y136110D01*
X252574D01*
Y134636D01*
X252427D01*
Y134489D01*
X252279D01*
Y134341D01*
X249773D01*
Y134489D01*
X249626D01*
Y135373D01*
X249773D01*
Y135521D01*
X250068D01*
Y135668D01*
X251837D01*
Y135963D01*
X249626D01*
Y136553D01*
X252132D01*
Y136405D01*
D02*
G37*
G36*
X249184D02*
Y135963D01*
X247267D01*
Y134931D01*
X249184D01*
Y134341D01*
X246825D01*
Y134489D01*
X246677D01*
Y134636D01*
X246530D01*
Y136258D01*
X246677D01*
Y136405D01*
X246972D01*
Y136553D01*
X249184D01*
Y136405D01*
D02*
G37*
G36*
X245940D02*
X246088D01*
Y134341D01*
X245203D01*
Y134636D01*
Y134783D01*
Y136405D01*
X245351D01*
Y136553D01*
X245940D01*
Y136405D01*
D02*
G37*
G36*
X244319D02*
X244613D01*
Y136258D01*
X244761D01*
Y136110D01*
X244908D01*
Y135226D01*
Y135078D01*
Y134341D01*
X244024D01*
Y134489D01*
X244171D01*
Y135816D01*
X244024D01*
Y135963D01*
X242549D01*
Y135816D01*
X242402D01*
Y134489D01*
X242549D01*
Y134341D01*
X241665D01*
Y136553D01*
X244319D01*
Y136405D01*
D02*
G37*
G36*
X237242D02*
X237537D01*
Y136258D01*
X237684D01*
Y136110D01*
X237832D01*
Y134341D01*
X236947D01*
Y134489D01*
X237095D01*
Y135816D01*
X236947D01*
Y135963D01*
X236063D01*
Y134341D01*
X235326D01*
Y135963D01*
X234441D01*
Y134341D01*
X233557D01*
Y134489D01*
X233704D01*
Y136553D01*
X237242D01*
Y136405D01*
D02*
G37*
G36*
X232672D02*
X232967D01*
Y136258D01*
X233114D01*
Y134489D01*
X233262D01*
Y134341D01*
X232377D01*
Y135963D01*
X231493D01*
Y135816D01*
Y134341D01*
X230756D01*
Y135963D01*
X229724D01*
Y134341D01*
X228987D01*
Y136553D01*
X232672D01*
Y136405D01*
D02*
G37*
G36*
X228102D02*
X228397D01*
Y136258D01*
X228544D01*
Y135963D01*
X228692D01*
Y134931D01*
X228544D01*
Y134489D01*
X228250D01*
Y134341D01*
X225743D01*
Y134489D01*
X225596D01*
Y134783D01*
X225448D01*
Y136110D01*
X225596D01*
Y136258D01*
X225743D01*
Y136405D01*
X226038D01*
Y136553D01*
X228102D01*
Y136405D01*
D02*
G37*
G36*
X225006Y135963D02*
X223090D01*
Y134931D01*
X225006D01*
Y134783D01*
X225154D01*
Y134341D01*
X222647D01*
Y134489D01*
X222500D01*
Y134636D01*
X222353D01*
Y136110D01*
X222500D01*
Y136405D01*
X222795D01*
Y136553D01*
X225006D01*
Y135963D01*
D02*
G37*
G36*
X221616Y136405D02*
X221910D01*
Y135373D01*
X221763D01*
Y135226D01*
X219699D01*
Y134931D01*
X221910D01*
Y134341D01*
X219257D01*
Y134489D01*
X219109D01*
Y134783D01*
X218962D01*
Y136110D01*
X219109D01*
Y136405D01*
X219404D01*
Y136553D01*
X221616D01*
Y136405D01*
D02*
G37*
G36*
X218520Y134341D02*
X217782D01*
Y135373D01*
Y135521D01*
Y137290D01*
X218520D01*
Y134341D01*
D02*
G37*
G36*
X217045Y136405D02*
X217193D01*
Y136258D01*
X217340D01*
Y135373D01*
X217045D01*
Y135226D01*
X215129D01*
Y134931D01*
X217193D01*
Y134783D01*
X217340D01*
Y134341D01*
X214687D01*
Y134489D01*
X214539D01*
Y134636D01*
X214392D01*
Y134783D01*
Y136258D01*
X214539D01*
Y136405D01*
X214834D01*
Y136553D01*
X217045D01*
Y136405D01*
D02*
G37*
G36*
X207463Y134636D02*
X207315D01*
Y134489D01*
X207168D01*
Y134341D01*
X204662D01*
Y134489D01*
X204514D01*
Y134636D01*
X204367D01*
Y136110D01*
X204514D01*
Y136405D01*
X204809D01*
Y136553D01*
X206726D01*
Y137290D01*
X207463D01*
Y134636D01*
D02*
G37*
G36*
X203335Y136405D02*
X203630D01*
Y136258D01*
X203777D01*
Y136110D01*
X203925D01*
Y134341D01*
X203188D01*
Y135816D01*
X203040D01*
Y135963D01*
X201566D01*
Y134341D01*
X200681D01*
Y136405D01*
X200829D01*
Y136553D01*
X203335D01*
Y136405D01*
D02*
G37*
G36*
X199944D02*
X200239D01*
Y136110D01*
X200387D01*
Y134636D01*
X200239D01*
Y134489D01*
X200092D01*
Y134341D01*
X197586D01*
Y134489D01*
X197438D01*
Y135226D01*
Y135373D01*
X197586D01*
Y135521D01*
X197880D01*
Y135668D01*
X199650D01*
Y135816D01*
X199502D01*
Y135963D01*
X197438D01*
Y136553D01*
X199944D01*
Y136405D01*
D02*
G37*
G36*
X195079Y135963D02*
X193163D01*
Y135816D01*
X193016D01*
Y134931D01*
X194932D01*
Y134783D01*
X195079D01*
Y134341D01*
X192573D01*
Y134489D01*
X192426D01*
Y134783D01*
X192278D01*
Y135963D01*
X192426D01*
Y136258D01*
X192573D01*
Y136405D01*
X192868D01*
Y136553D01*
X195079D01*
Y135963D01*
D02*
G37*
G36*
X191836Y134341D02*
X191099D01*
Y136553D01*
X191836D01*
Y134341D01*
D02*
G37*
G36*
X190214Y136405D02*
X190362D01*
Y136258D01*
X190509D01*
Y136110D01*
X190657D01*
Y134341D01*
X189920D01*
Y135963D01*
X188298D01*
Y134341D01*
X187561D01*
Y136553D01*
X190214D01*
Y136405D01*
D02*
G37*
G36*
X186676D02*
X186824D01*
Y136258D01*
X186971D01*
Y136110D01*
X187119D01*
Y134636D01*
X186971D01*
Y134489D01*
X186824D01*
Y134341D01*
X184318D01*
Y134489D01*
X184170D01*
Y134636D01*
X184023D01*
Y135226D01*
Y135373D01*
Y136258D01*
X184170D01*
Y136405D01*
X184465D01*
Y136553D01*
X186676D01*
Y136405D01*
D02*
G37*
G36*
X183728Y135963D02*
X182548D01*
Y135816D01*
X182401D01*
Y135078D01*
Y134931D01*
Y134341D01*
X181664D01*
Y136110D01*
X181811D01*
Y136258D01*
X181959D01*
Y136405D01*
X182254D01*
Y136553D01*
X183728D01*
Y135963D01*
D02*
G37*
G36*
X180927Y136553D02*
X181369D01*
Y135963D01*
X180927D01*
Y134341D01*
X180190D01*
Y134489D01*
X180337D01*
Y135816D01*
X180190D01*
Y135963D01*
X179895D01*
Y136553D01*
X180190D01*
Y136700D01*
X180337D01*
Y136995D01*
X180190D01*
Y137142D01*
X180927D01*
Y136553D01*
D02*
G37*
G36*
X179600Y135963D02*
X177683D01*
Y134931D01*
X179600D01*
Y134341D01*
X177241D01*
Y134489D01*
X177094D01*
Y134636D01*
X176946D01*
Y136110D01*
Y136258D01*
X177094D01*
Y136405D01*
X177389D01*
Y136553D01*
X179600D01*
Y135963D01*
D02*
G37*
G36*
X176209Y136405D02*
X176357D01*
Y136258D01*
X176504D01*
Y135521D01*
X176357D01*
Y135373D01*
X176209D01*
Y135226D01*
X174293D01*
Y134931D01*
X176357D01*
Y134783D01*
X176504D01*
Y134341D01*
X173851D01*
Y134489D01*
X173703D01*
Y134636D01*
X173556D01*
Y135816D01*
Y135963D01*
Y136258D01*
X173703D01*
Y136405D01*
X173998D01*
Y136553D01*
X176209D01*
Y136405D01*
D02*
G37*
G36*
X173113Y135373D02*
Y135226D01*
Y134341D01*
X172376D01*
Y137290D01*
X173113D01*
Y135373D01*
D02*
G37*
G36*
X298128Y136405D02*
X298423D01*
Y136258D01*
X298570D01*
Y133899D01*
X298423D01*
Y133751D01*
X298275D01*
Y133604D01*
X295622D01*
Y134194D01*
X297833D01*
Y134636D01*
X295769D01*
Y134783D01*
X295622D01*
Y134931D01*
X295474D01*
Y135373D01*
Y135521D01*
Y136258D01*
X295622D01*
Y136405D01*
X295917D01*
Y136553D01*
X298128D01*
Y136405D01*
D02*
G37*
G36*
X276014D02*
X276309D01*
Y136258D01*
X276457D01*
Y133899D01*
X276309D01*
Y133751D01*
X276162D01*
Y133604D01*
X273508D01*
Y134194D01*
X275720D01*
Y134636D01*
X273656D01*
Y134783D01*
X273508D01*
Y134931D01*
X273361D01*
Y136258D01*
X273508D01*
Y136405D01*
X273803D01*
Y136553D01*
X276014D01*
Y136405D01*
D02*
G37*
%LPC*%
G36*
X287219Y135963D02*
X285892D01*
Y135816D01*
X285744D01*
Y135668D01*
X287219D01*
Y135963D01*
D02*
G37*
G36*
X283828D02*
X282501D01*
Y135816D01*
X282354D01*
Y135668D01*
X283828D01*
Y135963D01*
D02*
G37*
G36*
X258176D02*
X256555D01*
Y134931D01*
X258176D01*
Y135963D01*
D02*
G37*
G36*
X251837Y135226D02*
X250363D01*
Y134931D01*
X251837D01*
Y135226D01*
D02*
G37*
G36*
X227807Y135963D02*
X226333D01*
Y135816D01*
X226186D01*
Y134931D01*
X227807D01*
Y135816D01*
Y135963D01*
D02*
G37*
G36*
X221173D02*
X219846D01*
Y135816D01*
X219699D01*
Y135668D01*
X221173D01*
Y135963D01*
D02*
G37*
G36*
X216603D02*
X215129D01*
Y135668D01*
X216603D01*
Y135963D01*
D02*
G37*
G36*
X206726D02*
X205104D01*
Y135816D01*
Y135668D01*
Y134931D01*
X206726D01*
Y135963D01*
D02*
G37*
G36*
X199650Y135226D02*
X198175D01*
Y134931D01*
X199650D01*
Y135226D01*
D02*
G37*
G36*
X186381Y135963D02*
X184760D01*
Y134931D01*
X186381D01*
Y135963D01*
D02*
G37*
G36*
X175767D02*
X174293D01*
Y135668D01*
X175767D01*
Y135963D01*
D02*
G37*
G36*
X297833D02*
X296211D01*
Y135226D01*
X297833D01*
Y135963D01*
D02*
G37*
G36*
X275720D02*
X274098D01*
Y135226D01*
X275720D01*
Y135963D01*
D02*
G37*
%LPD*%
D10*
X411992Y142520D02*
G03*
X411992Y142520I-492J0D01*
G01*
X503110Y440000D02*
G03*
X503110Y440000I-492J0D01*
G01*
X146374Y216000D02*
G03*
X146374Y216000I-492J0D01*
G01*
X374374Y213500D02*
G03*
X374374Y213500I-492J0D01*
G01*
X259374Y214000D02*
G03*
X259374Y214000I-492J0D01*
G01*
X401610Y440500D02*
G03*
X401610Y440500I-492J0D01*
G01*
X319492Y178784D02*
G03*
X319492Y178784I-492J0D01*
G01*
D11*
X503563Y427500D02*
G03*
X503563Y422500I0J-2500D01*
G01*
X144937Y228500D02*
G03*
X144937Y233500I0J2500D01*
G01*
X372937Y226000D02*
G03*
X372937Y231000I0J2500D01*
G01*
X257937Y226500D02*
G03*
X257937Y231500I0J2500D01*
G01*
X402063Y428000D02*
G03*
X402063Y423000I0J-2500D01*
G01*
X386264Y145079D02*
X421736D01*
Y181496D01*
X386264D02*
X421736D01*
X386264Y145079D02*
Y181496D01*
X411437Y435433D02*
X503563D01*
X411437Y414567D02*
X503563D01*
Y427500D02*
Y435433D01*
Y414567D02*
Y422500D01*
X411437Y414567D02*
Y435433D01*
X455402Y196153D02*
Y198224D01*
X430598Y188776D02*
Y190847D01*
X455402Y188776D02*
Y190847D01*
X430598Y196153D02*
Y198224D01*
X455402D01*
X430598Y188776D02*
X455402D01*
X237063Y220567D02*
Y241433D01*
X144937Y233500D02*
Y241433D01*
Y220567D02*
Y228500D01*
Y241433D02*
X237063D01*
X144937Y220567D02*
X237063D01*
X372937Y218067D02*
X465063D01*
X372937Y238933D02*
X465063D01*
X372937Y218067D02*
Y226000D01*
Y231000D02*
Y238933D01*
X465063Y218067D02*
Y238933D01*
X257937Y218567D02*
X350063D01*
X257937Y239433D02*
X350063D01*
X257937Y218567D02*
Y226500D01*
Y231500D02*
Y239433D01*
X350063Y218567D02*
Y239433D01*
X309937Y435933D02*
X402063D01*
X309937Y415067D02*
X402063D01*
Y428000D02*
Y435933D01*
Y415067D02*
Y423000D01*
X309937Y415067D02*
Y435933D01*
X364902Y465654D02*
Y467724D01*
X340098Y458276D02*
Y460347D01*
X364902Y458276D02*
Y460347D01*
X340098Y465654D02*
Y467724D01*
X364902D01*
X340098Y458276D02*
X364902D01*
X332902Y195153D02*
Y197224D01*
X308098Y187776D02*
Y189847D01*
X332902Y187776D02*
Y189847D01*
X308098Y195153D02*
Y197224D01*
X332902D01*
X308098Y187776D02*
X332902D01*
X464118Y468153D02*
Y470224D01*
X439315Y460776D02*
Y462847D01*
X464118Y460776D02*
Y462847D01*
X439315Y468153D02*
Y470224D01*
X464118D01*
X439315Y460776D02*
X464118D01*
X229902Y194653D02*
Y196724D01*
X205098Y187276D02*
Y189347D01*
X229902Y187276D02*
Y189347D01*
X205098Y194653D02*
Y196724D01*
X229902D01*
X205098Y187276D02*
X229902D01*
X274000Y166776D02*
X324000D01*
X274000D02*
Y176224D01*
X324000D01*
Y166776D02*
Y176224D01*
D12*
X500807Y431496D02*
G03*
X500807Y431496I-1181J0D01*
G01*
X150055Y224504D02*
G03*
X150055Y224504I-1181J0D01*
G01*
X378055Y222004D02*
G03*
X378055Y222004I-1181J0D01*
G01*
X263055Y222504D02*
G03*
X263055Y222504I-1181J0D01*
G01*
X399307Y431996D02*
G03*
X399307Y431996I-1181J0D01*
G01*
D13*
X173357Y466498D02*
Y460500D01*
X173643Y466498D02*
Y460500D01*
X172500Y466498D02*
X174500D01*
X172500Y460500D02*
X176785D01*
Y462214D01*
X176499Y460500D01*
X178499Y466498D02*
Y460500D01*
X178784Y466498D02*
Y460500D01*
X180498Y464784D02*
Y462499D01*
X177642Y466498D02*
X182212D01*
Y464784D01*
X181927Y466498D01*
X178784Y463642D02*
X180498D01*
X177642Y460500D02*
X182212D01*
Y462214D01*
X181927Y460500D01*
X183898Y466498D02*
Y460500D01*
X184183Y466498D02*
Y460500D01*
X183041Y466498D02*
X185897D01*
X186754Y466213D01*
X187325Y465641D01*
X187611Y465070D01*
X187897Y464213D01*
Y462785D01*
X187611Y461928D01*
X187325Y461356D01*
X186754Y460785D01*
X185897Y460500D01*
X183041D01*
X185897Y466498D02*
X186468Y466213D01*
X187040Y465641D01*
X187325Y465070D01*
X187611Y464213D01*
Y462785D01*
X187325Y461928D01*
X187040Y461356D01*
X186468Y460785D01*
X185897Y460500D01*
X194952Y466498D02*
Y460500D01*
X195238Y466498D02*
Y460500D01*
X194095Y466498D02*
X196952D01*
X197809Y466213D01*
X198380Y465641D01*
X198666Y465070D01*
X198951Y464213D01*
Y462785D01*
X198666Y461928D01*
X198380Y461356D01*
X197809Y460785D01*
X196952Y460500D01*
X194095D01*
X196952Y466498D02*
X197523Y466213D01*
X198094Y465641D01*
X198380Y465070D01*
X198666Y464213D01*
Y462785D01*
X198380Y461928D01*
X198094Y461356D01*
X197523Y460785D01*
X196952Y460500D01*
X200608Y466498D02*
X200323Y466213D01*
X200608Y465927D01*
X200894Y466213D01*
X200608Y466498D01*
Y464499D02*
Y460500D01*
X200894Y464499D02*
Y460500D01*
X199751Y464499D02*
X200894D01*
X199751Y460500D02*
X201751D01*
X205693Y463927D02*
X205978Y464499D01*
Y463356D01*
X205693Y463927D01*
X205407Y464213D01*
X204836Y464499D01*
X203693D01*
X203122Y464213D01*
X202836Y463927D01*
Y463356D01*
X203122Y463070D01*
X203693Y462785D01*
X205122Y462214D01*
X205693Y461928D01*
X205978Y461642D01*
X202836Y463642D02*
X203122Y463356D01*
X203693Y463070D01*
X205122Y462499D01*
X205693Y462214D01*
X205978Y461928D01*
Y461071D01*
X205693Y460785D01*
X205122Y460500D01*
X203979D01*
X203408Y460785D01*
X203122Y461071D01*
X202836Y461642D01*
Y460500D01*
X203122Y461071D01*
X207807Y464499D02*
Y458500D01*
X208092Y464499D02*
Y458500D01*
Y463642D02*
X208664Y464213D01*
X209235Y464499D01*
X209806D01*
X210663Y464213D01*
X211234Y463642D01*
X211520Y462785D01*
Y462214D01*
X211234Y461356D01*
X210663Y460785D01*
X209806Y460500D01*
X209235D01*
X208664Y460785D01*
X208092Y461356D01*
X209806Y464499D02*
X210378Y464213D01*
X210949Y463642D01*
X211234Y462785D01*
Y462214D01*
X210949Y461356D01*
X210378Y460785D01*
X209806Y460500D01*
X206950Y464499D02*
X208092D01*
X206950Y458500D02*
X208949D01*
X213206Y466498D02*
Y460500D01*
X213491Y466498D02*
Y460500D01*
X212349Y466498D02*
X213491D01*
X212349Y460500D02*
X214348D01*
X216005Y463927D02*
Y463642D01*
X215719D01*
Y463927D01*
X216005Y464213D01*
X216576Y464499D01*
X217719D01*
X218290Y464213D01*
X218576Y463927D01*
X218862Y463356D01*
Y461356D01*
X219147Y460785D01*
X219433Y460500D01*
X218576Y463927D02*
Y461356D01*
X218862Y460785D01*
X219433Y460500D01*
X219718D01*
X218576Y463356D02*
X218290Y463070D01*
X216576Y462785D01*
X215719Y462499D01*
X215434Y461928D01*
Y461356D01*
X215719Y460785D01*
X216576Y460500D01*
X217433D01*
X218004Y460785D01*
X218576Y461356D01*
X216576Y462785D02*
X216005Y462499D01*
X215719Y461928D01*
Y461356D01*
X216005Y460785D01*
X216576Y460500D01*
X221147Y464499D02*
X222861Y460500D01*
X221432Y464499D02*
X222861Y461071D01*
X224574Y464499D02*
X222861Y460500D01*
X222289Y459357D01*
X221718Y458786D01*
X221147Y458500D01*
X220861D01*
X220575Y458786D01*
X220861Y459071D01*
X221147Y458786D01*
X220575Y464499D02*
X222289D01*
X223432D02*
X225146D01*
X359500Y150999D02*
X363499D01*
X361499Y152998D02*
Y149000D01*
X365498Y148000D02*
X367497D01*
X366498D01*
Y153998D01*
X365498Y152998D01*
X374495Y148000D02*
X370496D01*
X374495Y151999D01*
Y152998D01*
X373496Y153998D01*
X371496D01*
X370496Y152998D01*
X376495Y153998D02*
Y149999D01*
X378494Y148000D01*
X380493Y149999D01*
Y153998D01*
X162714Y427499D02*
X159000D01*
Y421500D01*
X162714D01*
X159000Y424642D02*
X161285D01*
X163713Y427499D02*
Y421500D01*
X164970Y423785D02*
X168398D01*
Y424357D01*
X168112Y424928D01*
X167827Y425213D01*
X167255Y425499D01*
X166398D01*
X165827Y425213D01*
X165256Y424642D01*
X164970Y423785D01*
Y423214D01*
X165256Y422357D01*
X165827Y421786D01*
X166398Y421500D01*
X167255D01*
X167827Y421786D01*
X168398Y422357D01*
X173111Y424642D02*
X172540Y425213D01*
X171969Y425499D01*
X171112D01*
X170540Y425213D01*
X169969Y424642D01*
X169683Y423785D01*
Y423214D01*
X169969Y422357D01*
X170540Y421786D01*
X171112Y421500D01*
X171969D01*
X172540Y421786D01*
X173111Y422357D01*
X175254Y427499D02*
Y422643D01*
X175539Y421786D01*
X176111Y421500D01*
X176682D01*
X174397Y425499D02*
X176396D01*
X177539D02*
Y421500D01*
Y423785D02*
X177824Y424642D01*
X178396Y425213D01*
X178967Y425499D01*
X179824D01*
X181795D02*
X181224Y425213D01*
X180652Y424642D01*
X180367Y423785D01*
Y423214D01*
X180652Y422357D01*
X181224Y421786D01*
X181795Y421500D01*
X182652D01*
X183223Y421786D01*
X183795Y422357D01*
X184080Y423214D01*
Y423785D01*
X183795Y424642D01*
X183223Y425213D01*
X182652Y425499D01*
X181795D01*
X190108Y427499D02*
Y421500D01*
Y427499D02*
X192107D01*
X192964Y427213D01*
X193535Y426642D01*
X193821Y426070D01*
X194107Y425213D01*
Y423785D01*
X193821Y422928D01*
X193535Y422357D01*
X192964Y421786D01*
X192107Y421500D01*
X190108D01*
X196021Y427499D02*
X196306Y427213D01*
X196592Y427499D01*
X196306Y427784D01*
X196021Y427499D01*
X196306Y425499D02*
Y421500D01*
X197649Y423785D02*
X201077D01*
Y424357D01*
X200791Y424928D01*
X200505Y425213D01*
X199934Y425499D01*
X199077D01*
X198506Y425213D01*
X197934Y424642D01*
X197649Y423785D01*
Y423214D01*
X197934Y422357D01*
X198506Y421786D01*
X199077Y421500D01*
X199934D01*
X200505Y421786D01*
X201077Y422357D01*
X202362Y425499D02*
Y422643D01*
X202648Y421786D01*
X203219Y421500D01*
X204076D01*
X204647Y421786D01*
X205504Y422643D01*
Y425499D02*
Y421500D01*
X210218Y424642D02*
X209932Y425213D01*
X209075Y425499D01*
X208218D01*
X207361Y425213D01*
X207075Y424642D01*
X207361Y424071D01*
X207932Y423785D01*
X209361Y423500D01*
X209932Y423214D01*
X210218Y422643D01*
Y422357D01*
X209932Y421786D01*
X209075Y421500D01*
X208218D01*
X207361Y421786D01*
X207075Y422357D01*
X372900Y256698D02*
Y251700D01*
X373900Y250700D01*
X375899D01*
X376899Y251700D01*
Y256698D01*
X378898Y255698D02*
X379898Y256698D01*
X381897D01*
X382897Y255698D01*
Y254699D01*
X381897Y253699D01*
X380897D01*
X381897D01*
X382897Y252699D01*
Y251700D01*
X381897Y250700D01*
X379898D01*
X378898Y251700D01*
X309900Y453698D02*
Y448700D01*
X310900Y447700D01*
X312899D01*
X313899Y448700D01*
Y453698D01*
X318897Y447700D02*
Y453698D01*
X315898Y450699D01*
X319897D01*
X257900Y257198D02*
Y252200D01*
X258900Y251200D01*
X260899D01*
X261899Y252200D01*
Y257198D01*
X267897Y251200D02*
X263898D01*
X267897Y255199D01*
Y256198D01*
X266897Y257198D01*
X264898D01*
X263898Y256198D01*
X411400Y453198D02*
Y448200D01*
X412400Y447200D01*
X414399D01*
X415399Y448200D01*
Y453198D01*
X421397D02*
X417398D01*
Y450199D01*
X419397Y451199D01*
X420397D01*
X421397Y450199D01*
Y448200D01*
X420397Y447200D01*
X418398D01*
X417398Y448200D01*
X144900Y259198D02*
Y254200D01*
X145900Y253200D01*
X147899D01*
X148899Y254200D01*
Y259198D01*
X150898Y253200D02*
X152897D01*
X151898D01*
Y259198D01*
X150898Y258198D01*
X460498Y184999D02*
Y179001D01*
X457499D01*
X456500Y180001D01*
Y182000D01*
X457499Y183000D01*
X460498D01*
X458499D02*
X456500Y184999D01*
X454500Y180001D02*
X453501Y179001D01*
X451501D01*
X450502Y180001D01*
Y181000D01*
X451501Y182000D01*
X452501D01*
X451501D01*
X450502Y183000D01*
Y183999D01*
X451501Y184999D01*
X453501D01*
X454500Y183999D01*
X332600Y471200D02*
Y477198D01*
X335599D01*
X336599Y476198D01*
Y474199D01*
X335599Y473199D01*
X332600D01*
X334599D02*
X336599Y471200D01*
X341597D02*
Y477198D01*
X338598Y474199D01*
X342597D01*
X300600Y200700D02*
Y206698D01*
X303599D01*
X304599Y205698D01*
Y203699D01*
X303599Y202699D01*
X300600D01*
X302599D02*
X304599Y200700D01*
X310597D02*
X306598D01*
X310597Y204699D01*
Y205698D01*
X309597Y206698D01*
X307598D01*
X306598Y205698D01*
X431900Y473700D02*
Y479698D01*
X434899D01*
X435899Y478698D01*
Y476699D01*
X434899Y475699D01*
X431900D01*
X433899D02*
X435899Y473700D01*
X441897Y479698D02*
X437898D01*
Y476699D01*
X439897Y477699D01*
X440897D01*
X441897Y476699D01*
Y474700D01*
X440897Y473700D01*
X438898D01*
X437898Y474700D01*
X197600Y200200D02*
Y206198D01*
X200599D01*
X201599Y205198D01*
Y203199D01*
X200599Y202199D01*
X197600D01*
X199599D02*
X201599Y200200D01*
X203598D02*
X205597D01*
X204598D01*
Y206198D01*
X203598Y205198D01*
X274500Y182800D02*
Y188798D01*
X277499D01*
X278499Y187798D01*
Y185799D01*
X277499Y184799D01*
X274500D01*
X284497Y182800D02*
X280498D01*
X284497Y186799D01*
Y187798D01*
X283497Y188798D01*
X281498D01*
X280498Y187798D01*
X386800Y185000D02*
Y190998D01*
X389799D01*
X390799Y189998D01*
Y187999D01*
X389799Y186999D01*
X386800D01*
X392798Y185000D02*
X394797D01*
X393798D01*
Y190998D01*
X392798Y189998D01*
M02*
