M48
;Layer_Color=9474304
;FILE_FORMAT=2:4
INCH,TZ
;TYPE=PLATED
T01F00S00C0.0320
T02F00S00C0.0335
T03F00S00C0.0354
T04F00S00C0.0402
T05F00S00C0.0472
;TYPE=NON_PLATED
T06F00S00C0.1260
%
T01
X47900Y29000
Y30000
Y31000
X44900
Y30000
Y29000
X39350Y29050
Y30050
Y31050
X36350
Y30050
Y29050
X32250Y29100
Y30100
Y31100
X29250
Y30100
Y29100
X24850Y29050
Y30050
Y31050
X21850
Y30050
Y29050
X18300Y29000
Y30000
Y31000
X15300
Y30000
Y29000
Y32000
Y33000
Y34000
Y35000
Y36000
Y37000
Y38000
X18300
Y37000
Y36000
Y35000
Y34000
Y33000
Y32000
X21850Y32050
Y33050
Y34050
Y35050
Y36050
Y37050
Y38050
X24850
Y37050
Y36050
Y35050
Y34050
Y33050
Y32050
X29250Y32100
Y33100
Y34100
Y35100
Y36100
Y37100
Y38100
X32250
Y37100
Y36100
Y35100
Y34100
Y33100
Y32100
X36350Y32050
Y33050
Y34050
Y35050
Y36050
Y37050
Y38050
X39350
Y37050
Y36050
Y35050
Y34050
Y33050
Y32050
X44900Y32000
Y33000
Y34000
Y35000
Y36000
Y37000
Y38000
X47900
Y37000
Y36000
Y35000
Y34000
Y33000
Y32000
T02
X33822Y19250
X42528Y19350
X46072
X30278Y19250
X23522Y19200
X19978
X33478Y46300
X37022
X43400Y46550
X46943
T03
X31400Y21400
X32400
X33400
X34400
Y24400
X33400
X32400
X31400
X37900Y24350
X38900
X39900
X40900
X41900
X42900
X43900
X44900
X45900
Y21350
X44900
X43900
X42900
X41900
X40900
X39900
X38900
X37900
X30400Y21400
X29400
X28400
X27400
X26400
Y24400
X27400
X28400
X29400
X30400
X23100Y24600
X22100
X21100
X20100
X19100
X18100
X17100
X16100
Y21600
X17100
X18100
X19100
X20100
X21100
X22100
X23100
X15100
Y24600
X31600Y41050
X32600
X33600
X34600
X35600
X36600
X37600
X38600
X39600
X41750Y41000
X42750
X43750
X44750
X45750
X46750
Y44000
X45750
X44750
X43750
X42750
X41750
X39600Y44050
X38600
X37600
X36600
X35600
X34600
X33600
X32600
X31600
X47750Y44000
X48750
X49750
Y41000
X48750
X47750
T04
X31900Y17150
X30900
X29900
X28900
X27900
T05
X39650Y15000
X41150
T06
X13800Y13900
X50650
X49800Y47100
X13900Y47050
M30
