G04*
G04 #@! TF.GenerationSoftware,Altium Limited,Altium Designer,25.2.1 (25)*
G04*
G04 Layer_Color=16711935*
%FSLAX25Y25*%
%MOIN*%
G70*
G04*
G04 #@! TF.SameCoordinates,850D5FA2-28C2-4C25-8C15-A94B59A84C3C*
G04*
G04*
G04 #@! TF.FilePolarity,Positive*
G04*
G01*
G75*
%ADD11C,0.00787*%
G36*
X208968Y411938D02*
X208604D01*
X207574Y414456D01*
X207952D01*
X208247Y413692D01*
X209303D01*
X209576Y414456D01*
X209929D01*
X208968Y411938D01*
D02*
G37*
G36*
X207468Y413390D02*
X206511D01*
Y413699D01*
X207468D01*
Y413390D01*
D02*
G37*
G36*
X205117Y414496D02*
X205150D01*
X205190Y414493D01*
X205233Y414486D01*
X205284Y414478D01*
X205390Y414460D01*
X205499Y414431D01*
X205608Y414391D01*
X205659Y414365D01*
X205710Y414336D01*
X205714Y414333D01*
X205721Y414329D01*
X205736Y414318D01*
X205750Y414303D01*
X205772Y414289D01*
X205798Y414267D01*
X205827Y414242D01*
X205856Y414213D01*
X205885Y414180D01*
X205918Y414147D01*
X205983Y414063D01*
X206045Y413965D01*
X206100Y413856D01*
Y413852D01*
X206107Y413841D01*
X206111Y413823D01*
X206121Y413801D01*
X206129Y413772D01*
X206140Y413736D01*
X206154Y413696D01*
X206165Y413652D01*
X206176Y413605D01*
X206191Y413550D01*
X206209Y413437D01*
X206223Y413310D01*
X206231Y413179D01*
Y413175D01*
Y413161D01*
Y413139D01*
X206227Y413113D01*
Y413077D01*
X206223Y413040D01*
X206220Y412993D01*
X206212Y412946D01*
X206194Y412840D01*
X206169Y412724D01*
X206132Y412607D01*
X206081Y412494D01*
X206078Y412491D01*
X206074Y412480D01*
X206067Y412465D01*
X206052Y412447D01*
X206038Y412422D01*
X206019Y412393D01*
X205972Y412327D01*
X205910Y412254D01*
X205837Y412181D01*
X205754Y412109D01*
X205656Y412047D01*
X205652Y412043D01*
X205641Y412039D01*
X205626Y412032D01*
X205608Y412021D01*
X205579Y412010D01*
X205550Y411999D01*
X205514Y411985D01*
X205473Y411970D01*
X205430Y411956D01*
X205382Y411941D01*
X205281Y411919D01*
X205164Y411901D01*
X205044Y411894D01*
X205008D01*
X204982Y411897D01*
X204949Y411901D01*
X204909Y411905D01*
X204869Y411908D01*
X204822Y411919D01*
X204724Y411941D01*
X204614Y411974D01*
X204560Y411996D01*
X204509Y412021D01*
X204458Y412054D01*
X204407Y412087D01*
X204403Y412090D01*
X204396Y412094D01*
X204381Y412105D01*
X204363Y412123D01*
X204345Y412141D01*
X204320Y412167D01*
X204294Y412196D01*
X204265Y412225D01*
X204236Y412261D01*
X204207Y412305D01*
X204174Y412349D01*
X204145Y412396D01*
X204119Y412451D01*
X204090Y412505D01*
X204068Y412564D01*
X204047Y412629D01*
X204374Y412706D01*
Y412702D01*
X204378Y412695D01*
X204385Y412680D01*
X204392Y412662D01*
X204400Y412640D01*
X204411Y412611D01*
X204440Y412553D01*
X204476Y412487D01*
X204520Y412422D01*
X204574Y412360D01*
X204633Y412305D01*
X204640Y412298D01*
X204662Y412283D01*
X204698Y412265D01*
X204746Y412240D01*
X204807Y412218D01*
X204876Y412196D01*
X204960Y412181D01*
X205051Y412178D01*
X205080D01*
X205099Y412181D01*
X205124D01*
X205153Y412185D01*
X205222Y412196D01*
X205299Y412211D01*
X205379Y412236D01*
X205463Y412272D01*
X205539Y412320D01*
X205543D01*
X205546Y412327D01*
X205572Y412345D01*
X205605Y412374D01*
X205645Y412418D01*
X205692Y412472D01*
X205736Y412534D01*
X205776Y412611D01*
X205812Y412695D01*
Y412698D01*
X205816Y412706D01*
X205819Y412716D01*
X205823Y412735D01*
X205830Y412756D01*
X205837Y412782D01*
X205848Y412844D01*
X205863Y412917D01*
X205878Y412997D01*
X205885Y413084D01*
X205889Y413179D01*
Y413182D01*
Y413193D01*
Y413211D01*
Y413233D01*
X205885Y413259D01*
Y413292D01*
X205881Y413328D01*
X205878Y413368D01*
X205867Y413455D01*
X205848Y413550D01*
X205827Y413645D01*
X205798Y413739D01*
Y413743D01*
X205794Y413750D01*
X205786Y413761D01*
X205779Y413779D01*
X205757Y413823D01*
X205725Y413874D01*
X205685Y413932D01*
X205634Y413994D01*
X205575Y414049D01*
X205506Y414100D01*
X205503D01*
X205495Y414103D01*
X205484Y414111D01*
X205470Y414118D01*
X205452Y414125D01*
X205430Y414136D01*
X205379Y414158D01*
X205313Y414180D01*
X205241Y414198D01*
X205160Y414213D01*
X205077Y414216D01*
X205051D01*
X205029Y414213D01*
X205004D01*
X204978Y414209D01*
X204913Y414194D01*
X204837Y414176D01*
X204760Y414147D01*
X204680Y414107D01*
X204640Y414085D01*
X204604Y414056D01*
X204600Y414052D01*
X204596Y414049D01*
X204585Y414038D01*
X204571Y414027D01*
X204556Y414009D01*
X204538Y413987D01*
X204516Y413965D01*
X204498Y413936D01*
X204476Y413903D01*
X204451Y413867D01*
X204429Y413830D01*
X204407Y413787D01*
X204389Y413739D01*
X204371Y413688D01*
X204352Y413634D01*
X204338Y413576D01*
X204003Y413659D01*
Y413663D01*
X204007Y413677D01*
X204014Y413699D01*
X204025Y413728D01*
X204036Y413761D01*
X204050Y413801D01*
X204068Y413845D01*
X204090Y413892D01*
X204141Y413994D01*
X204207Y414096D01*
X204247Y414147D01*
X204287Y414198D01*
X204330Y414242D01*
X204381Y414285D01*
X204385Y414289D01*
X204392Y414296D01*
X204411Y414303D01*
X204429Y414318D01*
X204458Y414336D01*
X204487Y414354D01*
X204527Y414373D01*
X204567Y414391D01*
X204614Y414413D01*
X204665Y414431D01*
X204720Y414449D01*
X204778Y414467D01*
X204840Y414482D01*
X204906Y414489D01*
X204975Y414496D01*
X205048Y414500D01*
X205088D01*
X205117Y414496D01*
D02*
G37*
G36*
X212000Y411938D02*
X210966D01*
X210912Y411941D01*
X210850Y411945D01*
X210784Y411948D01*
X210722Y411956D01*
X210668Y411963D01*
X210661D01*
X210635Y411970D01*
X210602Y411977D01*
X210559Y411988D01*
X210511Y412007D01*
X210460Y412029D01*
X210406Y412054D01*
X210358Y412083D01*
X210351Y412087D01*
X210336Y412098D01*
X210315Y412119D01*
X210286Y412145D01*
X210253Y412178D01*
X210220Y412221D01*
X210184Y412269D01*
X210155Y412323D01*
X210151Y412331D01*
X210144Y412349D01*
X210129Y412382D01*
X210115Y412425D01*
X210104Y412476D01*
X210089Y412534D01*
X210082Y412600D01*
X210078Y412669D01*
Y412673D01*
Y412684D01*
Y412698D01*
X210082Y412724D01*
X210085Y412749D01*
X210089Y412782D01*
X210096Y412818D01*
X210104Y412858D01*
X210129Y412942D01*
X210144Y412986D01*
X210166Y413033D01*
X210191Y413080D01*
X210216Y413124D01*
X210249Y413168D01*
X210286Y413211D01*
X210289Y413215D01*
X210297Y413222D01*
X210307Y413233D01*
X210326Y413244D01*
X210348Y413262D01*
X210377Y413281D01*
X210413Y413303D01*
X210453Y413321D01*
X210500Y413343D01*
X210555Y413364D01*
X210613Y413382D01*
X210682Y413397D01*
X210755Y413412D01*
X210835Y413423D01*
X210926Y413430D01*
X211021Y413434D01*
X211665D01*
Y414456D01*
X212000D01*
Y411938D01*
D02*
G37*
G36*
X202864Y412487D02*
X202867Y412491D01*
X202886Y412505D01*
X202907Y412527D01*
X202944Y412553D01*
X202984Y412585D01*
X203035Y412622D01*
X203093Y412662D01*
X203158Y412702D01*
X203162D01*
X203166Y412706D01*
X203188Y412720D01*
X203224Y412738D01*
X203268Y412760D01*
X203319Y412786D01*
X203373Y412811D01*
X203428Y412837D01*
X203482Y412858D01*
Y412560D01*
X203479D01*
X203471Y412553D01*
X203457Y412549D01*
X203439Y412538D01*
X203417Y412527D01*
X203391Y412513D01*
X203329Y412476D01*
X203257Y412436D01*
X203184Y412385D01*
X203108Y412327D01*
X203031Y412265D01*
X203027Y412261D01*
X203024Y412258D01*
X203013Y412247D01*
X202998Y412236D01*
X202966Y412199D01*
X202922Y412156D01*
X202878Y412105D01*
X202831Y412047D01*
X202791Y411988D01*
X202754Y411927D01*
X202554D01*
Y414456D01*
X202864D01*
Y412487D01*
D02*
G37*
%LPC*%
G36*
X209205Y413419D02*
X208353D01*
X208615Y412727D01*
Y412724D01*
X208618Y412713D01*
X208626Y412695D01*
X208633Y412673D01*
X208644Y412647D01*
X208655Y412614D01*
X208666Y412578D01*
X208680Y412542D01*
X208710Y412458D01*
X208739Y412371D01*
X208768Y412283D01*
X208793Y412199D01*
Y412203D01*
X208797Y412211D01*
Y412225D01*
X208804Y412240D01*
X208808Y412265D01*
X208815Y412290D01*
X208830Y412352D01*
X208848Y412425D01*
X208873Y412505D01*
X208899Y412593D01*
X208931Y412684D01*
X209205Y413419D01*
D02*
G37*
G36*
X211665Y413135D02*
X210988D01*
X210963Y413131D01*
X210937D01*
X210908Y413128D01*
X210839Y413121D01*
X210762Y413106D01*
X210686Y413084D01*
X210617Y413055D01*
X210584Y413037D01*
X210559Y413015D01*
X210551Y413008D01*
X210537Y412993D01*
X210515Y412964D01*
X210489Y412927D01*
X210464Y412880D01*
X210442Y412822D01*
X210428Y412756D01*
X210420Y412680D01*
Y412676D01*
Y412673D01*
Y412655D01*
X210424Y412622D01*
X210431Y412585D01*
X210438Y412545D01*
X210453Y412498D01*
X210475Y412454D01*
X210500Y412411D01*
X210504Y412407D01*
X210515Y412393D01*
X210533Y412374D01*
X210555Y412349D01*
X210588Y412323D01*
X210624Y412301D01*
X210664Y412280D01*
X210712Y412261D01*
X210715D01*
X210730Y412258D01*
X210752Y412254D01*
X210781Y412247D01*
X210824Y412243D01*
X210879Y412240D01*
X210944Y412236D01*
X211665D01*
Y413135D01*
D02*
G37*
%LPD*%
D11*
X229716Y404264D02*
Y424736D01*
X194283D02*
X229716D01*
X194283Y404264D02*
Y424736D01*
Y404264D02*
X229716D01*
M02*
