G04*
G04 #@! TF.GenerationSoftware,Altium Limited,Altium Designer,25.2.1 (25)*
G04*
G04 Layer_Physical_Order=2*
G04 Layer_Color=16711680*
%FSLAX25Y25*%
%MOIN*%
G70*
G04*
G04 #@! TF.SameCoordinates,850D5FA2-28C2-4C25-8C15-A94B59A84C3C*
G04*
G04*
G04 #@! TF.FilePolarity,Positive*
G04*
G01*
G75*
%ADD14C,0.01000*%
%ADD28C,0.05118*%
%ADD29R,0.05118X0.05118*%
%ADD32C,0.12598*%
%ADD33C,0.08465*%
%ADD34R,0.08465X0.08465*%
%ADD35R,0.05315X0.05315*%
%ADD36C,0.05315*%
%ADD37R,0.05906X0.05906*%
%ADD38C,0.05906*%
%ADD39C,0.06693*%
%ADD40R,0.06693X0.06693*%
%ADD41R,0.05118X0.05118*%
%ADD42O,0.05512X0.11024*%
%ADD43O,0.11024X0.05512*%
D14*
X245000Y392500D02*
X289841Y437340D01*
X245000Y385366D02*
X256000Y374366D01*
X245000Y385366D02*
Y392500D01*
X256000Y355217D02*
Y374366D01*
X289841Y437340D02*
X299500Y427681D01*
X278450Y391783D02*
X285620Y398953D01*
X259000Y391783D02*
X278450D01*
X285620Y398953D02*
X303903D01*
X309500Y393355D01*
X309000Y359717D02*
X309500Y360216D01*
Y392500D01*
X302842Y355609D02*
X304893Y353559D01*
X302842Y355609D02*
Y358438D01*
X307721Y353559D02*
X309000Y352280D01*
X304893Y353559D02*
X307721D01*
X299500Y361780D02*
X302842Y358438D01*
X309500Y392500D02*
Y393355D01*
X299500Y361780D02*
Y392500D01*
X309000Y324284D02*
Y352280D01*
X259717Y324284D02*
X309000D01*
X220500Y363500D02*
X259717Y324284D01*
X180500Y336000D02*
X208000Y363500D01*
X212626D01*
X124000Y334784D02*
X130645Y341428D01*
Y399595D01*
X125681Y404559D02*
X130645Y399595D01*
X122319Y404559D02*
X125681D01*
X117842Y400083D02*
X122319Y404559D01*
X117842Y332233D02*
Y400083D01*
Y332233D02*
X130292Y319783D01*
X256000D01*
X130645Y341428D02*
X160500Y371284D01*
X119843Y333061D02*
Y358150D01*
X122278Y330626D02*
X153272D01*
X200489Y377842D01*
X160500Y371284D02*
Y394563D01*
X200489Y377842D02*
X209626D01*
X119843Y333061D02*
X122278Y330626D01*
X256000Y319783D02*
X257784Y318000D01*
X325500D01*
X326086Y318586D01*
Y319414D01*
X319500Y326000D02*
X326086Y319414D01*
X319500Y326000D02*
Y392500D01*
X226764Y414500D02*
X264181Y451917D01*
Y463000D01*
X299500Y422500D02*
Y427681D01*
X264181Y463000D02*
X289841Y437340D01*
X209626Y377842D02*
X259000Y427216D01*
X119843Y358150D02*
X128645Y366952D01*
Y392040D01*
X128059Y392626D02*
X128645Y392040D01*
X124000Y392626D02*
X128059D01*
X160500Y402437D02*
Y434554D01*
X140169Y454885D02*
X160500Y434554D01*
X140169Y454885D02*
Y469904D01*
X138085Y471988D02*
X140169Y469904D01*
X137913Y471988D02*
X138085D01*
D28*
X212626Y363500D02*
D03*
X160500Y394563D02*
D03*
X197236Y414500D02*
D03*
X124000Y400500D02*
D03*
D29*
X220500Y363500D02*
D03*
X226764Y414500D02*
D03*
D32*
X361500Y486500D02*
D03*
X109500Y486000D02*
D03*
X114000Y310000D02*
D03*
X364000Y312500D02*
D03*
D33*
X264181Y463000D02*
D03*
X248590D02*
D03*
D34*
X233000D02*
D03*
D35*
X309000Y359717D02*
D03*
X256000Y319783D02*
D03*
X259000Y427216D02*
D03*
X124000Y370216D02*
D03*
D36*
X309000Y324284D02*
D03*
X256000Y355217D02*
D03*
X259000Y391783D02*
D03*
X124000Y334784D02*
D03*
D37*
X299500Y392500D02*
D03*
D38*
X309500D02*
D03*
X319500D02*
D03*
X329500D02*
D03*
X299500Y422500D02*
D03*
X309500D02*
D03*
X319500D02*
D03*
X329500D02*
D03*
D39*
X165500Y336000D02*
D03*
D40*
X180500D02*
D03*
D41*
X160500Y402437D02*
D03*
X124000Y392626D02*
D03*
D42*
X107205Y451516D02*
D03*
X150512Y435768D02*
D03*
D43*
X137913Y471988D02*
D03*
X132402Y461358D02*
D03*
X120591Y433799D02*
D03*
M02*
