M48
;Layer_Color=9474304
;FILE_FORMAT=2:4
INCH,TZ
;TYPE=PLATED
T01F00S00C0.0315
T03F00S00C0.0335
T04F00S00C0.0354
T05F00S00C0.0472
T06F00S00C0.0650
;TYPE=NON_PLATED
T07F00S00C0.1260
%
T01
X12400Y39263
Y40050
X16050Y40244
Y39456
X19724Y41450
X22676
X22050Y36350
X21263
T03
X12400Y33478
Y37022
X25600Y35522
Y31978
X30900Y32428
Y35972
X25900Y39178
Y42722
T04
X29950Y39250
X30950
Y42250
X29950
X31950
X32950
Y39250
X31950
T05
X16550Y33600
X18050
T06
X23300Y46300
X24859
X26418
T07
X11400Y31000
X36400Y31250
X36150Y48650
X10950Y48600
M30
