G04*
G04 #@! TF.GenerationSoftware,Altium Limited,Altium Designer,25.2.1 (25)*
G04*
G04 Layer_Color=65535*
%FSLAX25Y25*%
%MOIN*%
G70*
G04*
G04 #@! TF.SameCoordinates,850D5FA2-28C2-4C25-8C15-A94B59A84C3C*
G04*
G04*
G04 #@! TF.FilePolarity,Positive*
G04*
G01*
G75*
%ADD10C,0.00984*%
%ADD11C,0.00787*%
%ADD12C,0.02362*%
%ADD13C,0.00500*%
%ADD14C,0.01000*%
%ADD15C,0.00591*%
G36*
X307225Y463956D02*
Y463894D01*
Y463281D01*
X307164D01*
Y463342D01*
X301705D01*
Y463281D01*
X301643D01*
Y463342D01*
X301582D01*
Y463404D01*
X301643D01*
Y464630D01*
X301582D01*
Y464692D01*
X301643D01*
Y464753D01*
X307225D01*
Y463956D01*
D02*
G37*
G36*
X326057Y459478D02*
X323235D01*
Y459539D01*
X322867D01*
Y459600D01*
X322683D01*
Y459662D01*
X322499D01*
Y459723D01*
X322315D01*
Y459785D01*
X322192D01*
Y459846D01*
X322131D01*
Y459907D01*
X322008D01*
Y459969D01*
X321886D01*
Y460030D01*
X321824D01*
Y460091D01*
X321763D01*
Y460153D01*
X321640D01*
Y460214D01*
X321579D01*
Y460275D01*
X321517D01*
Y460337D01*
X321456D01*
Y460398D01*
X321395D01*
Y460459D01*
X321334D01*
Y460521D01*
X321272D01*
Y460582D01*
X321211D01*
Y460643D01*
X321149D01*
Y460766D01*
X321088D01*
Y460827D01*
X321027D01*
Y460889D01*
X320966D01*
Y460950D01*
X320904D01*
Y461011D01*
X320843D01*
Y461073D01*
X320781D01*
Y461195D01*
X320720D01*
Y461257D01*
X320659D01*
Y461318D01*
X320597D01*
Y461379D01*
X320536D01*
Y461441D01*
X320475D01*
Y461502D01*
X320413D01*
Y461625D01*
X320352D01*
Y461686D01*
X320291D01*
Y461747D01*
X320229D01*
Y461809D01*
X320168D01*
Y461870D01*
X320107D01*
Y461931D01*
X320045D01*
Y462054D01*
X319984D01*
Y462115D01*
X319923D01*
Y462177D01*
X319861D01*
Y462238D01*
X319800D01*
Y462299D01*
X319739D01*
Y462361D01*
X319677D01*
Y462484D01*
X319616D01*
Y462545D01*
X319555D01*
Y462606D01*
X319493D01*
Y462668D01*
X319432D01*
Y462729D01*
X319371D01*
Y462790D01*
X319309D01*
Y462913D01*
X319248D01*
Y462974D01*
X319187D01*
Y463036D01*
X319125D01*
Y463097D01*
X319064D01*
Y463158D01*
X319003D01*
Y463220D01*
X318941D01*
Y463342D01*
X318880D01*
Y463404D01*
X318819D01*
Y463465D01*
X318757D01*
Y463526D01*
X318696D01*
Y463588D01*
X318635D01*
Y463649D01*
X318573D01*
Y463772D01*
X318512D01*
Y463833D01*
X318450D01*
Y463894D01*
X318389D01*
Y463956D01*
X318328D01*
Y464017D01*
X318267D01*
Y464078D01*
X318205D01*
Y464201D01*
X318144D01*
Y464262D01*
X318082D01*
Y464324D01*
X318021D01*
Y464385D01*
X317960D01*
Y464446D01*
X317899D01*
Y464508D01*
X317837D01*
Y464630D01*
X317776D01*
Y464692D01*
X317714D01*
Y464753D01*
X317653D01*
Y464814D01*
X317592D01*
Y464876D01*
X317530D01*
Y464937D01*
X317469D01*
Y465060D01*
X317408D01*
Y465121D01*
X317346D01*
Y465182D01*
X317285D01*
Y465244D01*
X317224D01*
Y465305D01*
X317162D01*
Y465367D01*
X317101D01*
Y465489D01*
X317040D01*
Y465551D01*
X316978D01*
Y465612D01*
X316917D01*
Y465673D01*
X316856D01*
Y465734D01*
X316794D01*
Y465796D01*
X316733D01*
Y465857D01*
X316610D01*
Y465919D01*
X316549D01*
Y465980D01*
X316426D01*
Y466041D01*
X316365D01*
Y466103D01*
X316181D01*
Y466164D01*
X315997D01*
Y466225D01*
X315629D01*
Y459478D01*
X313543D01*
Y468250D01*
X316426D01*
Y468188D01*
X316733D01*
Y468127D01*
X316917D01*
Y468066D01*
X317101D01*
Y468004D01*
X317224D01*
Y467943D01*
X317346D01*
Y467881D01*
X317469D01*
Y467820D01*
X317530D01*
Y467759D01*
X317653D01*
Y467697D01*
X317714D01*
Y467636D01*
X317837D01*
Y467575D01*
X317899D01*
Y467513D01*
X317960D01*
Y467452D01*
X318021D01*
Y467391D01*
X318082D01*
Y467329D01*
X318144D01*
Y467268D01*
X318205D01*
Y467207D01*
X318267D01*
Y467145D01*
X318328D01*
Y467084D01*
X318389D01*
Y467023D01*
X318450D01*
Y466961D01*
X318512D01*
Y466900D01*
X318573D01*
Y466777D01*
X318635D01*
Y466716D01*
X318696D01*
Y466655D01*
X318757D01*
Y466593D01*
X318819D01*
Y466532D01*
X318880D01*
Y466471D01*
X318941D01*
Y466348D01*
X319003D01*
Y466287D01*
X319064D01*
Y466225D01*
X319125D01*
Y466164D01*
X319187D01*
Y466103D01*
X319248D01*
Y466041D01*
X319309D01*
Y465980D01*
X319371D01*
Y465857D01*
X319432D01*
Y465796D01*
X319493D01*
Y465734D01*
X319555D01*
Y465673D01*
X319616D01*
Y465612D01*
X319677D01*
Y465551D01*
X319739D01*
Y465489D01*
X319800D01*
Y465367D01*
X319861D01*
Y465305D01*
X319923D01*
Y465244D01*
X319984D01*
Y465182D01*
X320045D01*
Y465121D01*
X320107D01*
Y465060D01*
X320168D01*
Y464937D01*
X320229D01*
Y464876D01*
X320291D01*
Y464814D01*
X320352D01*
Y464753D01*
X320413D01*
Y464692D01*
X320475D01*
Y464630D01*
X320536D01*
Y464569D01*
X320597D01*
Y464446D01*
X320659D01*
Y464385D01*
X320720D01*
Y464324D01*
X320781D01*
Y464262D01*
X320843D01*
Y464201D01*
X320904D01*
Y464140D01*
X320966D01*
Y464017D01*
X321027D01*
Y463956D01*
X321088D01*
Y463894D01*
X321149D01*
Y463833D01*
X321211D01*
Y463772D01*
X321272D01*
Y463710D01*
X321334D01*
Y463649D01*
X321395D01*
Y463526D01*
X321456D01*
Y463465D01*
X321517D01*
Y463404D01*
X321579D01*
Y463342D01*
X321640D01*
Y463281D01*
X321702D01*
Y463220D01*
X321763D01*
Y463097D01*
X321824D01*
Y463036D01*
X321886D01*
Y462974D01*
X321947D01*
Y462913D01*
X322008D01*
Y462852D01*
X322070D01*
Y462790D01*
X322131D01*
Y462729D01*
X322192D01*
Y462606D01*
X322254D01*
Y462545D01*
X322315D01*
Y462484D01*
X322376D01*
Y462422D01*
X322438D01*
Y462361D01*
X322499D01*
Y462299D01*
X322560D01*
Y462177D01*
X322622D01*
Y462115D01*
X322683D01*
Y462054D01*
X322744D01*
Y461993D01*
X322806D01*
Y461931D01*
X322928D01*
Y461870D01*
X322990D01*
Y461809D01*
X323051D01*
Y461747D01*
X323174D01*
Y461686D01*
X323296D01*
Y461625D01*
X323419D01*
Y461563D01*
X323603D01*
Y461502D01*
X323971D01*
Y468250D01*
X326057D01*
Y459478D01*
D02*
G37*
G36*
X311396Y466409D02*
X301214D01*
Y466348D01*
X301091D01*
Y466287D01*
X300969D01*
Y466164D01*
X300907D01*
Y461870D01*
X300969D01*
Y461809D01*
X301030D01*
Y461747D01*
X301153D01*
Y461686D01*
X311396D01*
Y461625D01*
X311458D01*
Y459662D01*
X311396D01*
Y459600D01*
X301214D01*
Y459662D01*
X300539D01*
Y459723D01*
X300294D01*
Y459785D01*
X300048D01*
Y459846D01*
X299864D01*
Y459907D01*
X299742D01*
Y459969D01*
X299619D01*
Y460030D01*
X299558D01*
Y460091D01*
X299435D01*
Y460153D01*
X299374D01*
Y460214D01*
X299312D01*
Y460275D01*
X299251D01*
Y460337D01*
X299190D01*
Y460398D01*
X299128D01*
Y460459D01*
X299067D01*
Y460582D01*
X299006D01*
Y460705D01*
X298944D01*
Y460827D01*
X298883D01*
Y460950D01*
X298822D01*
Y461195D01*
X298760D01*
Y466839D01*
X298822D01*
Y467084D01*
X298883D01*
Y467268D01*
X298944D01*
Y467391D01*
X299006D01*
Y467513D01*
X299067D01*
Y467575D01*
X299128D01*
Y467636D01*
X299190D01*
Y467759D01*
X299251D01*
Y467820D01*
X299374D01*
Y467881D01*
X299435D01*
Y467943D01*
X299496D01*
Y468004D01*
X299619D01*
Y468066D01*
X299680D01*
Y468127D01*
X299803D01*
Y468188D01*
X299987D01*
Y468250D01*
X300171D01*
Y468311D01*
X300416D01*
Y468372D01*
X300846D01*
Y468434D01*
X311396D01*
Y466409D01*
D02*
G37*
G36*
X353292Y466225D02*
X343048D01*
Y466164D01*
X342925D01*
Y466103D01*
X342864D01*
Y466041D01*
X342803D01*
Y465980D01*
Y465919D01*
Y461686D01*
X342864D01*
Y461625D01*
X342925D01*
Y461563D01*
X343048D01*
Y461502D01*
X353353D01*
Y459478D01*
X342619D01*
Y459539D01*
X342250D01*
Y459600D01*
X342005D01*
Y459662D01*
X341821D01*
Y459723D01*
X341699D01*
Y459785D01*
X341576D01*
Y459846D01*
X341453D01*
Y459907D01*
X341392D01*
Y459969D01*
X341269D01*
Y460030D01*
X341208D01*
Y460091D01*
X341146D01*
Y460153D01*
X341085D01*
Y460214D01*
X341024D01*
Y460337D01*
X340962D01*
Y460398D01*
X340901D01*
Y460521D01*
X340840D01*
Y460643D01*
X340778D01*
Y460827D01*
X340717D01*
Y461011D01*
X340656D01*
Y461563D01*
X340594D01*
Y466164D01*
X340656D01*
Y466716D01*
X340717D01*
Y466961D01*
X340778D01*
Y467084D01*
X340840D01*
Y467207D01*
X340901D01*
Y467329D01*
X340962D01*
Y467452D01*
X341024D01*
Y467513D01*
X341085D01*
Y467575D01*
X341146D01*
Y467636D01*
X341208D01*
Y467697D01*
X341269D01*
Y467759D01*
X341330D01*
Y467820D01*
X341453D01*
Y467881D01*
X341576D01*
Y467943D01*
X341637D01*
Y468004D01*
X341821D01*
Y468066D01*
X342005D01*
Y468127D01*
X342189D01*
Y468188D01*
X342557D01*
Y468250D01*
X353292D01*
Y466225D01*
D02*
G37*
G36*
X333908Y468617D02*
X334031D01*
Y468556D01*
X334215D01*
Y468495D01*
X334338D01*
Y468434D01*
X334460D01*
Y468372D01*
X334522D01*
Y468311D01*
X334644D01*
Y468250D01*
X334706D01*
Y468188D01*
X334767D01*
Y468127D01*
X334890D01*
Y468066D01*
X334951D01*
Y468004D01*
X335012D01*
Y467943D01*
X335074D01*
Y467881D01*
X335135D01*
Y467820D01*
X335196D01*
Y467697D01*
X335258D01*
Y467636D01*
X335319D01*
Y467575D01*
X335380D01*
Y467452D01*
X335442D01*
Y467329D01*
X335503D01*
Y467207D01*
X335564D01*
Y467084D01*
X335626D01*
Y466900D01*
X335687D01*
Y466777D01*
Y466716D01*
Y466593D01*
X335749D01*
Y466225D01*
X335012D01*
Y459233D01*
X332866D01*
Y465980D01*
X327713D01*
Y468004D01*
X333601D01*
Y468127D01*
X333663D01*
Y468311D01*
X333724D01*
Y468495D01*
X333786D01*
Y468617D01*
X333847D01*
Y468679D01*
X333908D01*
Y468617D01*
D02*
G37*
G36*
X350470Y457208D02*
X350163D01*
Y457392D01*
X350470D01*
Y457208D01*
D02*
G37*
G36*
X344704D02*
X344397D01*
Y457392D01*
X344704D01*
Y457208D01*
D02*
G37*
G36*
X335442D02*
X335135D01*
Y457392D01*
X335442D01*
Y457208D01*
D02*
G37*
G36*
X331577Y457331D02*
Y457270D01*
X331516D01*
Y457208D01*
X331271D01*
Y457270D01*
X331209D01*
Y457392D01*
X331577D01*
Y457331D01*
D02*
G37*
G36*
X309004D02*
Y457270D01*
Y457208D01*
X308697D01*
Y457392D01*
X309004D01*
Y457331D01*
D02*
G37*
G36*
X318328Y457086D02*
X318267D01*
Y457147D01*
X317653D01*
Y457086D01*
X317592D01*
Y456779D01*
Y456717D01*
Y456166D01*
X317285D01*
Y457086D01*
X317224D01*
Y457147D01*
X316610D01*
Y457086D01*
X316549D01*
Y457147D01*
X316488D01*
Y457392D01*
X318328D01*
Y457086D01*
D02*
G37*
G36*
X300723Y457147D02*
X300662D01*
Y457086D01*
X300601D01*
Y457147D01*
X299251D01*
Y457086D01*
X299190D01*
Y456902D01*
X300723D01*
Y456656D01*
X300662D01*
Y456595D01*
X299190D01*
Y456411D01*
X300723D01*
Y456166D01*
X299006D01*
Y456227D01*
X298944D01*
Y456288D01*
X298883D01*
Y457270D01*
X298944D01*
Y457331D01*
X299067D01*
Y457392D01*
X300723D01*
Y457147D01*
D02*
G37*
G36*
X329553Y456288D02*
X329492D01*
Y456227D01*
X329430D01*
Y456166D01*
X328449D01*
Y456227D01*
X328326D01*
Y456350D01*
X328265D01*
Y457024D01*
X328633D01*
Y456963D01*
X328572D01*
Y456411D01*
X329246D01*
Y457024D01*
X329553D01*
Y456288D01*
D02*
G37*
G36*
X351697Y457024D02*
X351820D01*
Y456963D01*
X351881D01*
Y456902D01*
X351942D01*
Y456166D01*
X351636D01*
Y456779D01*
X351574D01*
Y456840D01*
X350961D01*
Y456166D01*
X350593D01*
Y457024D01*
X350654D01*
Y457086D01*
X351697D01*
Y457024D01*
D02*
G37*
G36*
X350470Y456166D02*
X350163D01*
Y456472D01*
Y456533D01*
Y457086D01*
X350470D01*
Y456166D01*
D02*
G37*
G36*
X350041Y456840D02*
X349550D01*
Y456779D01*
X349489D01*
Y456411D01*
Y456350D01*
Y456227D01*
X349550D01*
Y456166D01*
X349182D01*
Y456840D01*
X349243D01*
Y456963D01*
X349305D01*
Y457024D01*
X349427D01*
Y457086D01*
X350041D01*
Y456840D01*
D02*
G37*
G36*
X348875Y457024D02*
X348998D01*
Y456595D01*
X348937D01*
Y456533D01*
X348078D01*
Y456411D01*
X348998D01*
Y456166D01*
X347894D01*
Y456227D01*
X347832D01*
Y456350D01*
X347771D01*
Y456902D01*
X347832D01*
Y457024D01*
X347955D01*
Y457086D01*
X348875D01*
Y457024D01*
D02*
G37*
G36*
X347464D02*
X347587D01*
Y456595D01*
X347526D01*
Y456533D01*
X346667D01*
Y456411D01*
X347526D01*
Y456350D01*
X347587D01*
Y456166D01*
X346483D01*
Y456227D01*
X346422D01*
Y456288D01*
X346360D01*
Y456902D01*
X346422D01*
Y457024D01*
X346544D01*
Y457086D01*
X347464D01*
Y457024D01*
D02*
G37*
G36*
X345992D02*
X346115D01*
Y456963D01*
X346176D01*
Y456166D01*
X345870D01*
Y456533D01*
Y456595D01*
Y456840D01*
X345195D01*
Y456166D01*
X344888D01*
Y457086D01*
X345992D01*
Y457024D01*
D02*
G37*
G36*
X344704Y456166D02*
X344397D01*
Y457086D01*
X344704D01*
Y456166D01*
D02*
G37*
G36*
X342557Y457024D02*
X342680D01*
Y456963D01*
X342741D01*
Y456166D01*
X342435D01*
Y456840D01*
X341760D01*
Y456166D01*
X341453D01*
Y457086D01*
X342557D01*
Y457024D01*
D02*
G37*
G36*
X341269Y457147D02*
X339797D01*
Y457086D01*
X339736D01*
Y456902D01*
X341269D01*
Y456595D01*
X339736D01*
Y456411D01*
X341269D01*
Y456166D01*
X339551D01*
Y456227D01*
X339490D01*
Y456288D01*
X339429D01*
Y457270D01*
X339490D01*
Y457331D01*
X339613D01*
Y457392D01*
X341269D01*
Y457147D01*
D02*
G37*
G36*
X338202Y457024D02*
X338325D01*
Y456963D01*
X338386D01*
Y456166D01*
X338079D01*
Y456840D01*
X337405D01*
Y456288D01*
Y456227D01*
Y456166D01*
X337098D01*
Y457086D01*
X338202D01*
Y457024D01*
D02*
G37*
G36*
X336730D02*
X336853D01*
Y456963D01*
X336914D01*
Y456288D01*
X336853D01*
Y456227D01*
X336791D01*
Y456166D01*
X335749D01*
Y456227D01*
X335687D01*
Y456288D01*
X335626D01*
Y456902D01*
X335687D01*
Y456963D01*
X335749D01*
Y457024D01*
X335871D01*
Y457086D01*
X336730D01*
Y457024D01*
D02*
G37*
G36*
X335442Y456166D02*
X335135D01*
Y457086D01*
X335442D01*
Y456166D01*
D02*
G37*
G36*
X334828Y457086D02*
X335012D01*
Y456840D01*
X334828D01*
Y456166D01*
X334522D01*
Y456840D01*
X334399D01*
Y456902D01*
X334338D01*
Y457024D01*
X334399D01*
Y457086D01*
X334522D01*
Y457331D01*
X334828D01*
Y457086D01*
D02*
G37*
G36*
X334092Y457024D02*
X334215D01*
Y456902D01*
X334276D01*
Y456288D01*
X334215D01*
Y456227D01*
X334154D01*
Y456166D01*
X333111D01*
Y456227D01*
X333050D01*
Y456595D01*
X333111D01*
Y456656D01*
X333233D01*
Y456717D01*
X333970D01*
Y456840D01*
X333050D01*
Y457086D01*
X334092D01*
Y457024D01*
D02*
G37*
G36*
X332866D02*
Y456840D01*
X332068D01*
Y456411D01*
X332866D01*
Y456166D01*
X331884D01*
Y456227D01*
X331823D01*
Y456288D01*
X331761D01*
Y456963D01*
X331823D01*
Y457024D01*
X331945D01*
Y457086D01*
X332866D01*
Y457024D01*
D02*
G37*
G36*
X331516D02*
X331577D01*
Y456166D01*
X331209D01*
Y456288D01*
Y456350D01*
Y457024D01*
X331271D01*
Y457086D01*
X331516D01*
Y457024D01*
D02*
G37*
G36*
X330841D02*
X330964D01*
Y456963D01*
X331025D01*
Y456902D01*
X331087D01*
Y456533D01*
Y456472D01*
Y456166D01*
X330719D01*
Y456227D01*
X330780D01*
Y456779D01*
X330719D01*
Y456840D01*
X330105D01*
Y456779D01*
X330044D01*
Y456227D01*
X330105D01*
Y456166D01*
X329737D01*
Y457086D01*
X330841D01*
Y457024D01*
D02*
G37*
G36*
X327897D02*
X328020D01*
Y456963D01*
X328081D01*
Y456902D01*
X328142D01*
Y456166D01*
X327774D01*
Y456227D01*
X327836D01*
Y456779D01*
X327774D01*
Y456840D01*
X327406D01*
Y456166D01*
X327099D01*
Y456840D01*
X326731D01*
Y456166D01*
X326363D01*
Y456227D01*
X326425D01*
Y457086D01*
X327897D01*
Y457024D01*
D02*
G37*
G36*
X325995D02*
X326118D01*
Y456963D01*
X326179D01*
Y456227D01*
X326241D01*
Y456166D01*
X325873D01*
Y456840D01*
X325505D01*
Y456779D01*
Y456166D01*
X325198D01*
Y456840D01*
X324769D01*
Y456166D01*
X324462D01*
Y457086D01*
X325995D01*
Y457024D01*
D02*
G37*
G36*
X324094D02*
X324217D01*
Y456963D01*
X324278D01*
Y456840D01*
X324339D01*
Y456411D01*
X324278D01*
Y456227D01*
X324155D01*
Y456166D01*
X323112D01*
Y456227D01*
X323051D01*
Y456350D01*
X322990D01*
Y456902D01*
X323051D01*
Y456963D01*
X323112D01*
Y457024D01*
X323235D01*
Y457086D01*
X324094D01*
Y457024D01*
D02*
G37*
G36*
X322806Y456840D02*
X322008D01*
Y456411D01*
X322806D01*
Y456350D01*
X322867D01*
Y456166D01*
X321824D01*
Y456227D01*
X321763D01*
Y456288D01*
X321702D01*
Y456902D01*
X321763D01*
Y457024D01*
X321886D01*
Y457086D01*
X322806D01*
Y456840D01*
D02*
G37*
G36*
X321395Y457024D02*
X321517D01*
Y456595D01*
X321456D01*
Y456533D01*
X320597D01*
Y456411D01*
X321517D01*
Y456166D01*
X320413D01*
Y456227D01*
X320352D01*
Y456350D01*
X320291D01*
Y456902D01*
X320352D01*
Y457024D01*
X320475D01*
Y457086D01*
X321395D01*
Y457024D01*
D02*
G37*
G36*
X320107Y456166D02*
X319800D01*
Y456595D01*
Y456656D01*
Y457392D01*
X320107D01*
Y456166D01*
D02*
G37*
G36*
X319493Y457024D02*
X319555D01*
Y456963D01*
X319616D01*
Y456595D01*
X319493D01*
Y456533D01*
X318696D01*
Y456411D01*
X319555D01*
Y456350D01*
X319616D01*
Y456166D01*
X318512D01*
Y456227D01*
X318450D01*
Y456288D01*
X318389D01*
Y456350D01*
Y456963D01*
X318450D01*
Y457024D01*
X318573D01*
Y457086D01*
X319493D01*
Y457024D01*
D02*
G37*
G36*
X315506Y456288D02*
X315445D01*
Y456227D01*
X315384D01*
Y456166D01*
X314341D01*
Y456227D01*
X314279D01*
Y456288D01*
X314218D01*
Y456902D01*
X314279D01*
Y457024D01*
X314402D01*
Y457086D01*
X315199D01*
Y457392D01*
X315506D01*
Y456288D01*
D02*
G37*
G36*
X313789Y457024D02*
X313911D01*
Y456963D01*
X313973D01*
Y456902D01*
X314034D01*
Y456166D01*
X313727D01*
Y456779D01*
X313666D01*
Y456840D01*
X313053D01*
Y456166D01*
X312684D01*
Y457024D01*
X312746D01*
Y457086D01*
X313789D01*
Y457024D01*
D02*
G37*
G36*
X312378D02*
X312501D01*
Y456902D01*
X312562D01*
Y456288D01*
X312501D01*
Y456227D01*
X312439D01*
Y456166D01*
X311396D01*
Y456227D01*
X311335D01*
Y456533D01*
Y456595D01*
X311396D01*
Y456656D01*
X311519D01*
Y456717D01*
X312255D01*
Y456779D01*
X312194D01*
Y456840D01*
X311335D01*
Y457086D01*
X312378D01*
Y457024D01*
D02*
G37*
G36*
X310354Y456840D02*
X309556D01*
Y456779D01*
X309495D01*
Y456411D01*
X310292D01*
Y456350D01*
X310354D01*
Y456166D01*
X309311D01*
Y456227D01*
X309249D01*
Y456350D01*
X309188D01*
Y456840D01*
X309249D01*
Y456963D01*
X309311D01*
Y457024D01*
X309434D01*
Y457086D01*
X310354D01*
Y456840D01*
D02*
G37*
G36*
X309004Y456166D02*
X308697D01*
Y457086D01*
X309004D01*
Y456166D01*
D02*
G37*
G36*
X308329Y457024D02*
X308391D01*
Y456963D01*
X308452D01*
Y456902D01*
X308513D01*
Y456166D01*
X308207D01*
Y456840D01*
X307532D01*
Y456166D01*
X307225D01*
Y457086D01*
X308329D01*
Y457024D01*
D02*
G37*
G36*
X306857D02*
X306919D01*
Y456963D01*
X306980D01*
Y456902D01*
X307041D01*
Y456288D01*
X306980D01*
Y456227D01*
X306919D01*
Y456166D01*
X305876D01*
Y456227D01*
X305814D01*
Y456288D01*
X305753D01*
Y456533D01*
Y456595D01*
Y456963D01*
X305814D01*
Y457024D01*
X305937D01*
Y457086D01*
X306857D01*
Y457024D01*
D02*
G37*
G36*
X305630Y456840D02*
X305140D01*
Y456779D01*
X305078D01*
Y456472D01*
Y456411D01*
Y456166D01*
X304772D01*
Y456902D01*
X304833D01*
Y456963D01*
X304894D01*
Y457024D01*
X305017D01*
Y457086D01*
X305630D01*
Y456840D01*
D02*
G37*
G36*
X304465Y457086D02*
X304649D01*
Y456840D01*
X304465D01*
Y456166D01*
X304158D01*
Y456227D01*
X304220D01*
Y456779D01*
X304158D01*
Y456840D01*
X304036D01*
Y457086D01*
X304158D01*
Y457147D01*
X304220D01*
Y457270D01*
X304158D01*
Y457331D01*
X304465D01*
Y457086D01*
D02*
G37*
G36*
X303913Y456840D02*
X303116D01*
Y456411D01*
X303913D01*
Y456166D01*
X302931D01*
Y456227D01*
X302870D01*
Y456288D01*
X302809D01*
Y456902D01*
Y456963D01*
X302870D01*
Y457024D01*
X302993D01*
Y457086D01*
X303913D01*
Y456840D01*
D02*
G37*
G36*
X302502Y457024D02*
X302563D01*
Y456963D01*
X302625D01*
Y456656D01*
X302563D01*
Y456595D01*
X302502D01*
Y456533D01*
X301705D01*
Y456411D01*
X302563D01*
Y456350D01*
X302625D01*
Y456166D01*
X301521D01*
Y456227D01*
X301459D01*
Y456288D01*
X301398D01*
Y456779D01*
Y456840D01*
Y456963D01*
X301459D01*
Y457024D01*
X301582D01*
Y457086D01*
X302502D01*
Y457024D01*
D02*
G37*
G36*
X301214Y456595D02*
Y456533D01*
Y456166D01*
X300907D01*
Y457392D01*
X301214D01*
Y456595D01*
D02*
G37*
G36*
X353230Y457024D02*
X353353D01*
Y456963D01*
X353414D01*
Y455981D01*
X353353D01*
Y455920D01*
X353292D01*
Y455859D01*
X352188D01*
Y456104D01*
X353108D01*
Y456288D01*
X352249D01*
Y456350D01*
X352188D01*
Y456411D01*
X352126D01*
Y456595D01*
Y456656D01*
Y456963D01*
X352188D01*
Y457024D01*
X352310D01*
Y457086D01*
X353230D01*
Y457024D01*
D02*
G37*
G36*
X344029D02*
X344152D01*
Y456963D01*
X344213D01*
Y455981D01*
X344152D01*
Y455920D01*
X344091D01*
Y455859D01*
X342987D01*
Y456104D01*
X343907D01*
Y456288D01*
X343048D01*
Y456350D01*
X342987D01*
Y456411D01*
X342925D01*
Y456963D01*
X342987D01*
Y457024D01*
X343109D01*
Y457086D01*
X344029D01*
Y457024D01*
D02*
G37*
%LPC*%
G36*
X348691Y456840D02*
X348139D01*
Y456779D01*
X348078D01*
Y456717D01*
X348691D01*
Y456840D01*
D02*
G37*
G36*
X347280D02*
X346728D01*
Y456779D01*
X346667D01*
Y456717D01*
X347280D01*
Y456840D01*
D02*
G37*
G36*
X336607D02*
X335932D01*
Y456411D01*
X336607D01*
Y456840D01*
D02*
G37*
G36*
X333970Y456533D02*
X333356D01*
Y456411D01*
X333970D01*
Y456533D01*
D02*
G37*
G36*
X323971Y456840D02*
X323358D01*
Y456779D01*
X323296D01*
Y456411D01*
X323971D01*
Y456779D01*
Y456840D01*
D02*
G37*
G36*
X321211D02*
X320659D01*
Y456779D01*
X320597D01*
Y456717D01*
X321211D01*
Y456840D01*
D02*
G37*
G36*
X319309D02*
X318696D01*
Y456717D01*
X319309D01*
Y456840D01*
D02*
G37*
G36*
X315199D02*
X314525D01*
Y456779D01*
Y456717D01*
Y456411D01*
X315199D01*
Y456840D01*
D02*
G37*
G36*
X312255Y456533D02*
X311642D01*
Y456411D01*
X312255D01*
Y456533D01*
D02*
G37*
G36*
X306734Y456840D02*
X306060D01*
Y456411D01*
X306734D01*
Y456840D01*
D02*
G37*
G36*
X302318D02*
X301705D01*
Y456717D01*
X302318D01*
Y456840D01*
D02*
G37*
G36*
X353108D02*
X352433D01*
Y456533D01*
X353108D01*
Y456840D01*
D02*
G37*
G36*
X343907D02*
X343232D01*
Y456533D01*
X343907D01*
Y456840D01*
D02*
G37*
%LPD*%
D10*
X223256Y462606D02*
G03*
X223256Y462606I-492J0D01*
G01*
X294874Y392500D02*
G03*
X294874Y392500I-492J0D01*
G01*
X180992Y328520D02*
G03*
X180992Y328520I-492J0D01*
G01*
D11*
X294421Y405000D02*
G03*
X294421Y410000I0J2500D01*
G01*
X226406Y363500D02*
G03*
X226406Y363500I-9843J0D01*
G01*
X170343Y398500D02*
G03*
X170343Y398500I-9843J0D01*
G01*
X133843Y396563D02*
G03*
X133843Y396563I-9843J0D01*
G01*
X96546Y466948D02*
G03*
X96546Y466948I-394J0D01*
G01*
X230441Y478354D02*
X266740D01*
Y470874D02*
Y478354D01*
Y470874D02*
X271858D01*
Y444890D02*
Y470874D01*
X225323Y444890D02*
X271858D01*
X225323D02*
Y470874D01*
X230441D01*
Y478354D01*
X304276Y329598D02*
X313724D01*
X304276D02*
Y354402D01*
X313724Y329598D02*
Y354402D01*
X304276D02*
X313724D01*
X294421Y397067D02*
X334579D01*
X294421Y417933D02*
X334579D01*
X294421Y397067D02*
Y405000D01*
Y410000D02*
Y417933D01*
X334579Y397067D02*
Y417933D01*
X251276Y349902D02*
X260724D01*
Y325098D02*
Y349902D01*
X251276Y325098D02*
Y349902D01*
Y325098D02*
X260724D01*
X254276Y397098D02*
X263724D01*
X254276D02*
Y421902D01*
X263724Y397098D02*
Y421902D01*
X254276D02*
X263724D01*
X155264Y331079D02*
X190736D01*
Y367496D01*
X155264D02*
X190736D01*
X155264Y331079D02*
Y367496D01*
X226764Y404658D02*
Y410760D01*
Y418240D02*
Y424342D01*
X197236D02*
X226764D01*
X197236Y404658D02*
Y410760D01*
Y418240D02*
Y424342D01*
Y404658D02*
X226764D01*
X119276Y340098D02*
X128724D01*
X119276D02*
Y364902D01*
X128724Y340098D02*
Y364902D01*
X119276D02*
X128724D01*
D12*
X299539Y401004D02*
G03*
X299539Y401004I-1181J0D01*
G01*
D13*
X85551Y463327D02*
X99331D01*
Y475138D01*
X130827D01*
X144606D02*
X154449D01*
Y441673D02*
Y475138D01*
X99331Y429862D02*
X145591D01*
X99331D02*
Y439705D01*
X85551D02*
X99331D01*
X85551D02*
Y463327D01*
D14*
X181357Y481998D02*
Y476000D01*
X181643Y481998D02*
Y476000D01*
X180500Y481998D02*
X183928D01*
X184785Y481713D01*
X185071Y481427D01*
X185356Y480856D01*
Y479999D01*
X185071Y479427D01*
X184785Y479142D01*
X183928Y478856D01*
X181643D01*
X183928Y481998D02*
X184499Y481713D01*
X184785Y481427D01*
X185071Y480856D01*
Y479999D01*
X184785Y479427D01*
X184499Y479142D01*
X183928Y478856D01*
X180500Y476000D02*
X182500D01*
X187013Y479999D02*
Y476000D01*
X187299Y479999D02*
Y476000D01*
Y478285D02*
X187584Y479142D01*
X188155Y479713D01*
X188727Y479999D01*
X189584D01*
X189869Y479713D01*
Y479427D01*
X189584Y479142D01*
X189298Y479427D01*
X189584Y479713D01*
X186156Y479999D02*
X187299D01*
X186156Y476000D02*
X188155D01*
X191069Y478285D02*
X194497D01*
Y478856D01*
X194211Y479427D01*
X193926Y479713D01*
X193354Y479999D01*
X192497D01*
X191640Y479713D01*
X191069Y479142D01*
X190784Y478285D01*
Y477713D01*
X191069Y476857D01*
X191640Y476285D01*
X192497Y476000D01*
X193069D01*
X193926Y476285D01*
X194497Y476857D01*
X194211Y478285D02*
Y479142D01*
X193926Y479713D01*
X192497Y479999D02*
X191926Y479713D01*
X191355Y479142D01*
X191069Y478285D01*
Y477713D01*
X191355Y476857D01*
X191926Y476285D01*
X192497Y476000D01*
X203381Y481998D02*
X201381Y476000D01*
X203381Y481998D02*
X205380Y476000D01*
X203381Y481141D02*
X205095Y476000D01*
X201953Y477713D02*
X204523D01*
X200810Y476000D02*
X202524D01*
X204238D02*
X205952D01*
X207580Y479999D02*
Y476000D01*
X207866Y479999D02*
Y476000D01*
Y479142D02*
X208437Y479713D01*
X209294Y479999D01*
X209865D01*
X210722Y479713D01*
X211008Y479142D01*
Y476000D01*
X209865Y479999D02*
X210436Y479713D01*
X210722Y479142D01*
Y476000D01*
X211008Y479142D02*
X211579Y479713D01*
X212436Y479999D01*
X213007D01*
X213864Y479713D01*
X214150Y479142D01*
Y476000D01*
X213007Y479999D02*
X213579Y479713D01*
X213864Y479142D01*
Y476000D01*
X206723Y479999D02*
X207866D01*
X206723Y476000D02*
X208722D01*
X209865D02*
X211865D01*
X213007D02*
X215007D01*
X216321Y479999D02*
Y474000D01*
X216606Y479999D02*
Y474000D01*
Y479142D02*
X217178Y479713D01*
X217749Y479999D01*
X218320D01*
X219177Y479713D01*
X219749Y479142D01*
X220034Y478285D01*
Y477713D01*
X219749Y476857D01*
X219177Y476285D01*
X218320Y476000D01*
X217749D01*
X217178Y476285D01*
X216606Y476857D01*
X218320Y479999D02*
X218892Y479713D01*
X219463Y479142D01*
X219749Y478285D01*
Y477713D01*
X219463Y476857D01*
X218892Y476285D01*
X218320Y476000D01*
X215464Y479999D02*
X216606D01*
X215464Y474000D02*
X217463D01*
X284352Y389350D02*
X289350D01*
X290350Y390350D01*
Y392349D01*
X289350Y393349D01*
X284352D01*
X290350Y395348D02*
Y397347D01*
Y396348D01*
X284352D01*
X285352Y395348D01*
X313250Y318150D02*
Y312152D01*
X310251D01*
X309251Y313152D01*
Y315151D01*
X310251Y316151D01*
X313250D01*
X307252Y318150D02*
Y314151D01*
X305253Y312152D01*
X303253Y314151D01*
Y318150D01*
Y315151D01*
X307252D01*
X301254D02*
X297255D01*
X295256Y312152D02*
Y316151D01*
X293256Y318150D01*
X291257Y316151D01*
Y312152D01*
X289258Y318150D02*
Y312152D01*
X286259D01*
X285259Y313152D01*
Y315151D01*
X286259Y316151D01*
X289258D01*
X287258D02*
X285259Y318150D01*
X283260D02*
X281260D01*
X282260D01*
Y312152D01*
X283260Y313152D01*
X130496Y325999D02*
Y320001D01*
X127496D01*
X126497Y321001D01*
Y323000D01*
X127496Y324000D01*
X130496D01*
X124497Y325999D02*
Y322000D01*
X122498Y320001D01*
X120499Y322000D01*
Y325999D01*
Y323000D01*
X124497D01*
X118499D02*
X114501D01*
X112501Y325999D02*
Y320001D01*
X109502D01*
X108503Y321001D01*
Y323000D01*
X109502Y324000D01*
X112501D01*
X110502D02*
X108503Y325999D01*
X106503Y321001D02*
X105503Y320001D01*
X103504D01*
X102505Y321001D01*
Y322000D01*
X103504Y323000D01*
X104504D01*
X103504D01*
X102505Y324000D01*
Y324999D01*
X103504Y325999D01*
X105503D01*
X106503Y324999D01*
X251750Y361350D02*
Y367348D01*
X254749D01*
X255749Y366348D01*
Y364349D01*
X254749Y363349D01*
X251750D01*
X257748Y361350D02*
Y365349D01*
X259747Y367348D01*
X261747Y365349D01*
Y361350D01*
Y364349D01*
X257748D01*
X263746D02*
X267745D01*
X269744Y361350D02*
Y367348D01*
X272743D01*
X273743Y366348D01*
Y364349D01*
X272743Y363349D01*
X269744D01*
X271743D02*
X273743Y361350D01*
X279741D02*
X275742D01*
X279741Y365349D01*
Y366348D01*
X278741Y367348D01*
X276742D01*
X275742Y366348D01*
X263250Y385650D02*
Y379652D01*
X260251D01*
X259251Y380652D01*
Y382651D01*
X260251Y383651D01*
X263250D01*
X257252Y385650D02*
Y381651D01*
X255253Y379652D01*
X253253Y381651D01*
Y385650D01*
Y382651D01*
X257252D01*
X251254D02*
X247255D01*
X245256Y385650D02*
Y379652D01*
X242257D01*
X241257Y380652D01*
Y382651D01*
X242257Y383651D01*
X245256D01*
X243256D02*
X241257Y385650D01*
X239258D02*
X237258D01*
X238258D01*
Y379652D01*
X239258Y380652D01*
X231513Y350150D02*
Y344152D01*
X228514D01*
X227514Y345152D01*
Y347151D01*
X228514Y348151D01*
X231513D01*
X225515Y350150D02*
Y346151D01*
X223516Y344152D01*
X221516Y346151D01*
Y350150D01*
Y347151D01*
X225515D01*
X219517D02*
X215518D01*
X209520Y345152D02*
X210520Y344152D01*
X212519D01*
X213519Y345152D01*
Y349150D01*
X212519Y350150D01*
X210520D01*
X209520Y349150D01*
X204522Y350150D02*
Y344152D01*
X207521Y347151D01*
X203522D01*
X173850Y413450D02*
X179848D01*
Y410451D01*
X178848Y409451D01*
X176849D01*
X175849Y410451D01*
Y413450D01*
X173850Y407452D02*
X177849D01*
X179848Y405453D01*
X177849Y403453D01*
X173850D01*
X176849D01*
Y407452D01*
Y401454D02*
Y397455D01*
X178848Y391457D02*
X179848Y392457D01*
Y394456D01*
X178848Y395456D01*
X174850D01*
X173850Y394456D01*
Y392457D01*
X174850Y391457D01*
X178848Y389458D02*
X179848Y388458D01*
Y386459D01*
X178848Y385459D01*
X177849D01*
X176849Y386459D01*
Y387458D01*
Y386459D01*
X175849Y385459D01*
X174850D01*
X173850Y386459D01*
Y388458D01*
X174850Y389458D01*
X110650Y381613D02*
X104652D01*
Y384612D01*
X105652Y385612D01*
X107651D01*
X108651Y384612D01*
Y381613D01*
X110650Y387611D02*
X106651D01*
X104652Y389610D01*
X106651Y391610D01*
X110650D01*
X107651D01*
Y387611D01*
Y393609D02*
Y397608D01*
X105652Y403606D02*
X104652Y402606D01*
Y400607D01*
X105652Y399607D01*
X109650D01*
X110650Y400607D01*
Y402606D01*
X109650Y403606D01*
X110650Y409604D02*
Y405605D01*
X106651Y409604D01*
X105652D01*
X104652Y408604D01*
Y406605D01*
X105652Y405605D01*
X190850Y404850D02*
X184852D01*
Y407849D01*
X185852Y408849D01*
X187851D01*
X188851Y407849D01*
Y404850D01*
X190850Y410848D02*
X186851D01*
X184852Y412847D01*
X186851Y414847D01*
X190850D01*
X187851D01*
Y410848D01*
Y416846D02*
Y420845D01*
X185852Y426843D02*
X184852Y425843D01*
Y423844D01*
X185852Y422844D01*
X189850D01*
X190850Y423844D01*
Y425843D01*
X189850Y426843D01*
X190850Y428842D02*
Y430842D01*
Y429842D01*
X184852D01*
X185852Y428842D01*
X190250Y324550D02*
Y318552D01*
X187251D01*
X186251Y319552D01*
Y321551D01*
X187251Y322551D01*
X190250D01*
X180253Y324550D02*
X184252D01*
X180253Y320551D01*
Y319552D01*
X181253Y318552D01*
X183252D01*
X184252Y319552D01*
X275341Y477829D02*
X281339D01*
Y474830D01*
X280339Y473830D01*
X278340D01*
X277340Y474830D01*
Y477829D01*
X275341Y471831D02*
Y469831D01*
Y470831D01*
X281339D01*
X280339Y471831D01*
X164548Y471251D02*
Y473251D01*
Y472251D01*
X159550D01*
X158550Y473251D01*
Y474250D01*
X159550Y475250D01*
X158550Y469252D02*
Y467253D01*
Y468252D01*
X164548D01*
X163548Y469252D01*
D15*
X231949Y363450D02*
X228013D01*
X229981Y361482D02*
Y365418D01*
X160550Y413886D02*
Y409950D01*
X162518Y411918D02*
X158582D01*
X123950Y381177D02*
Y385113D01*
X121982Y383145D02*
X125918D01*
M02*
