G04*
G04 #@! TF.GenerationSoftware,Altium Limited,Altium Designer,25.2.1 (25)*
G04*
G04 Layer_Physical_Order=1*
G04 Layer_Color=255*
%FSLAX25Y25*%
%MOIN*%
G70*
G04*
G04 #@! TF.SameCoordinates,F99C0EAD-8B59-483C-989D-22E72BE8A830*
G04*
G04*
G04 #@! TF.FilePolarity,Positive*
G04*
G01*
G75*
%ADD13C,0.01000*%
%ADD25C,0.02000*%
%ADD26C,0.12598*%
%ADD27C,0.06693*%
%ADD28R,0.06693X0.06693*%
%ADD29R,0.05906X0.05906*%
%ADD30C,0.05906*%
%ADD31C,0.05315*%
%ADD32R,0.05315X0.05315*%
%ADD33C,0.05200*%
%ADD34R,0.05200X0.05200*%
%ADD35R,0.06102X0.06102*%
%ADD36C,0.06102*%
G36*
X159000Y285000D02*
X156500Y282500D01*
X155000Y284000D01*
X144500D01*
Y283665D01*
X143983Y283254D01*
X143008Y283689D01*
X143500Y390500D01*
X145500Y392500D01*
X159000D01*
Y285000D01*
D02*
G37*
G36*
X211000Y390500D02*
X225500D01*
Y285500D01*
X225000Y285000D01*
X209500D01*
X209006Y391186D01*
X209929Y391571D01*
X211000Y390500D01*
D02*
G37*
G36*
X359951Y381165D02*
X359907Y381000D01*
X363500D01*
Y380500D01*
X364000D01*
Y376907D01*
X364890Y377145D01*
X365710Y377619D01*
X366381Y378290D01*
X366855Y379110D01*
X367000Y379653D01*
X368000Y379521D01*
Y371479D01*
X367000Y371347D01*
X366855Y371890D01*
X366381Y372710D01*
X365710Y373381D01*
X364890Y373855D01*
X364000Y374093D01*
Y370500D01*
Y366907D01*
X364890Y367145D01*
X365710Y367619D01*
X366381Y368290D01*
X366855Y369110D01*
X367000Y369653D01*
X368000Y369521D01*
Y361479D01*
X367000Y361347D01*
X366855Y361890D01*
X366381Y362710D01*
X365710Y363381D01*
X364890Y363855D01*
X364000Y364093D01*
Y360500D01*
Y356907D01*
X364890Y357145D01*
X365710Y357619D01*
X366381Y358290D01*
X366855Y359110D01*
X367000Y359653D01*
X368000Y359521D01*
Y351479D01*
X367000Y351347D01*
X366855Y351890D01*
X366381Y352710D01*
X365710Y353381D01*
X364890Y353855D01*
X364000Y354093D01*
Y350500D01*
Y346907D01*
X364890Y347145D01*
X365710Y347619D01*
X366381Y348290D01*
X366855Y349110D01*
X367000Y349653D01*
X368000Y349521D01*
Y341479D01*
X367000Y341347D01*
X366855Y341890D01*
X366381Y342710D01*
X365710Y343381D01*
X364890Y343855D01*
X364000Y344093D01*
Y340500D01*
Y336907D01*
X364890Y337145D01*
X365710Y337619D01*
X366381Y338290D01*
X366855Y339110D01*
X367000Y339653D01*
X368000Y339521D01*
Y331479D01*
X367000Y331347D01*
X366855Y331890D01*
X366381Y332710D01*
X365710Y333381D01*
X364890Y333855D01*
X364000Y334093D01*
Y330500D01*
Y326907D01*
X364890Y327145D01*
X365710Y327619D01*
X366381Y328290D01*
X366855Y329110D01*
X367000Y329653D01*
X368000Y329521D01*
Y321479D01*
X367000Y321347D01*
X366855Y321890D01*
X366381Y322710D01*
X365710Y323381D01*
X364890Y323855D01*
X364000Y324093D01*
Y320500D01*
Y316907D01*
X364890Y317145D01*
X365710Y317619D01*
X366381Y318290D01*
X366855Y319110D01*
X367000Y319653D01*
X368000Y319521D01*
Y311479D01*
X367000Y311347D01*
X366855Y311890D01*
X366381Y312710D01*
X365710Y313381D01*
X364890Y313855D01*
X364000Y314093D01*
Y310500D01*
Y306907D01*
X364890Y307145D01*
X365710Y307619D01*
X366381Y308290D01*
X366855Y309110D01*
X367000Y309653D01*
X368000Y309521D01*
Y301479D01*
X367000Y301347D01*
X366855Y301890D01*
X366381Y302710D01*
X365710Y303381D01*
X364890Y303855D01*
X364000Y304093D01*
Y300500D01*
Y296907D01*
X364890Y297145D01*
X365710Y297619D01*
X366381Y298290D01*
X366855Y299110D01*
X367000Y299653D01*
X368000Y299521D01*
Y294341D01*
X367100Y294100D01*
Y294100D01*
X364000D01*
Y290500D01*
Y286900D01*
X367100D01*
Y288461D01*
X369539D01*
X371000Y287000D01*
X369500Y285500D01*
X356500D01*
X354171Y382845D01*
X354870Y383561D01*
X357555D01*
X359951Y381165D01*
D02*
G37*
G36*
X300500Y387500D02*
X300000Y387000D01*
Y285500D01*
X284209D01*
X283503Y286209D01*
X284000Y390000D01*
X298000D01*
X300500Y387500D01*
D02*
G37*
G36*
X457000Y390000D02*
X456500Y389500D01*
Y286690D01*
X455576Y286308D01*
X452600Y289284D01*
Y289500D01*
X449500D01*
Y286400D01*
X449716D01*
X452692Y283424D01*
X452310Y282500D01*
X442502D01*
X441506Y283295D01*
X441527Y287961D01*
X445400D01*
Y286400D01*
X448500D01*
Y290000D01*
Y293600D01*
X445400D01*
Y292039D01*
X442255D01*
X441549Y292748D01*
X442000Y391000D01*
X450508D01*
Y385217D01*
X448891Y383600D01*
X448526D01*
X447611Y383355D01*
X446790Y382881D01*
X446119Y382210D01*
X445645Y381390D01*
X445407Y380500D01*
X452593D01*
X452374Y381316D01*
X453989Y382930D01*
X453989Y382930D01*
X454431Y383592D01*
X454586Y384372D01*
Y391000D01*
X456586D01*
X457000Y390000D01*
D02*
G37*
%LPC*%
G36*
X153500Y383593D02*
Y380500D01*
X156593D01*
X156355Y381390D01*
X155881Y382210D01*
X155210Y382881D01*
X154390Y383355D01*
X153500Y383593D01*
D02*
G37*
G36*
X152500D02*
X151610Y383355D01*
X150790Y382881D01*
X150119Y382210D01*
X149645Y381390D01*
X149407Y380500D01*
X152500D01*
Y383593D01*
D02*
G37*
G36*
X156593Y379500D02*
X153500D01*
Y376407D01*
X154390Y376645D01*
X155210Y377119D01*
X155881Y377790D01*
X156355Y378610D01*
X156593Y379500D01*
D02*
G37*
G36*
X152500D02*
X149407D01*
X149645Y378610D01*
X150119Y377790D01*
X150790Y377119D01*
X151610Y376645D01*
X152500Y376407D01*
Y379500D01*
D02*
G37*
G36*
X153500Y373593D02*
Y370500D01*
X156593D01*
X156355Y371390D01*
X155881Y372210D01*
X155210Y372881D01*
X154390Y373355D01*
X153500Y373593D01*
D02*
G37*
G36*
X152500D02*
X151610Y373355D01*
X150790Y372881D01*
X150119Y372210D01*
X149645Y371390D01*
X149407Y370500D01*
X152500D01*
Y373593D01*
D02*
G37*
G36*
X156593Y369500D02*
X153500D01*
Y366407D01*
X154390Y366645D01*
X155210Y367119D01*
X155881Y367790D01*
X156355Y368610D01*
X156593Y369500D01*
D02*
G37*
G36*
X152500D02*
X149407D01*
X149645Y368610D01*
X150119Y367790D01*
X150790Y367119D01*
X151610Y366645D01*
X152500Y366407D01*
Y369500D01*
D02*
G37*
G36*
X153500Y363593D02*
Y360500D01*
X156593D01*
X156355Y361390D01*
X155881Y362210D01*
X155210Y362881D01*
X154390Y363355D01*
X153500Y363593D01*
D02*
G37*
G36*
X152500D02*
X151610Y363355D01*
X150790Y362881D01*
X150119Y362210D01*
X149645Y361390D01*
X149407Y360500D01*
X152500D01*
Y363593D01*
D02*
G37*
G36*
X156593Y359500D02*
X153500D01*
Y356407D01*
X154390Y356645D01*
X155210Y357119D01*
X155881Y357790D01*
X156355Y358610D01*
X156593Y359500D01*
D02*
G37*
G36*
X152500D02*
X149407D01*
X149645Y358610D01*
X150119Y357790D01*
X150790Y357119D01*
X151610Y356645D01*
X152500Y356407D01*
Y359500D01*
D02*
G37*
G36*
X153500Y353593D02*
Y350500D01*
X156593D01*
X156355Y351390D01*
X155881Y352210D01*
X155210Y352881D01*
X154390Y353355D01*
X153500Y353593D01*
D02*
G37*
G36*
X152500D02*
X151610Y353355D01*
X150790Y352881D01*
X150119Y352210D01*
X149645Y351390D01*
X149407Y350500D01*
X152500D01*
Y353593D01*
D02*
G37*
G36*
X156593Y349500D02*
X153500D01*
Y346407D01*
X154390Y346645D01*
X155210Y347119D01*
X155881Y347790D01*
X156355Y348610D01*
X156593Y349500D01*
D02*
G37*
G36*
X152500D02*
X149407D01*
X149645Y348610D01*
X150119Y347790D01*
X150790Y347119D01*
X151610Y346645D01*
X152500Y346407D01*
Y349500D01*
D02*
G37*
G36*
X153500Y343593D02*
Y340500D01*
X156593D01*
X156355Y341390D01*
X155881Y342210D01*
X155210Y342881D01*
X154390Y343355D01*
X153500Y343593D01*
D02*
G37*
G36*
X152500D02*
X151610Y343355D01*
X150790Y342881D01*
X150119Y342210D01*
X149645Y341390D01*
X149407Y340500D01*
X152500D01*
Y343593D01*
D02*
G37*
G36*
X156593Y339500D02*
X153500D01*
Y336407D01*
X154390Y336645D01*
X155210Y337119D01*
X155881Y337790D01*
X156355Y338610D01*
X156593Y339500D01*
D02*
G37*
G36*
X152500D02*
X149407D01*
X149645Y338610D01*
X150119Y337790D01*
X150790Y337119D01*
X151610Y336645D01*
X152500Y336407D01*
Y339500D01*
D02*
G37*
G36*
X153500Y333593D02*
Y330500D01*
X156593D01*
X156355Y331390D01*
X155881Y332210D01*
X155210Y332881D01*
X154390Y333355D01*
X153500Y333593D01*
D02*
G37*
G36*
X152500D02*
X151610Y333355D01*
X150790Y332881D01*
X150119Y332210D01*
X149645Y331390D01*
X149407Y330500D01*
X152500D01*
Y333593D01*
D02*
G37*
G36*
X156593Y329500D02*
X153500D01*
Y326407D01*
X154390Y326645D01*
X155210Y327119D01*
X155881Y327790D01*
X156355Y328610D01*
X156593Y329500D01*
D02*
G37*
G36*
X152500D02*
X149407D01*
X149645Y328610D01*
X150119Y327790D01*
X150790Y327119D01*
X151610Y326645D01*
X152500Y326407D01*
Y329500D01*
D02*
G37*
G36*
X153500Y323593D02*
Y320500D01*
X156593D01*
X156355Y321390D01*
X155881Y322210D01*
X155210Y322881D01*
X154390Y323355D01*
X153500Y323593D01*
D02*
G37*
G36*
X152500D02*
X151610Y323355D01*
X150790Y322881D01*
X150119Y322210D01*
X149645Y321390D01*
X149407Y320500D01*
X152500D01*
Y323593D01*
D02*
G37*
G36*
X156593Y319500D02*
X153500D01*
Y316407D01*
X154390Y316645D01*
X155210Y317119D01*
X155881Y317790D01*
X156355Y318610D01*
X156593Y319500D01*
D02*
G37*
G36*
X152500D02*
X149407D01*
X149645Y318610D01*
X150119Y317790D01*
X150790Y317119D01*
X151610Y316645D01*
X152500Y316407D01*
Y319500D01*
D02*
G37*
G36*
X153500Y313593D02*
Y310500D01*
X156593D01*
X156355Y311390D01*
X155881Y312210D01*
X155210Y312881D01*
X154390Y313355D01*
X153500Y313593D01*
D02*
G37*
G36*
X152500D02*
X151610Y313355D01*
X150790Y312881D01*
X150119Y312210D01*
X149645Y311390D01*
X149407Y310500D01*
X152500D01*
Y313593D01*
D02*
G37*
G36*
X156593Y309500D02*
X153500D01*
Y306407D01*
X154390Y306645D01*
X155210Y307119D01*
X155881Y307790D01*
X156355Y308610D01*
X156593Y309500D01*
D02*
G37*
G36*
X152500D02*
X149407D01*
X149645Y308610D01*
X150119Y307790D01*
X150790Y307119D01*
X151610Y306645D01*
X152500Y306407D01*
Y309500D01*
D02*
G37*
G36*
X153500Y303593D02*
Y300500D01*
X156593D01*
X156355Y301390D01*
X155881Y302210D01*
X155210Y302881D01*
X154390Y303355D01*
X153500Y303593D01*
D02*
G37*
G36*
X152500D02*
X151610Y303355D01*
X150790Y302881D01*
X150119Y302210D01*
X149645Y301390D01*
X149407Y300500D01*
X152500D01*
Y303593D01*
D02*
G37*
G36*
X156593Y299500D02*
X153500D01*
Y296407D01*
X154390Y296645D01*
X155210Y297119D01*
X155881Y297790D01*
X156355Y298610D01*
X156593Y299500D01*
D02*
G37*
G36*
X152500D02*
X149407D01*
X149645Y298610D01*
X150119Y297790D01*
X150790Y297119D01*
X151610Y296645D01*
X152500Y296407D01*
Y299500D01*
D02*
G37*
G36*
X156600Y293600D02*
X153500D01*
Y290500D01*
X156600D01*
Y293600D01*
D02*
G37*
G36*
X152500D02*
X149400D01*
Y290500D01*
X152500D01*
Y293600D01*
D02*
G37*
G36*
X156600Y289500D02*
X153500D01*
Y286400D01*
X156600D01*
Y289500D01*
D02*
G37*
G36*
X152500D02*
X149400D01*
Y286400D01*
X152500D01*
Y289500D01*
D02*
G37*
G36*
X219000Y384093D02*
Y381000D01*
X222093D01*
X221855Y381890D01*
X221381Y382710D01*
X220710Y383381D01*
X219890Y383855D01*
X219000Y384093D01*
D02*
G37*
G36*
X218000D02*
X217110Y383855D01*
X216290Y383381D01*
X215619Y382710D01*
X215145Y381890D01*
X214907Y381000D01*
X218000D01*
Y384093D01*
D02*
G37*
G36*
X222093Y380000D02*
X219000D01*
Y376907D01*
X219890Y377145D01*
X220710Y377619D01*
X221381Y378290D01*
X221855Y379110D01*
X222093Y380000D01*
D02*
G37*
G36*
X218000D02*
X214907D01*
X215145Y379110D01*
X215619Y378290D01*
X216290Y377619D01*
X217110Y377145D01*
X218000Y376907D01*
Y380000D01*
D02*
G37*
G36*
X219000Y374093D02*
Y371000D01*
X222093D01*
X221855Y371890D01*
X221381Y372710D01*
X220710Y373381D01*
X219890Y373855D01*
X219000Y374093D01*
D02*
G37*
G36*
X218000D02*
X217110Y373855D01*
X216290Y373381D01*
X215619Y372710D01*
X215145Y371890D01*
X214907Y371000D01*
X218000D01*
Y374093D01*
D02*
G37*
G36*
X222093Y370000D02*
X219000D01*
Y366907D01*
X219890Y367145D01*
X220710Y367619D01*
X221381Y368290D01*
X221855Y369110D01*
X222093Y370000D01*
D02*
G37*
G36*
X218000D02*
X214907D01*
X215145Y369110D01*
X215619Y368290D01*
X216290Y367619D01*
X217110Y367145D01*
X218000Y366907D01*
Y370000D01*
D02*
G37*
G36*
X219000Y364093D02*
Y361000D01*
X222093D01*
X221855Y361890D01*
X221381Y362710D01*
X220710Y363381D01*
X219890Y363855D01*
X219000Y364093D01*
D02*
G37*
G36*
X218000D02*
X217110Y363855D01*
X216290Y363381D01*
X215619Y362710D01*
X215145Y361890D01*
X214907Y361000D01*
X218000D01*
Y364093D01*
D02*
G37*
G36*
X222093Y360000D02*
X219000D01*
Y356907D01*
X219890Y357145D01*
X220710Y357619D01*
X221381Y358290D01*
X221855Y359110D01*
X222093Y360000D01*
D02*
G37*
G36*
X218000D02*
X214907D01*
X215145Y359110D01*
X215619Y358290D01*
X216290Y357619D01*
X217110Y357145D01*
X218000Y356907D01*
Y360000D01*
D02*
G37*
G36*
X219000Y354093D02*
Y351000D01*
X222093D01*
X221855Y351890D01*
X221381Y352710D01*
X220710Y353381D01*
X219890Y353855D01*
X219000Y354093D01*
D02*
G37*
G36*
X218000D02*
X217110Y353855D01*
X216290Y353381D01*
X215619Y352710D01*
X215145Y351890D01*
X214907Y351000D01*
X218000D01*
Y354093D01*
D02*
G37*
G36*
X222093Y350000D02*
X219000D01*
Y346907D01*
X219890Y347145D01*
X220710Y347619D01*
X221381Y348290D01*
X221855Y349110D01*
X222093Y350000D01*
D02*
G37*
G36*
X218000D02*
X214907D01*
X215145Y349110D01*
X215619Y348290D01*
X216290Y347619D01*
X217110Y347145D01*
X218000Y346907D01*
Y350000D01*
D02*
G37*
G36*
X219000Y344093D02*
Y341000D01*
X222093D01*
X221855Y341890D01*
X221381Y342710D01*
X220710Y343381D01*
X219890Y343855D01*
X219000Y344093D01*
D02*
G37*
G36*
X218000D02*
X217110Y343855D01*
X216290Y343381D01*
X215619Y342710D01*
X215145Y341890D01*
X214907Y341000D01*
X218000D01*
Y344093D01*
D02*
G37*
G36*
X222093Y340000D02*
X219000D01*
Y336907D01*
X219890Y337145D01*
X220710Y337619D01*
X221381Y338290D01*
X221855Y339110D01*
X222093Y340000D01*
D02*
G37*
G36*
X218000D02*
X214907D01*
X215145Y339110D01*
X215619Y338290D01*
X216290Y337619D01*
X217110Y337145D01*
X218000Y336907D01*
Y340000D01*
D02*
G37*
G36*
X219000Y334093D02*
Y331000D01*
X222093D01*
X221855Y331890D01*
X221381Y332710D01*
X220710Y333381D01*
X219890Y333855D01*
X219000Y334093D01*
D02*
G37*
G36*
X218000D02*
X217110Y333855D01*
X216290Y333381D01*
X215619Y332710D01*
X215145Y331890D01*
X214907Y331000D01*
X218000D01*
Y334093D01*
D02*
G37*
G36*
X222093Y330000D02*
X219000D01*
Y326907D01*
X219890Y327145D01*
X220710Y327619D01*
X221381Y328290D01*
X221855Y329110D01*
X222093Y330000D01*
D02*
G37*
G36*
X218000D02*
X214907D01*
X215145Y329110D01*
X215619Y328290D01*
X216290Y327619D01*
X217110Y327145D01*
X218000Y326907D01*
Y330000D01*
D02*
G37*
G36*
X219000Y324093D02*
Y321000D01*
X222093D01*
X221855Y321890D01*
X221381Y322710D01*
X220710Y323381D01*
X219890Y323855D01*
X219000Y324093D01*
D02*
G37*
G36*
X218000D02*
X217110Y323855D01*
X216290Y323381D01*
X215619Y322710D01*
X215145Y321890D01*
X214907Y321000D01*
X218000D01*
Y324093D01*
D02*
G37*
G36*
X222093Y320000D02*
X219000D01*
Y316907D01*
X219890Y317145D01*
X220710Y317619D01*
X221381Y318290D01*
X221855Y319110D01*
X222093Y320000D01*
D02*
G37*
G36*
X218000D02*
X214907D01*
X215145Y319110D01*
X215619Y318290D01*
X216290Y317619D01*
X217110Y317145D01*
X218000Y316907D01*
Y320000D01*
D02*
G37*
G36*
X219000Y314093D02*
Y311000D01*
X222093D01*
X221855Y311890D01*
X221381Y312710D01*
X220710Y313381D01*
X219890Y313855D01*
X219000Y314093D01*
D02*
G37*
G36*
X218000D02*
X217110Y313855D01*
X216290Y313381D01*
X215619Y312710D01*
X215145Y311890D01*
X214907Y311000D01*
X218000D01*
Y314093D01*
D02*
G37*
G36*
X222093Y310000D02*
X219000D01*
Y306907D01*
X219890Y307145D01*
X220710Y307619D01*
X221381Y308290D01*
X221855Y309110D01*
X222093Y310000D01*
D02*
G37*
G36*
X218000D02*
X214907D01*
X215145Y309110D01*
X215619Y308290D01*
X216290Y307619D01*
X217110Y307145D01*
X218000Y306907D01*
Y310000D01*
D02*
G37*
G36*
X219000Y304093D02*
Y301000D01*
X222093D01*
X221855Y301890D01*
X221381Y302710D01*
X220710Y303381D01*
X219890Y303855D01*
X219000Y304093D01*
D02*
G37*
G36*
X218000D02*
X217110Y303855D01*
X216290Y303381D01*
X215619Y302710D01*
X215145Y301890D01*
X214907Y301000D01*
X218000D01*
Y304093D01*
D02*
G37*
G36*
X222093Y300000D02*
X219000D01*
Y296907D01*
X219890Y297145D01*
X220710Y297619D01*
X221381Y298290D01*
X221855Y299110D01*
X222093Y300000D01*
D02*
G37*
G36*
X218000D02*
X214907D01*
X215145Y299110D01*
X215619Y298290D01*
X216290Y297619D01*
X217110Y297145D01*
X218000Y296907D01*
Y300000D01*
D02*
G37*
G36*
X222100Y294100D02*
X219000D01*
Y291000D01*
X222100D01*
Y294100D01*
D02*
G37*
G36*
X218000D02*
X214900D01*
Y291000D01*
X218000D01*
Y294100D01*
D02*
G37*
G36*
X222100Y290000D02*
X219000D01*
Y286900D01*
X222100D01*
Y290000D01*
D02*
G37*
G36*
X218000D02*
X214900D01*
Y286900D01*
X218000D01*
Y290000D01*
D02*
G37*
G36*
X363000Y380000D02*
X359907D01*
X360145Y379110D01*
X360619Y378290D01*
X361290Y377619D01*
X362110Y377145D01*
X363000Y376907D01*
Y380000D01*
D02*
G37*
G36*
Y374093D02*
X362110Y373855D01*
X361290Y373381D01*
X360619Y372710D01*
X360145Y371890D01*
X359907Y371000D01*
X363000D01*
Y374093D01*
D02*
G37*
G36*
Y370000D02*
X359907D01*
X360145Y369110D01*
X360619Y368290D01*
X361290Y367619D01*
X362110Y367145D01*
X363000Y366907D01*
Y370000D01*
D02*
G37*
G36*
Y364093D02*
X362110Y363855D01*
X361290Y363381D01*
X360619Y362710D01*
X360145Y361890D01*
X359907Y361000D01*
X363000D01*
Y364093D01*
D02*
G37*
G36*
Y360000D02*
X359907D01*
X360145Y359110D01*
X360619Y358290D01*
X361290Y357619D01*
X362110Y357145D01*
X363000Y356907D01*
Y360000D01*
D02*
G37*
G36*
Y354093D02*
X362110Y353855D01*
X361290Y353381D01*
X360619Y352710D01*
X360145Y351890D01*
X359907Y351000D01*
X363000D01*
Y354093D01*
D02*
G37*
G36*
Y350000D02*
X359907D01*
X360145Y349110D01*
X360619Y348290D01*
X361290Y347619D01*
X362110Y347145D01*
X363000Y346907D01*
Y350000D01*
D02*
G37*
G36*
Y344093D02*
X362110Y343855D01*
X361290Y343381D01*
X360619Y342710D01*
X360145Y341890D01*
X359907Y341000D01*
X363000D01*
Y344093D01*
D02*
G37*
G36*
Y340000D02*
X359907D01*
X360145Y339110D01*
X360619Y338290D01*
X361290Y337619D01*
X362110Y337145D01*
X363000Y336907D01*
Y340000D01*
D02*
G37*
G36*
Y334093D02*
X362110Y333855D01*
X361290Y333381D01*
X360619Y332710D01*
X360145Y331890D01*
X359907Y331000D01*
X363000D01*
Y334093D01*
D02*
G37*
G36*
Y330000D02*
X359907D01*
X360145Y329110D01*
X360619Y328290D01*
X361290Y327619D01*
X362110Y327145D01*
X363000Y326907D01*
Y330000D01*
D02*
G37*
G36*
Y324093D02*
X362110Y323855D01*
X361290Y323381D01*
X360619Y322710D01*
X360145Y321890D01*
X359907Y321000D01*
X363000D01*
Y324093D01*
D02*
G37*
G36*
Y320000D02*
X359907D01*
X360145Y319110D01*
X360619Y318290D01*
X361290Y317619D01*
X362110Y317145D01*
X363000Y316907D01*
Y320000D01*
D02*
G37*
G36*
Y314093D02*
X362110Y313855D01*
X361290Y313381D01*
X360619Y312710D01*
X360145Y311890D01*
X359907Y311000D01*
X363000D01*
Y314093D01*
D02*
G37*
G36*
Y310000D02*
X359907D01*
X360145Y309110D01*
X360619Y308290D01*
X361290Y307619D01*
X362110Y307145D01*
X363000Y306907D01*
Y310000D01*
D02*
G37*
G36*
Y304093D02*
X362110Y303855D01*
X361290Y303381D01*
X360619Y302710D01*
X360145Y301890D01*
X359907Y301000D01*
X363000D01*
Y304093D01*
D02*
G37*
G36*
Y300000D02*
X359907D01*
X360145Y299110D01*
X360619Y298290D01*
X361290Y297619D01*
X362110Y297145D01*
X363000Y296907D01*
Y300000D01*
D02*
G37*
G36*
Y294100D02*
X359900D01*
Y291000D01*
X363000D01*
Y294100D01*
D02*
G37*
G36*
Y290000D02*
X359900D01*
Y286900D01*
X363000D01*
Y290000D01*
D02*
G37*
G36*
X293000Y384593D02*
Y381500D01*
X296093D01*
X295855Y382390D01*
X295381Y383210D01*
X294710Y383881D01*
X293890Y384355D01*
X293000Y384593D01*
D02*
G37*
G36*
X292000D02*
X291110Y384355D01*
X290290Y383881D01*
X289619Y383210D01*
X289145Y382390D01*
X288907Y381500D01*
X292000D01*
Y384593D01*
D02*
G37*
G36*
X296093Y380500D02*
X293000D01*
Y377407D01*
X293890Y377645D01*
X294710Y378119D01*
X295381Y378790D01*
X295855Y379610D01*
X296093Y380500D01*
D02*
G37*
G36*
X292000D02*
X288907D01*
X289145Y379610D01*
X289619Y378790D01*
X290290Y378119D01*
X291110Y377645D01*
X292000Y377407D01*
Y380500D01*
D02*
G37*
G36*
X293000Y374593D02*
Y371500D01*
X296093D01*
X295855Y372390D01*
X295381Y373210D01*
X294710Y373881D01*
X293890Y374355D01*
X293000Y374593D01*
D02*
G37*
G36*
X292000D02*
X291110Y374355D01*
X290290Y373881D01*
X289619Y373210D01*
X289145Y372390D01*
X288907Y371500D01*
X292000D01*
Y374593D01*
D02*
G37*
G36*
X296093Y370500D02*
X293000D01*
Y367407D01*
X293890Y367645D01*
X294710Y368119D01*
X295381Y368790D01*
X295855Y369610D01*
X296093Y370500D01*
D02*
G37*
G36*
X292000D02*
X288907D01*
X289145Y369610D01*
X289619Y368790D01*
X290290Y368119D01*
X291110Y367645D01*
X292000Y367407D01*
Y370500D01*
D02*
G37*
G36*
X293000Y364593D02*
Y361500D01*
X296093D01*
X295855Y362390D01*
X295381Y363210D01*
X294710Y363881D01*
X293890Y364355D01*
X293000Y364593D01*
D02*
G37*
G36*
X292000D02*
X291110Y364355D01*
X290290Y363881D01*
X289619Y363210D01*
X289145Y362390D01*
X288907Y361500D01*
X292000D01*
Y364593D01*
D02*
G37*
G36*
X296093Y360500D02*
X293000D01*
Y357407D01*
X293890Y357645D01*
X294710Y358119D01*
X295381Y358790D01*
X295855Y359610D01*
X296093Y360500D01*
D02*
G37*
G36*
X292000D02*
X288907D01*
X289145Y359610D01*
X289619Y358790D01*
X290290Y358119D01*
X291110Y357645D01*
X292000Y357407D01*
Y360500D01*
D02*
G37*
G36*
X293000Y354593D02*
Y351500D01*
X296093D01*
X295855Y352390D01*
X295381Y353210D01*
X294710Y353881D01*
X293890Y354355D01*
X293000Y354593D01*
D02*
G37*
G36*
X292000D02*
X291110Y354355D01*
X290290Y353881D01*
X289619Y353210D01*
X289145Y352390D01*
X288907Y351500D01*
X292000D01*
Y354593D01*
D02*
G37*
G36*
X296093Y350500D02*
X293000D01*
Y347407D01*
X293890Y347645D01*
X294710Y348119D01*
X295381Y348790D01*
X295855Y349610D01*
X296093Y350500D01*
D02*
G37*
G36*
X292000D02*
X288907D01*
X289145Y349610D01*
X289619Y348790D01*
X290290Y348119D01*
X291110Y347645D01*
X292000Y347407D01*
Y350500D01*
D02*
G37*
G36*
X293000Y344593D02*
Y341500D01*
X296093D01*
X295855Y342390D01*
X295381Y343210D01*
X294710Y343881D01*
X293890Y344355D01*
X293000Y344593D01*
D02*
G37*
G36*
X292000D02*
X291110Y344355D01*
X290290Y343881D01*
X289619Y343210D01*
X289145Y342390D01*
X288907Y341500D01*
X292000D01*
Y344593D01*
D02*
G37*
G36*
X296093Y340500D02*
X293000D01*
Y337407D01*
X293890Y337645D01*
X294710Y338119D01*
X295381Y338790D01*
X295855Y339610D01*
X296093Y340500D01*
D02*
G37*
G36*
X292000D02*
X288907D01*
X289145Y339610D01*
X289619Y338790D01*
X290290Y338119D01*
X291110Y337645D01*
X292000Y337407D01*
Y340500D01*
D02*
G37*
G36*
X293000Y334593D02*
Y331500D01*
X296093D01*
X295855Y332390D01*
X295381Y333210D01*
X294710Y333881D01*
X293890Y334355D01*
X293000Y334593D01*
D02*
G37*
G36*
X292000D02*
X291110Y334355D01*
X290290Y333881D01*
X289619Y333210D01*
X289145Y332390D01*
X288907Y331500D01*
X292000D01*
Y334593D01*
D02*
G37*
G36*
X296093Y330500D02*
X293000D01*
Y327407D01*
X293890Y327645D01*
X294710Y328119D01*
X295381Y328790D01*
X295855Y329610D01*
X296093Y330500D01*
D02*
G37*
G36*
X292000D02*
X288907D01*
X289145Y329610D01*
X289619Y328790D01*
X290290Y328119D01*
X291110Y327645D01*
X292000Y327407D01*
Y330500D01*
D02*
G37*
G36*
X293000Y324593D02*
Y321500D01*
X296093D01*
X295855Y322390D01*
X295381Y323210D01*
X294710Y323881D01*
X293890Y324355D01*
X293000Y324593D01*
D02*
G37*
G36*
X292000D02*
X291110Y324355D01*
X290290Y323881D01*
X289619Y323210D01*
X289145Y322390D01*
X288907Y321500D01*
X292000D01*
Y324593D01*
D02*
G37*
G36*
X296093Y320500D02*
X293000D01*
Y317407D01*
X293890Y317645D01*
X294710Y318119D01*
X295381Y318790D01*
X295855Y319610D01*
X296093Y320500D01*
D02*
G37*
G36*
X292000D02*
X288907D01*
X289145Y319610D01*
X289619Y318790D01*
X290290Y318119D01*
X291110Y317645D01*
X292000Y317407D01*
Y320500D01*
D02*
G37*
G36*
X293000Y314593D02*
Y311500D01*
X296093D01*
X295855Y312390D01*
X295381Y313210D01*
X294710Y313881D01*
X293890Y314355D01*
X293000Y314593D01*
D02*
G37*
G36*
X292000D02*
X291110Y314355D01*
X290290Y313881D01*
X289619Y313210D01*
X289145Y312390D01*
X288907Y311500D01*
X292000D01*
Y314593D01*
D02*
G37*
G36*
X296093Y310500D02*
X293000D01*
Y307407D01*
X293890Y307645D01*
X294710Y308119D01*
X295381Y308790D01*
X295855Y309610D01*
X296093Y310500D01*
D02*
G37*
G36*
X292000D02*
X288907D01*
X289145Y309610D01*
X289619Y308790D01*
X290290Y308119D01*
X291110Y307645D01*
X292000Y307407D01*
Y310500D01*
D02*
G37*
G36*
X293000Y304593D02*
Y301500D01*
X296093D01*
X295855Y302390D01*
X295381Y303210D01*
X294710Y303881D01*
X293890Y304355D01*
X293000Y304593D01*
D02*
G37*
G36*
X292000D02*
X291110Y304355D01*
X290290Y303881D01*
X289619Y303210D01*
X289145Y302390D01*
X288907Y301500D01*
X292000D01*
Y304593D01*
D02*
G37*
G36*
X296093Y300500D02*
X293000D01*
Y297407D01*
X293890Y297645D01*
X294710Y298119D01*
X295381Y298790D01*
X295855Y299610D01*
X296093Y300500D01*
D02*
G37*
G36*
X292000D02*
X288907D01*
X289145Y299610D01*
X289619Y298790D01*
X290290Y298119D01*
X291110Y297645D01*
X292000Y297407D01*
Y300500D01*
D02*
G37*
G36*
X296100Y294600D02*
X293000D01*
Y291500D01*
X296100D01*
Y294600D01*
D02*
G37*
G36*
X292000D02*
X288900D01*
Y291500D01*
X292000D01*
Y294600D01*
D02*
G37*
G36*
X296100Y290500D02*
X293000D01*
Y287400D01*
X296100D01*
Y290500D01*
D02*
G37*
G36*
X292000D02*
X288900D01*
Y287400D01*
X292000D01*
Y290500D01*
D02*
G37*
G36*
X452593Y379500D02*
X449500D01*
Y376407D01*
X450389Y376645D01*
X451210Y377119D01*
X451881Y377790D01*
X452355Y378610D01*
X452593Y379500D01*
D02*
G37*
G36*
X448500D02*
X445407D01*
X445645Y378610D01*
X446119Y377790D01*
X446790Y377119D01*
X447611Y376645D01*
X448500Y376407D01*
Y379500D01*
D02*
G37*
G36*
X449500Y373593D02*
Y370500D01*
X452593D01*
X452355Y371390D01*
X451881Y372210D01*
X451210Y372881D01*
X450389Y373355D01*
X449500Y373593D01*
D02*
G37*
G36*
X448500D02*
X447611Y373355D01*
X446790Y372881D01*
X446119Y372210D01*
X445645Y371390D01*
X445407Y370500D01*
X448500D01*
Y373593D01*
D02*
G37*
G36*
X452593Y369500D02*
X449500D01*
Y366407D01*
X450389Y366645D01*
X451210Y367119D01*
X451881Y367790D01*
X452355Y368610D01*
X452593Y369500D01*
D02*
G37*
G36*
X448500D02*
X445407D01*
X445645Y368610D01*
X446119Y367790D01*
X446790Y367119D01*
X447611Y366645D01*
X448500Y366407D01*
Y369500D01*
D02*
G37*
G36*
X449500Y363593D02*
Y360500D01*
X452593D01*
X452355Y361390D01*
X451881Y362210D01*
X451210Y362881D01*
X450389Y363355D01*
X449500Y363593D01*
D02*
G37*
G36*
X448500D02*
X447611Y363355D01*
X446790Y362881D01*
X446119Y362210D01*
X445645Y361390D01*
X445407Y360500D01*
X448500D01*
Y363593D01*
D02*
G37*
G36*
X452593Y359500D02*
X449500D01*
Y356407D01*
X450389Y356645D01*
X451210Y357119D01*
X451881Y357790D01*
X452355Y358610D01*
X452593Y359500D01*
D02*
G37*
G36*
X448500D02*
X445407D01*
X445645Y358610D01*
X446119Y357790D01*
X446790Y357119D01*
X447611Y356645D01*
X448500Y356407D01*
Y359500D01*
D02*
G37*
G36*
X449500Y353593D02*
Y350500D01*
X452593D01*
X452355Y351390D01*
X451881Y352210D01*
X451210Y352881D01*
X450389Y353355D01*
X449500Y353593D01*
D02*
G37*
G36*
X448500D02*
X447611Y353355D01*
X446790Y352881D01*
X446119Y352210D01*
X445645Y351390D01*
X445407Y350500D01*
X448500D01*
Y353593D01*
D02*
G37*
G36*
X452593Y349500D02*
X449500D01*
Y346407D01*
X450389Y346645D01*
X451210Y347119D01*
X451881Y347790D01*
X452355Y348610D01*
X452593Y349500D01*
D02*
G37*
G36*
X448500D02*
X445407D01*
X445645Y348610D01*
X446119Y347790D01*
X446790Y347119D01*
X447611Y346645D01*
X448500Y346407D01*
Y349500D01*
D02*
G37*
G36*
X449500Y343593D02*
Y340500D01*
X452593D01*
X452355Y341390D01*
X451881Y342210D01*
X451210Y342881D01*
X450389Y343355D01*
X449500Y343593D01*
D02*
G37*
G36*
X448500D02*
X447611Y343355D01*
X446790Y342881D01*
X446119Y342210D01*
X445645Y341390D01*
X445407Y340500D01*
X448500D01*
Y343593D01*
D02*
G37*
G36*
X452593Y339500D02*
X449500D01*
Y336407D01*
X450389Y336645D01*
X451210Y337119D01*
X451881Y337790D01*
X452355Y338610D01*
X452593Y339500D01*
D02*
G37*
G36*
X448500D02*
X445407D01*
X445645Y338610D01*
X446119Y337790D01*
X446790Y337119D01*
X447611Y336645D01*
X448500Y336407D01*
Y339500D01*
D02*
G37*
G36*
X449500Y333593D02*
Y330500D01*
X452593D01*
X452355Y331390D01*
X451881Y332210D01*
X451210Y332881D01*
X450389Y333355D01*
X449500Y333593D01*
D02*
G37*
G36*
X448500D02*
X447611Y333355D01*
X446790Y332881D01*
X446119Y332210D01*
X445645Y331390D01*
X445407Y330500D01*
X448500D01*
Y333593D01*
D02*
G37*
G36*
X452593Y329500D02*
X449500D01*
Y326407D01*
X450389Y326645D01*
X451210Y327119D01*
X451881Y327790D01*
X452355Y328610D01*
X452593Y329500D01*
D02*
G37*
G36*
X448500D02*
X445407D01*
X445645Y328610D01*
X446119Y327790D01*
X446790Y327119D01*
X447611Y326645D01*
X448500Y326407D01*
Y329500D01*
D02*
G37*
G36*
X449500Y323593D02*
Y320500D01*
X452593D01*
X452355Y321390D01*
X451881Y322210D01*
X451210Y322881D01*
X450389Y323355D01*
X449500Y323593D01*
D02*
G37*
G36*
X448500D02*
X447611Y323355D01*
X446790Y322881D01*
X446119Y322210D01*
X445645Y321390D01*
X445407Y320500D01*
X448500D01*
Y323593D01*
D02*
G37*
G36*
X452593Y319500D02*
X449500D01*
Y316407D01*
X450389Y316645D01*
X451210Y317119D01*
X451881Y317790D01*
X452355Y318610D01*
X452593Y319500D01*
D02*
G37*
G36*
X448500D02*
X445407D01*
X445645Y318610D01*
X446119Y317790D01*
X446790Y317119D01*
X447611Y316645D01*
X448500Y316407D01*
Y319500D01*
D02*
G37*
G36*
X449500Y313593D02*
Y310500D01*
X452593D01*
X452355Y311390D01*
X451881Y312210D01*
X451210Y312881D01*
X450389Y313355D01*
X449500Y313593D01*
D02*
G37*
G36*
X448500D02*
X447611Y313355D01*
X446790Y312881D01*
X446119Y312210D01*
X445645Y311390D01*
X445407Y310500D01*
X448500D01*
Y313593D01*
D02*
G37*
G36*
X452593Y309500D02*
X449500D01*
Y306407D01*
X450389Y306645D01*
X451210Y307119D01*
X451881Y307790D01*
X452355Y308610D01*
X452593Y309500D01*
D02*
G37*
G36*
X448500D02*
X445407D01*
X445645Y308610D01*
X446119Y307790D01*
X446790Y307119D01*
X447611Y306645D01*
X448500Y306407D01*
Y309500D01*
D02*
G37*
G36*
X449500Y303593D02*
Y300500D01*
X452593D01*
X452355Y301390D01*
X451881Y302210D01*
X451210Y302881D01*
X450389Y303355D01*
X449500Y303593D01*
D02*
G37*
G36*
X448500D02*
X447611Y303355D01*
X446790Y302881D01*
X446119Y302210D01*
X445645Y301390D01*
X445407Y300500D01*
X448500D01*
Y303593D01*
D02*
G37*
G36*
X452593Y299500D02*
X449500D01*
Y296407D01*
X450389Y296645D01*
X451210Y297119D01*
X451881Y297790D01*
X452355Y298610D01*
X452593Y299500D01*
D02*
G37*
G36*
X448500D02*
X445407D01*
X445645Y298610D01*
X446119Y297790D01*
X446790Y297119D01*
X447611Y296645D01*
X448500Y296407D01*
Y299500D01*
D02*
G37*
G36*
X452600Y293600D02*
X449500D01*
Y290500D01*
X452600D01*
Y293600D01*
D02*
G37*
%LPD*%
D13*
X437500Y440000D02*
X447500D01*
X434000Y443500D02*
X437500Y440000D01*
X434000Y443500D02*
Y465500D01*
X429000Y213500D02*
X439000D01*
X425283Y209784D02*
X429000Y213500D01*
X425283Y193500D02*
Y209784D01*
X221000Y206217D02*
Y216000D01*
Y206217D02*
X235216Y192000D01*
D25*
X400578Y445453D02*
X410983Y435047D01*
X390953Y445453D02*
X400578D01*
X386000Y440500D02*
X390953Y445453D01*
X396000Y417504D02*
Y440500D01*
Y417504D02*
X400953Y412551D01*
X422547Y435047D02*
X427500Y440000D01*
X410983Y435047D02*
X422547D01*
X467500Y440000D02*
X472453Y444953D01*
X400953Y387953D02*
Y412551D01*
X366000Y440500D02*
X370953Y445453D01*
X381047D01*
X386000Y440500D01*
X361047Y404154D02*
Y425547D01*
X376000Y440500D01*
X361047Y404154D02*
X363500Y401702D01*
X472453Y444953D02*
X482547D01*
X487500Y440000D01*
X449000Y380000D02*
Y380825D01*
X452547Y384372D01*
Y415047D01*
X477500Y440000D01*
X462547Y435047D02*
X467500Y440000D01*
X432453Y435047D02*
X462547D01*
X427500Y440000D02*
X432453Y435047D01*
X492453Y434953D02*
X497500Y440000D01*
X492453Y393453D02*
Y434953D01*
X479000Y380000D02*
X492453Y393453D01*
X497500Y388500D02*
Y410000D01*
X479000Y370000D02*
X497500Y388500D01*
X478876Y401376D02*
X487500Y410000D01*
X475876Y401376D02*
X478876D01*
X468000Y393500D02*
X475876Y401376D01*
X468000Y371000D02*
Y393500D01*
Y371000D02*
X479000Y360000D01*
X472194Y356806D02*
X479000Y350000D01*
X470194Y356806D02*
X472194D01*
X464000Y363000D02*
X470194Y356806D01*
X464000Y363000D02*
Y396500D01*
X477500Y410000D01*
X460000Y402500D02*
X467500Y410000D01*
X460000Y359000D02*
Y402500D01*
Y359000D02*
X479000Y340000D01*
X363500Y380500D02*
Y401702D01*
X366000Y410500D02*
X372500Y404000D01*
Y343172D02*
Y404000D01*
X336000Y440500D02*
X346000D01*
X361047Y435547D02*
X366000Y440500D01*
X330953Y435547D02*
X361047D01*
X326000Y440500D02*
X330953Y435547D01*
X467500Y440000D02*
Y441057D01*
X469433Y442990D01*
Y465500D01*
X393500Y380500D02*
X400953Y387953D01*
X396000Y389505D02*
Y410500D01*
X388900Y382405D02*
X396000Y389505D01*
X388900Y378595D02*
Y382405D01*
Y378595D02*
X389000Y378495D01*
Y375000D02*
Y378495D01*
Y375000D02*
X393500Y370500D01*
X385900Y377352D02*
X386000Y377252D01*
X385900Y377352D02*
Y383648D01*
X386000Y383748D01*
Y368000D02*
Y377252D01*
Y383748D02*
Y410500D01*
Y368000D02*
X393500Y360500D01*
X376000Y368000D02*
Y410500D01*
Y368000D02*
X393500Y350500D01*
X375172Y340500D02*
X393500D01*
X372500Y343172D02*
X375172Y340500D01*
X417026Y290000D02*
X449000D01*
X412926Y285900D02*
X417026Y290000D01*
X382553Y285900D02*
X412926D01*
X377953Y290500D02*
X382553Y285900D01*
X363500Y290500D02*
X377953D01*
X358400Y385600D02*
X363500Y380500D01*
X335392Y441108D02*
X336000Y440500D01*
X335392Y441108D02*
Y462392D01*
X334784Y463000D02*
X335392Y462392D01*
X366000Y440500D02*
Y457886D01*
X370216Y462103D01*
Y463000D01*
X404047Y218453D02*
X409000Y213500D01*
X393953Y218453D02*
X404047D01*
X389000Y213500D02*
X393953Y218453D01*
X449000Y205217D02*
Y213500D01*
Y205217D02*
X460716Y193500D01*
X449000Y290000D02*
X473500Y265500D01*
Y149000D02*
Y265500D01*
X469153Y144653D02*
X473500Y149000D01*
X401847Y144653D02*
X469153D01*
X396500Y150000D02*
X401847Y144653D01*
X317900Y336400D02*
X322500Y341000D01*
X317900Y267971D02*
Y336400D01*
Y267971D02*
X320000Y265871D01*
X386629D01*
X409000Y243500D01*
X379629Y262871D02*
X399000Y243500D01*
X372629Y259871D02*
X389000Y243500D01*
X315388Y256611D02*
X365889D01*
X316371Y259871D02*
X372629D01*
X313060Y253611D02*
X341393D01*
X317614Y262871D02*
X379629D01*
X341393Y253611D02*
X356000Y239004D01*
X365889Y256611D02*
X379000Y243500D01*
X314500Y265985D02*
X317614Y262871D01*
X314500Y265985D02*
Y343000D01*
X322500Y351000D01*
X321900Y360400D02*
X322500Y361000D01*
X316900Y360400D02*
X321900D01*
X311500Y355000D02*
X316900Y360400D01*
X311500Y264743D02*
Y355000D01*
Y264743D02*
X316371Y259871D01*
X308500Y263500D02*
X315388Y256611D01*
X308500Y263500D02*
Y357000D01*
X322500Y371000D01*
X356000Y211672D02*
Y239004D01*
X297100Y385600D02*
X358400D01*
X292500Y381000D02*
X297100Y385600D01*
X369586Y213500D02*
X379000D01*
X366586Y210500D02*
X369586Y213500D01*
X357172Y210500D02*
X366586D01*
X356000Y211672D02*
X357172Y210500D01*
X305500Y261172D02*
X313060Y253611D01*
X305500Y261172D02*
Y364000D01*
X322500Y381000D01*
X201000Y216000D02*
X211000D01*
X314000Y214000D02*
X324000D01*
X302783Y192500D02*
X303000Y192717D01*
Y196500D01*
X314000Y207500D01*
Y214000D01*
X289000Y171500D02*
Y200000D01*
X338216Y192500D02*
Y208727D01*
X334000Y212943D02*
X338216Y208727D01*
X334000Y212943D02*
Y214000D01*
X289047Y209047D02*
X294000Y214000D01*
X278953Y209047D02*
X289047D01*
X274000Y214000D02*
X278953Y209047D01*
X235216Y192000D02*
X252000D01*
X274000Y214000D01*
X284000D02*
X298953Y228953D01*
Y284547D01*
X292500Y291000D02*
X298953Y284547D01*
X271329Y266671D02*
X294000Y244000D01*
X265824Y266671D02*
X271329D01*
X243900Y288595D02*
X265824Y266671D01*
X243900Y288595D02*
Y292405D01*
X244000Y292505D01*
Y298495D01*
X243900Y298595D02*
X244000Y298495D01*
X243900Y298595D02*
Y302405D01*
X244000Y302505D01*
Y308495D01*
X243900Y308595D02*
X244000Y308495D01*
X243900Y308595D02*
Y312405D01*
X244000Y312505D01*
Y318495D01*
X243900Y318595D02*
X244000Y318495D01*
X243900Y318595D02*
Y322405D01*
X244000Y322505D01*
Y328495D01*
X243900Y328595D02*
X244000Y328495D01*
X243900Y328595D02*
Y332405D01*
X244000Y332505D01*
Y336000D01*
X248500Y340500D01*
X240900Y293648D02*
X241000Y293748D01*
X240900Y287352D02*
Y293648D01*
Y287352D02*
X241000Y287252D01*
Y293748D02*
Y297252D01*
Y286500D02*
Y287252D01*
X240900Y303648D02*
X241000Y303748D01*
X240900Y297352D02*
Y303648D01*
Y297352D02*
X241000Y297252D01*
Y303748D02*
Y307252D01*
X240900Y313648D02*
X241000Y313748D01*
X240900Y307352D02*
Y313648D01*
Y307352D02*
X241000Y307252D01*
Y313748D02*
Y317252D01*
Y323748D02*
Y327252D01*
Y333748D02*
Y343000D01*
X240900Y317352D02*
X241000Y317252D01*
X240900Y327352D02*
Y333648D01*
Y323648D02*
X241000Y323748D01*
X240900Y333648D02*
X241000Y333748D01*
X240900Y327352D02*
X241000Y327252D01*
X240900Y317352D02*
Y323648D01*
X283500Y244000D02*
X284000D01*
X241000Y286500D02*
X283500Y244000D01*
X241000Y343000D02*
X248500Y350500D01*
X239672Y360500D02*
X248500D01*
X236000Y356828D02*
X239672Y360500D01*
X236000Y282000D02*
Y356828D01*
Y282000D02*
X274000Y244000D01*
X232000Y276000D02*
X264000Y244000D01*
X232000Y276000D02*
Y368500D01*
X234000Y370500D01*
X248500D01*
X229000Y270500D02*
X244524Y254976D01*
X229000Y270500D02*
Y379328D01*
X244524Y233476D02*
Y254976D01*
Y233476D02*
X264000Y214000D01*
X230172Y380500D02*
X248500D01*
X229000Y379328D02*
X230172Y380500D01*
X218500D02*
X223100Y385100D01*
X288400D01*
X292500Y381000D01*
X181000Y208672D02*
Y216000D01*
X179828Y207500D02*
X181000Y208672D01*
X169500Y207500D02*
X179828D01*
X161000Y216000D02*
X169500Y207500D01*
X304051Y166449D02*
X371949D01*
X299000Y171500D02*
X304051Y166449D01*
X371949D02*
X419000Y213500D01*
X303000Y214000D02*
X304000D01*
X289000Y200000D02*
X303000Y214000D01*
X212140Y171500D02*
X279000D01*
X191000Y192640D02*
X212140Y171500D01*
X191000Y192640D02*
Y216000D01*
X199784Y192000D02*
X200392Y192608D01*
Y215392D01*
X201000Y216000D01*
X181000Y246000D02*
X187600Y252600D01*
Y335400D01*
X183000Y340000D02*
X187600Y335400D01*
X177067Y252067D02*
Y344068D01*
X171000Y246000D02*
X177067Y252067D01*
X172067Y257067D02*
Y349067D01*
X177067Y344068D02*
X183000Y350000D01*
X161000Y246000D02*
X172067Y257067D01*
Y349067D02*
X183000Y360000D01*
X162500Y257500D02*
Y349500D01*
X151000Y246000D02*
X162500Y257500D01*
Y349500D02*
X183000Y370000D01*
X176495Y380000D02*
X181095Y384600D01*
X214400D01*
X218500Y380500D01*
X153000Y380000D02*
X176495D01*
D26*
X498000Y471000D02*
D03*
X139000Y470500D02*
D03*
X506500Y139000D02*
D03*
X138000D02*
D03*
D27*
X396500Y150000D02*
D03*
D28*
X411500D02*
D03*
D29*
X497500Y440000D02*
D03*
X151000Y216000D02*
D03*
X379000Y213500D02*
D03*
X264000Y214000D02*
D03*
X396000Y440500D02*
D03*
D30*
X487500Y440000D02*
D03*
X477500D02*
D03*
X467500D02*
D03*
X457500D02*
D03*
X447500D02*
D03*
X437500D02*
D03*
X427500D02*
D03*
X417500D02*
D03*
X497500Y410000D02*
D03*
X487500D02*
D03*
X477500D02*
D03*
X467500D02*
D03*
X457500D02*
D03*
X447500D02*
D03*
X437500D02*
D03*
X427500D02*
D03*
X417500D02*
D03*
X231000Y246000D02*
D03*
X221000D02*
D03*
X211000D02*
D03*
X201000D02*
D03*
X191000D02*
D03*
X181000D02*
D03*
X171000D02*
D03*
X161000D02*
D03*
X151000D02*
D03*
X231000Y216000D02*
D03*
X221000D02*
D03*
X211000D02*
D03*
X201000D02*
D03*
X191000D02*
D03*
X181000D02*
D03*
X171000D02*
D03*
X161000D02*
D03*
X389000Y213500D02*
D03*
X399000D02*
D03*
X409000D02*
D03*
X419000D02*
D03*
X429000D02*
D03*
X439000D02*
D03*
X449000D02*
D03*
X459000D02*
D03*
X379000Y243500D02*
D03*
X389000D02*
D03*
X399000D02*
D03*
X409000D02*
D03*
X419000D02*
D03*
X429000D02*
D03*
X439000D02*
D03*
X449000D02*
D03*
X459000D02*
D03*
X274000Y214000D02*
D03*
X284000D02*
D03*
X294000D02*
D03*
X304000D02*
D03*
X314000D02*
D03*
X324000D02*
D03*
X334000D02*
D03*
X344000D02*
D03*
X264000Y244000D02*
D03*
X274000D02*
D03*
X284000D02*
D03*
X294000D02*
D03*
X304000D02*
D03*
X314000D02*
D03*
X324000D02*
D03*
X334000D02*
D03*
X344000D02*
D03*
X386000Y440500D02*
D03*
X376000D02*
D03*
X366000D02*
D03*
X356000D02*
D03*
X346000D02*
D03*
X336000D02*
D03*
X326000D02*
D03*
X316000D02*
D03*
X396000Y410500D02*
D03*
X386000D02*
D03*
X376000D02*
D03*
X366000D02*
D03*
X356000D02*
D03*
X346000D02*
D03*
X336000D02*
D03*
X326000D02*
D03*
X316000D02*
D03*
D31*
X460716Y193500D02*
D03*
X370216Y463000D02*
D03*
X338216Y192500D02*
D03*
X469433Y465500D02*
D03*
X235216Y192000D02*
D03*
D32*
X425283Y193500D02*
D03*
X334784Y463000D02*
D03*
X302783Y192500D02*
D03*
X434000Y465500D02*
D03*
X199784Y192000D02*
D03*
D33*
X248500Y290500D02*
D03*
Y300500D02*
D03*
Y310500D02*
D03*
Y320500D02*
D03*
Y330500D02*
D03*
Y340500D02*
D03*
Y350500D02*
D03*
Y360500D02*
D03*
Y370500D02*
D03*
Y380500D02*
D03*
X218500D02*
D03*
Y370500D02*
D03*
Y360500D02*
D03*
Y350500D02*
D03*
Y340500D02*
D03*
Y330500D02*
D03*
Y320500D02*
D03*
Y310500D02*
D03*
Y300500D02*
D03*
X292500Y301000D02*
D03*
Y311000D02*
D03*
Y321000D02*
D03*
Y331000D02*
D03*
Y341000D02*
D03*
Y351000D02*
D03*
Y361000D02*
D03*
Y371000D02*
D03*
Y381000D02*
D03*
X322500D02*
D03*
Y371000D02*
D03*
Y361000D02*
D03*
Y351000D02*
D03*
Y341000D02*
D03*
Y331000D02*
D03*
Y321000D02*
D03*
Y311000D02*
D03*
Y301000D02*
D03*
Y291000D02*
D03*
X363500Y300500D02*
D03*
Y310500D02*
D03*
Y320500D02*
D03*
Y330500D02*
D03*
Y340500D02*
D03*
Y350500D02*
D03*
Y360500D02*
D03*
Y370500D02*
D03*
Y380500D02*
D03*
X393500D02*
D03*
Y370500D02*
D03*
Y360500D02*
D03*
Y350500D02*
D03*
Y340500D02*
D03*
Y330500D02*
D03*
Y320500D02*
D03*
Y310500D02*
D03*
Y300500D02*
D03*
Y290500D02*
D03*
X183000Y290000D02*
D03*
Y300000D02*
D03*
Y310000D02*
D03*
Y320000D02*
D03*
Y330000D02*
D03*
Y340000D02*
D03*
Y350000D02*
D03*
Y360000D02*
D03*
Y370000D02*
D03*
Y380000D02*
D03*
X153000D02*
D03*
Y370000D02*
D03*
Y360000D02*
D03*
Y350000D02*
D03*
Y340000D02*
D03*
Y330000D02*
D03*
Y320000D02*
D03*
Y310000D02*
D03*
Y300000D02*
D03*
X479000Y290000D02*
D03*
Y300000D02*
D03*
Y310000D02*
D03*
Y320000D02*
D03*
Y330000D02*
D03*
Y340000D02*
D03*
Y350000D02*
D03*
Y360000D02*
D03*
Y370000D02*
D03*
Y380000D02*
D03*
X449000D02*
D03*
Y370000D02*
D03*
Y360000D02*
D03*
Y350000D02*
D03*
Y340000D02*
D03*
Y330000D02*
D03*
Y320000D02*
D03*
Y310000D02*
D03*
Y300000D02*
D03*
D34*
X218500Y290500D02*
D03*
X292500Y291000D02*
D03*
X363500Y290500D02*
D03*
X153000Y290000D02*
D03*
X449000D02*
D03*
D35*
X319000Y171500D02*
D03*
D36*
X309000D02*
D03*
X299000D02*
D03*
X289000D02*
D03*
X279000D02*
D03*
M02*
