G04*
G04 #@! TF.GenerationSoftware,Altium Limited,Altium Designer,25.2.1 (25)*
G04*
G04 Layer_Color=16711935*
%FSLAX25Y25*%
%MOIN*%
G70*
G04*
G04 #@! TF.SameCoordinates,F99C0EAD-8B59-483C-989D-22E72BE8A830*
G04*
G04*
G04 #@! TF.FilePolarity,Negative*
G04*
G01*
G75*
%ADD14C,0.13398*%
%ADD15C,0.07493*%
%ADD16R,0.07493X0.07493*%
%ADD17R,0.06706X0.06706*%
%ADD18C,0.06706*%
%ADD19C,0.06115*%
%ADD20R,0.06115X0.06115*%
%ADD21C,0.06000*%
%ADD22R,0.06000X0.06000*%
%ADD23R,0.06902X0.06902*%
%ADD24C,0.06902*%
D14*
X498000Y471000D02*
D03*
X139000Y470500D02*
D03*
X506500Y139000D02*
D03*
X138000D02*
D03*
D15*
X396500Y150000D02*
D03*
D16*
X411500D02*
D03*
D17*
X497500Y440000D02*
D03*
X151000Y216000D02*
D03*
X379000Y213500D02*
D03*
X264000Y214000D02*
D03*
X396000Y440500D02*
D03*
D18*
X487500Y440000D02*
D03*
X477500D02*
D03*
X467500D02*
D03*
X457500D02*
D03*
X447500D02*
D03*
X437500D02*
D03*
X427500D02*
D03*
X417500D02*
D03*
X497500Y410000D02*
D03*
X487500D02*
D03*
X477500D02*
D03*
X467500D02*
D03*
X457500D02*
D03*
X447500D02*
D03*
X437500D02*
D03*
X427500D02*
D03*
X417500D02*
D03*
X231000Y246000D02*
D03*
X221000D02*
D03*
X211000D02*
D03*
X201000D02*
D03*
X191000D02*
D03*
X181000D02*
D03*
X171000D02*
D03*
X161000D02*
D03*
X151000D02*
D03*
X231000Y216000D02*
D03*
X221000D02*
D03*
X211000D02*
D03*
X201000D02*
D03*
X191000D02*
D03*
X181000D02*
D03*
X171000D02*
D03*
X161000D02*
D03*
X389000Y213500D02*
D03*
X399000D02*
D03*
X409000D02*
D03*
X419000D02*
D03*
X429000D02*
D03*
X439000D02*
D03*
X449000D02*
D03*
X459000D02*
D03*
X379000Y243500D02*
D03*
X389000D02*
D03*
X399000D02*
D03*
X409000D02*
D03*
X419000D02*
D03*
X429000D02*
D03*
X439000D02*
D03*
X449000D02*
D03*
X459000D02*
D03*
X274000Y214000D02*
D03*
X284000D02*
D03*
X294000D02*
D03*
X304000D02*
D03*
X314000D02*
D03*
X324000D02*
D03*
X334000D02*
D03*
X344000D02*
D03*
X264000Y244000D02*
D03*
X274000D02*
D03*
X284000D02*
D03*
X294000D02*
D03*
X304000D02*
D03*
X314000D02*
D03*
X324000D02*
D03*
X334000D02*
D03*
X344000D02*
D03*
X386000Y440500D02*
D03*
X376000D02*
D03*
X366000D02*
D03*
X356000D02*
D03*
X346000D02*
D03*
X336000D02*
D03*
X326000D02*
D03*
X316000D02*
D03*
X396000Y410500D02*
D03*
X386000D02*
D03*
X376000D02*
D03*
X366000D02*
D03*
X356000D02*
D03*
X346000D02*
D03*
X336000D02*
D03*
X326000D02*
D03*
X316000D02*
D03*
D19*
X460716Y193500D02*
D03*
X370216Y463000D02*
D03*
X338216Y192500D02*
D03*
X469433Y465500D02*
D03*
X235216Y192000D02*
D03*
D20*
X425283Y193500D02*
D03*
X334784Y463000D02*
D03*
X302783Y192500D02*
D03*
X434000Y465500D02*
D03*
X199784Y192000D02*
D03*
D21*
X248500Y290500D02*
D03*
Y300500D02*
D03*
Y310500D02*
D03*
Y320500D02*
D03*
Y330500D02*
D03*
Y340500D02*
D03*
Y350500D02*
D03*
Y360500D02*
D03*
Y370500D02*
D03*
Y380500D02*
D03*
X218500D02*
D03*
Y370500D02*
D03*
Y360500D02*
D03*
Y350500D02*
D03*
Y340500D02*
D03*
Y330500D02*
D03*
Y320500D02*
D03*
Y310500D02*
D03*
Y300500D02*
D03*
X292500Y301000D02*
D03*
Y311000D02*
D03*
Y321000D02*
D03*
Y331000D02*
D03*
Y341000D02*
D03*
Y351000D02*
D03*
Y361000D02*
D03*
Y371000D02*
D03*
Y381000D02*
D03*
X322500D02*
D03*
Y371000D02*
D03*
Y361000D02*
D03*
Y351000D02*
D03*
Y341000D02*
D03*
Y331000D02*
D03*
Y321000D02*
D03*
Y311000D02*
D03*
Y301000D02*
D03*
Y291000D02*
D03*
X363500Y300500D02*
D03*
Y310500D02*
D03*
Y320500D02*
D03*
Y330500D02*
D03*
Y340500D02*
D03*
Y350500D02*
D03*
Y360500D02*
D03*
Y370500D02*
D03*
Y380500D02*
D03*
X393500D02*
D03*
Y370500D02*
D03*
Y360500D02*
D03*
Y350500D02*
D03*
Y340500D02*
D03*
Y330500D02*
D03*
Y320500D02*
D03*
Y310500D02*
D03*
Y300500D02*
D03*
Y290500D02*
D03*
X183000Y290000D02*
D03*
Y300000D02*
D03*
Y310000D02*
D03*
Y320000D02*
D03*
Y330000D02*
D03*
Y340000D02*
D03*
Y350000D02*
D03*
Y360000D02*
D03*
Y370000D02*
D03*
Y380000D02*
D03*
X153000D02*
D03*
Y370000D02*
D03*
Y360000D02*
D03*
Y350000D02*
D03*
Y340000D02*
D03*
Y330000D02*
D03*
Y320000D02*
D03*
Y310000D02*
D03*
Y300000D02*
D03*
X479000Y290000D02*
D03*
Y300000D02*
D03*
Y310000D02*
D03*
Y320000D02*
D03*
Y330000D02*
D03*
Y340000D02*
D03*
Y350000D02*
D03*
Y360000D02*
D03*
Y370000D02*
D03*
Y380000D02*
D03*
X449000D02*
D03*
Y370000D02*
D03*
Y360000D02*
D03*
Y350000D02*
D03*
Y340000D02*
D03*
Y330000D02*
D03*
Y320000D02*
D03*
Y310000D02*
D03*
Y300000D02*
D03*
D22*
X218500Y290500D02*
D03*
X292500Y291000D02*
D03*
X363500Y290500D02*
D03*
X153000Y290000D02*
D03*
X449000D02*
D03*
D23*
X319000Y171500D02*
D03*
D24*
X309000D02*
D03*
X299000D02*
D03*
X289000D02*
D03*
X279000D02*
D03*
M02*
