G04*
G04 #@! TF.GenerationSoftware,Altium Limited,Altium Designer,25.2.1 (25)*
G04*
G04 Layer_Physical_Order=2*
G04 Layer_Color=16711680*
%FSLAX25Y25*%
%MOIN*%
G70*
G04*
G04 #@! TF.SameCoordinates,F99C0EAD-8B59-483C-989D-22E72BE8A830*
G04*
G04*
G04 #@! TF.FilePolarity,Positive*
G04*
G01*
G75*
%ADD13C,0.01000*%
%ADD25C,0.02000*%
%ADD26C,0.12598*%
%ADD27C,0.06693*%
%ADD28R,0.06693X0.06693*%
%ADD29R,0.05906X0.05906*%
%ADD30C,0.05906*%
%ADD31C,0.05315*%
%ADD32R,0.05315X0.05315*%
%ADD33C,0.05200*%
%ADD34R,0.05200X0.05200*%
%ADD35R,0.06102X0.06102*%
%ADD36C,0.06102*%
D13*
X183000Y290000D02*
X183100Y289900D01*
D25*
X221000Y216000D02*
X235953Y230953D01*
Y258805D01*
X213900Y280857D02*
X235953Y258805D01*
X213900Y280857D02*
Y382405D01*
X246947Y415453D01*
X360953D01*
X386000Y440500D01*
X178400Y288095D02*
X220495Y246000D01*
X178400Y288095D02*
Y295400D01*
X183000Y300000D01*
X220495Y246000D02*
X221000D01*
X195500Y261500D02*
X211000Y246000D01*
X183000Y290000D02*
X204932Y268068D01*
X208932D02*
X231000Y246000D01*
X204932Y268068D02*
X208932D01*
X326000Y410500D02*
X333500Y403000D01*
X374000Y255500D02*
X437000D01*
X376948Y248453D02*
X424047D01*
X371500Y252500D02*
X430000D01*
X341182Y273318D02*
X366500Y248000D01*
X373371Y260371D02*
X442129D01*
X376496Y248000D02*
X376948Y248453D01*
X366500Y248000D02*
X376496D01*
X424047Y248453D02*
X429000Y243500D01*
X346500Y277500D02*
X371500Y252500D01*
X349000Y280500D02*
X374000Y255500D01*
X430000Y252500D02*
X439000Y243500D01*
X437000Y255500D02*
X449000Y243500D01*
X350243Y283500D02*
X373371Y260371D01*
X442129D02*
X459000Y243500D01*
X338216Y192500D02*
X368000D01*
X389000Y213500D01*
X444047Y218453D02*
X449000Y213500D01*
X393953Y218453D02*
X444047D01*
X389000Y213500D02*
X393953Y218453D01*
X329047Y218953D02*
X334000Y214000D01*
X298953Y218953D02*
X329047D01*
X294000Y214000D02*
X298953Y218953D01*
X216047Y220953D02*
X221000Y216000D01*
X185953Y220953D02*
X216047D01*
X181000Y216000D02*
X185953Y220953D01*
X319000Y141500D02*
Y171500D01*
Y141500D02*
X323000Y137500D01*
X489828D01*
X491000Y138672D01*
Y147500D01*
X503000Y159500D01*
Y450328D01*
X501828Y451500D02*
X503000Y450328D01*
X469000Y451500D02*
X501828D01*
X457500Y440000D02*
X469000Y451500D01*
X309000Y137500D02*
Y171500D01*
X501743Y154000D02*
X508328D01*
X495000Y133172D02*
Y147257D01*
X501743Y154000D01*
X493828Y132000D02*
X495000Y133172D01*
X314500Y132000D02*
X493828D01*
X508328Y154000D02*
X509500Y155172D01*
Y482328D01*
X356000Y440500D02*
Y457528D01*
X354500Y459028D02*
X356000Y457528D01*
X354500Y459028D02*
Y475000D01*
X363000Y483500D01*
X508328D01*
X509500Y482328D01*
X309000Y137500D02*
X314500Y132000D01*
X474400Y334600D02*
X479000Y330000D01*
X447095Y334600D02*
X474400D01*
X446995Y334500D02*
X447095Y334600D01*
X423672Y334500D02*
X446995D01*
X422500Y335672D02*
X423672Y334500D01*
X422500Y335672D02*
Y375000D01*
X457500Y410000D01*
X417500Y380000D02*
X447500Y410000D01*
X417500Y325772D02*
Y380000D01*
Y325772D02*
X418672Y324600D01*
X460314D01*
X464914Y320000D01*
X479000D01*
X464914Y310000D02*
X479000D01*
X460314Y314600D02*
X464914Y310000D01*
X438379Y314600D02*
X460314D01*
X434607Y310828D02*
X438379Y314600D01*
X412672Y310828D02*
X434607D01*
X411500Y312000D02*
X412672Y310828D01*
X411500Y312000D02*
Y384000D01*
X437500Y410000D01*
X409672Y305000D02*
X474000D01*
X408500Y391000D02*
X427500Y410000D01*
X408500Y306172D02*
Y391000D01*
Y306172D02*
X409672Y305000D01*
X474000D02*
X479000Y300000D01*
X474400Y294600D02*
X479000Y290000D01*
X439403Y294600D02*
X474400D01*
X438303Y293500D02*
X439403Y294600D01*
X404172Y293500D02*
X438303D01*
X403000Y294672D02*
X404172Y293500D01*
X403000Y294672D02*
Y395500D01*
X417500Y410000D01*
X388100Y335900D02*
X393500Y330500D01*
X361595Y335900D02*
X388100D01*
X356000Y341495D02*
X361595Y335900D01*
X356000Y341495D02*
Y410500D01*
X346000Y410081D02*
Y410500D01*
X342000Y406081D02*
X346000Y410081D01*
X342000Y327500D02*
Y406081D01*
Y327500D02*
X344400Y325100D01*
X365405D01*
X370005Y320500D01*
X393500D01*
X388500Y315500D02*
X393500Y310500D01*
X338000Y315500D02*
X388500D01*
X336500Y317000D02*
X338000Y315500D01*
X336500Y317000D02*
Y410000D01*
X336000Y410500D02*
X336500Y410000D01*
X333500Y307272D02*
Y403000D01*
Y307272D02*
X335672Y305100D01*
X365405D01*
X370005Y300500D01*
X393500D01*
X388900Y295100D02*
X393500Y290500D01*
X360072Y295100D02*
X388900D01*
X358472Y293500D02*
X360072Y295100D01*
X331672Y293500D02*
X358472D01*
X330500Y294672D02*
X331672Y293500D01*
X330500Y294672D02*
Y396000D01*
X316000Y410500D02*
X330500Y396000D01*
X409000Y212443D02*
Y213500D01*
Y212443D02*
X411500Y209943D01*
Y150000D02*
Y209943D01*
X396500Y150000D02*
Y151270D01*
X399000Y153770D01*
Y213500D01*
X322500Y291000D02*
X330000Y283500D01*
X350243D01*
X320000Y280500D02*
X349000D01*
X313182Y273318D02*
X341182D01*
X316500Y277500D02*
X346500D01*
X314000Y286500D02*
X320000Y280500D01*
X314000Y286500D02*
Y298500D01*
X316500Y301000D01*
X322500D01*
X311172Y311000D02*
X322500D01*
X310000Y309828D02*
X311172Y311000D01*
X310000Y284000D02*
Y309828D01*
Y284000D02*
X316500Y277500D01*
X335182Y270318D02*
X369500Y236000D01*
X311683Y270318D02*
X335182D01*
X306500Y280000D02*
X313182Y273318D01*
X306500Y280000D02*
Y319828D01*
X307672Y321000D01*
X322500D01*
X411500Y236000D02*
X419000Y243500D01*
X369500Y236000D02*
X411500D01*
X303500Y278500D02*
X311683Y270318D01*
X303500Y278500D02*
Y327500D01*
X302828Y328172D02*
X303500Y327500D01*
X302828Y328172D02*
Y329828D01*
X304000Y331000D01*
X322500D01*
X320683Y267318D02*
X344000Y244000D01*
X308154Y267318D02*
X320683D01*
X284972Y290500D02*
X308154Y267318D01*
X248500Y290500D02*
X284972D01*
X243900Y295900D02*
X248500Y300500D01*
X243900Y288595D02*
Y295900D01*
Y288595D02*
X249200Y283295D01*
Y267800D02*
Y283295D01*
Y267800D02*
X254500Y262500D01*
X315500D01*
X334000Y244000D01*
X240900Y287352D02*
X243900Y284352D01*
X240900Y287352D02*
Y297143D01*
X243900Y300143D01*
Y268100D02*
Y284352D01*
Y300143D02*
Y305900D01*
X248500Y310500D01*
X243900Y268100D02*
X253000Y259000D01*
X229000Y270000D02*
Y326500D01*
X232500Y274000D02*
Y319078D01*
X309000Y259000D02*
X324000Y244000D01*
X253000Y259000D02*
X309000D01*
X251500Y255000D02*
X303571D01*
X304000Y244000D02*
Y250328D01*
X247500Y251500D02*
X302828D01*
X304000Y250328D01*
X303571Y255000D02*
X314000Y244571D01*
X233922Y320500D02*
X248500D01*
X232500Y319078D02*
X233922Y320500D01*
X232500Y274000D02*
X251500Y255000D01*
X314000Y244000D02*
Y244571D01*
X229000Y270000D02*
X247500Y251500D01*
X229000Y326500D02*
X233000Y330500D01*
X248500D01*
X181000Y261500D02*
X195500D01*
X171500Y271000D02*
X181000Y261500D01*
X171500Y271000D02*
Y298500D01*
X183000Y310000D01*
X188500Y258500D02*
X201000Y246000D01*
X174172Y258500D02*
X188500D01*
X162672Y255500D02*
X181500D01*
X191000Y246000D01*
X166500Y266172D02*
X174172Y258500D01*
X166500Y266172D02*
Y303500D01*
X183000Y320000D01*
X182500Y330500D02*
X183000Y330000D01*
X162672Y330500D02*
X182500D01*
X161500Y329328D02*
X162672Y330500D01*
X161500Y256672D02*
Y329328D01*
Y256672D02*
X162672Y255500D01*
X146047Y240953D02*
X171000Y216000D01*
X146047Y240953D02*
Y262698D01*
X153000Y269651D01*
Y290000D01*
X146500Y211500D02*
X151000Y216000D01*
X146500Y209000D02*
Y211500D01*
X145328Y207828D02*
X146500Y209000D01*
X143672Y207828D02*
X145328D01*
X134000Y217500D02*
X143672Y207828D01*
X134000Y217500D02*
Y357505D01*
X151895Y375400D01*
X178400D01*
X183000Y380000D01*
D26*
X498000Y471000D02*
D03*
X139000Y470500D02*
D03*
X506500Y139000D02*
D03*
X138000D02*
D03*
D27*
X396500Y150000D02*
D03*
D28*
X411500D02*
D03*
D29*
X497500Y440000D02*
D03*
X151000Y216000D02*
D03*
X379000Y213500D02*
D03*
X264000Y214000D02*
D03*
X396000Y440500D02*
D03*
D30*
X487500Y440000D02*
D03*
X477500D02*
D03*
X467500D02*
D03*
X457500D02*
D03*
X447500D02*
D03*
X437500D02*
D03*
X427500D02*
D03*
X417500D02*
D03*
X497500Y410000D02*
D03*
X487500D02*
D03*
X477500D02*
D03*
X467500D02*
D03*
X457500D02*
D03*
X447500D02*
D03*
X437500D02*
D03*
X427500D02*
D03*
X417500D02*
D03*
X231000Y246000D02*
D03*
X221000D02*
D03*
X211000D02*
D03*
X201000D02*
D03*
X191000D02*
D03*
X181000D02*
D03*
X171000D02*
D03*
X161000D02*
D03*
X151000D02*
D03*
X231000Y216000D02*
D03*
X221000D02*
D03*
X211000D02*
D03*
X201000D02*
D03*
X191000D02*
D03*
X181000D02*
D03*
X171000D02*
D03*
X161000D02*
D03*
X389000Y213500D02*
D03*
X399000D02*
D03*
X409000D02*
D03*
X419000D02*
D03*
X429000D02*
D03*
X439000D02*
D03*
X449000D02*
D03*
X459000D02*
D03*
X379000Y243500D02*
D03*
X389000D02*
D03*
X399000D02*
D03*
X409000D02*
D03*
X419000D02*
D03*
X429000D02*
D03*
X439000D02*
D03*
X449000D02*
D03*
X459000D02*
D03*
X274000Y214000D02*
D03*
X284000D02*
D03*
X294000D02*
D03*
X304000D02*
D03*
X314000D02*
D03*
X324000D02*
D03*
X334000D02*
D03*
X344000D02*
D03*
X264000Y244000D02*
D03*
X274000D02*
D03*
X284000D02*
D03*
X294000D02*
D03*
X304000D02*
D03*
X314000D02*
D03*
X324000D02*
D03*
X334000D02*
D03*
X344000D02*
D03*
X386000Y440500D02*
D03*
X376000D02*
D03*
X366000D02*
D03*
X356000D02*
D03*
X346000D02*
D03*
X336000D02*
D03*
X326000D02*
D03*
X316000D02*
D03*
X396000Y410500D02*
D03*
X386000D02*
D03*
X376000D02*
D03*
X366000D02*
D03*
X356000D02*
D03*
X346000D02*
D03*
X336000D02*
D03*
X326000D02*
D03*
X316000D02*
D03*
D31*
X460716Y193500D02*
D03*
X370216Y463000D02*
D03*
X338216Y192500D02*
D03*
X469433Y465500D02*
D03*
X235216Y192000D02*
D03*
D32*
X425283Y193500D02*
D03*
X334784Y463000D02*
D03*
X302783Y192500D02*
D03*
X434000Y465500D02*
D03*
X199784Y192000D02*
D03*
D33*
X248500Y290500D02*
D03*
Y300500D02*
D03*
Y310500D02*
D03*
Y320500D02*
D03*
Y330500D02*
D03*
Y340500D02*
D03*
Y350500D02*
D03*
Y360500D02*
D03*
Y370500D02*
D03*
Y380500D02*
D03*
X218500D02*
D03*
Y370500D02*
D03*
Y360500D02*
D03*
Y350500D02*
D03*
Y340500D02*
D03*
Y330500D02*
D03*
Y320500D02*
D03*
Y310500D02*
D03*
Y300500D02*
D03*
X292500Y301000D02*
D03*
Y311000D02*
D03*
Y321000D02*
D03*
Y331000D02*
D03*
Y341000D02*
D03*
Y351000D02*
D03*
Y361000D02*
D03*
Y371000D02*
D03*
Y381000D02*
D03*
X322500D02*
D03*
Y371000D02*
D03*
Y361000D02*
D03*
Y351000D02*
D03*
Y341000D02*
D03*
Y331000D02*
D03*
Y321000D02*
D03*
Y311000D02*
D03*
Y301000D02*
D03*
Y291000D02*
D03*
X363500Y300500D02*
D03*
Y310500D02*
D03*
Y320500D02*
D03*
Y330500D02*
D03*
Y340500D02*
D03*
Y350500D02*
D03*
Y360500D02*
D03*
Y370500D02*
D03*
Y380500D02*
D03*
X393500D02*
D03*
Y370500D02*
D03*
Y360500D02*
D03*
Y350500D02*
D03*
Y340500D02*
D03*
Y330500D02*
D03*
Y320500D02*
D03*
Y310500D02*
D03*
Y300500D02*
D03*
Y290500D02*
D03*
X183000Y290000D02*
D03*
Y300000D02*
D03*
Y310000D02*
D03*
Y320000D02*
D03*
Y330000D02*
D03*
Y340000D02*
D03*
Y350000D02*
D03*
Y360000D02*
D03*
Y370000D02*
D03*
Y380000D02*
D03*
X153000D02*
D03*
Y370000D02*
D03*
Y360000D02*
D03*
Y350000D02*
D03*
Y340000D02*
D03*
Y330000D02*
D03*
Y320000D02*
D03*
Y310000D02*
D03*
Y300000D02*
D03*
X479000Y290000D02*
D03*
Y300000D02*
D03*
Y310000D02*
D03*
Y320000D02*
D03*
Y330000D02*
D03*
Y340000D02*
D03*
Y350000D02*
D03*
Y360000D02*
D03*
Y370000D02*
D03*
Y380000D02*
D03*
X449000D02*
D03*
Y370000D02*
D03*
Y360000D02*
D03*
Y350000D02*
D03*
Y340000D02*
D03*
Y330000D02*
D03*
Y320000D02*
D03*
Y310000D02*
D03*
Y300000D02*
D03*
D34*
X218500Y290500D02*
D03*
X292500Y291000D02*
D03*
X363500Y290500D02*
D03*
X153000Y290000D02*
D03*
X449000D02*
D03*
D35*
X319000Y171500D02*
D03*
D36*
X309000D02*
D03*
X299000D02*
D03*
X289000D02*
D03*
X279000D02*
D03*
M02*
