G04*
G04 #@! TF.GenerationSoftware,Altium Limited,Altium Designer,25.2.1 (25)*
G04*
G04 Layer_Color=32896*
%FSLAX25Y25*%
%MOIN*%
G70*
G04*
G04 #@! TF.SameCoordinates,F99C0EAD-8B59-483C-989D-22E72BE8A830*
G04*
G04*
G04 #@! TF.FilePolarity,Positive*
G04*
G01*
G75*
%ADD13C,0.01000*%
%ADD37C,0.00000*%
%ADD38C,0.00600*%
D13*
X484900Y395398D02*
Y389400D01*
X481901D01*
X480901Y390400D01*
Y394398D01*
X481901Y395398D01*
X484900D01*
X474903D02*
X478902D01*
Y392399D01*
X476903Y393399D01*
X475903D01*
X474903Y392399D01*
Y390400D01*
X475903Y389400D01*
X477902D01*
X478902Y390400D01*
X399400Y395898D02*
Y389900D01*
X396401D01*
X395401Y390900D01*
Y394898D01*
X396401Y395898D01*
X399400D01*
X390403Y389900D02*
Y395898D01*
X393402Y392899D01*
X389403D01*
X328400Y396398D02*
Y390400D01*
X325401D01*
X324401Y391400D01*
Y395398D01*
X325401Y396398D01*
X328400D01*
X322402Y395398D02*
X321402Y396398D01*
X319403D01*
X318403Y395398D01*
Y394399D01*
X319403Y393399D01*
X320403D01*
X319403D01*
X318403Y392399D01*
Y391400D01*
X319403Y390400D01*
X321402D01*
X322402Y391400D01*
X254400Y395898D02*
Y389900D01*
X251401D01*
X250401Y390900D01*
Y394898D01*
X251401Y395898D01*
X254400D01*
X244403Y389900D02*
X248402D01*
X244403Y393899D01*
Y394898D01*
X245403Y395898D01*
X247402D01*
X248402Y394898D01*
X188900Y395398D02*
Y389400D01*
X185901D01*
X184901Y390400D01*
Y394398D01*
X185901Y395398D01*
X188900D01*
X182902Y389400D02*
X180903D01*
X181902D01*
Y395398D01*
X182902Y394398D01*
D37*
X211378Y287862D02*
G03*
X211378Y287862I-1500J0D01*
G01*
X285378Y288362D02*
G03*
X285378Y288362I-1500J0D01*
G01*
X356378Y287862D02*
G03*
X356378Y287862I-1500J0D01*
G01*
X145878Y287362D02*
G03*
X145878Y287362I-1500J0D01*
G01*
X441878D02*
G03*
X441878Y287362I-1500J0D01*
G01*
D38*
X213500Y288000D02*
Y385500D01*
Y288000D02*
X216000Y285500D01*
X213500Y385500D02*
X253500D01*
Y285500D02*
Y385500D01*
X216000Y285500D02*
X253500D01*
X290000Y286000D02*
X327500D01*
Y386000D01*
X287500D02*
X327500D01*
X287500Y288500D02*
X290000Y286000D01*
X287500Y288500D02*
Y386000D01*
X361000Y285500D02*
X398500D01*
Y385500D01*
X358500D02*
X398500D01*
X358500Y288000D02*
X361000Y285500D01*
X358500Y288000D02*
Y385500D01*
X148000Y287500D02*
Y385000D01*
Y287500D02*
X150500Y285000D01*
X148000Y385000D02*
X188000D01*
Y285000D02*
Y385000D01*
X150500Y285000D02*
X188000D01*
X444000Y287500D02*
Y385000D01*
Y287500D02*
X446500Y285000D01*
X444000Y385000D02*
X484000D01*
Y285000D02*
Y385000D01*
X446500Y285000D02*
X484000D01*
M02*
