M48
;Layer_Color=9474304
;FILE_FORMAT=2:4
INCH,TZ
;TYPE=PLATED
T01F00S00C0.0315
T02F00S00C0.0335
T03F00S00C0.0354
T04F00S00C0.0402
T05F00S00C0.0472
T06F00S00C0.0551
T07F00S00C0.0650
;TYPE=NON_PLATED
T08F00S00C0.1260
%
T01
X34424Y19650
X37376
X33000Y23097
Y26050
X31700Y30324
X42500Y30424
X42150Y25826
Y22874
X27326Y20550
X24374
X15668Y21650
X16200Y24532
Y28468
X11500Y30331
X11731Y21650
X11500Y34269
X13132Y39750
X17069
X24124Y37750
X27076
X34524Y37600
X37476
X42500Y33376
X31700Y33276
T02
X39750Y14778
Y18322
X40878Y20450
X39822Y22100
X39700Y24878
X37750Y23528
X35450Y23428
X36278Y22100
X35450Y26972
X37750Y27072
X39700Y28422
X34950Y29928
X44422Y20450
X30000Y19372
Y15828
X30672Y22700
X30600Y24828
X28700Y25178
Y28722
X30600Y28372
X25250Y26472
X23400Y26400
X21100Y26457
X19000Y26428
Y29972
X21100Y30000
X24350Y30078
X25250Y22928
X23400Y22857
X27128Y22700
X19750Y19472
Y15928
X14172Y27350
X10628
X18628Y32550
X18428Y35850
X21972
X22172Y32550
X24350Y33622
X31300Y34978
Y38522
X39050Y38272
Y34728
X34950Y33472
T03
X22700Y15400
X23700
X24700
X25700
X44500Y15350
Y14350
X47500
Y15350
Y16350
Y17350
X44500
Y16350
X39750Y30150
Y31150
X36750
Y30150
X29350Y30900
X26350
X17150Y30950
X22700Y18400
X23700
X24700
X25700
X14150Y30950
Y31950
Y32950
Y33950
X17150
Y32950
Y31950
X26350Y31900
Y32900
Y33900
X29350
Y32900
Y31900
X36750Y32150
Y33150
X39750
Y32150
T04
X41650Y42850
X42650
X43650
X44650
T05
X25150Y41800
X26650
T06
X13500Y13800
X16000
X18500
X24850Y13750
X27350
X29850
X36150
X38650
X41150
T07
X31291Y42750
X32850
X34409
T08
X11100Y12400
X47750Y12200
X11150Y44100
X47450Y44300
M30
