G04*
G04 #@! TF.GenerationSoftware,Altium Limited,Altium Designer,25.2.1 (25)*
G04*
G04 Layer_Color=16711935*
%FSLAX25Y25*%
%MOIN*%
G70*
G04*
G04 #@! TF.SameCoordinates,6179F1C6-3400-403E-8A66-77286E143B23*
G04*
G04*
G04 #@! TF.FilePolarity,Negative*
G04*
G01*
G75*
%ADD14C,0.13398*%
%ADD15R,0.06115X0.06115*%
%ADD16C,0.06115*%
%ADD17R,0.06706X0.06706*%
%ADD18C,0.06706*%
%ADD19C,0.05118*%
%ADD20R,0.05118X0.05118*%
%ADD21R,0.06115X0.06115*%
%ADD22R,0.05118X0.05118*%
%ADD23R,0.06706X0.06706*%
%ADD24C,0.07493*%
%ADD25R,0.07493X0.07493*%
%ADD26R,0.06902X0.06902*%
%ADD27C,0.06902*%
%ADD28C,0.09265*%
%ADD29R,0.09265X0.09265*%
%ADD30C,0.08280*%
%ADD31R,0.08280X0.08280*%
D14*
X111500Y441000D02*
D03*
X474500Y443000D02*
D03*
X111000Y124000D02*
D03*
X477500Y122000D02*
D03*
D15*
X377500Y235283D02*
D03*
X197500Y159283D02*
D03*
X211000Y300000D02*
D03*
X234000Y228567D02*
D03*
X252500Y229283D02*
D03*
X243500Y336216D02*
D03*
X300000Y158283D02*
D03*
X287000Y287216D02*
D03*
X313000Y349783D02*
D03*
X190000Y264283D02*
D03*
X306000Y248284D02*
D03*
X397000Y248783D02*
D03*
X390500Y347284D02*
D03*
X397500Y147784D02*
D03*
X349500Y334717D02*
D03*
X354500Y234283D02*
D03*
D16*
X377500Y270717D02*
D03*
X141717Y273500D02*
D03*
X184283Y358500D02*
D03*
X186284Y325500D02*
D03*
X197500Y194717D02*
D03*
X211000Y264567D02*
D03*
X234000Y264000D02*
D03*
X252500Y264717D02*
D03*
X243500Y300783D02*
D03*
X300000Y193717D02*
D03*
X271284Y227000D02*
D03*
X287000Y251783D02*
D03*
X313000Y385216D02*
D03*
X190000Y299716D02*
D03*
X306000Y283717D02*
D03*
X397000Y284216D02*
D03*
X390500Y382716D02*
D03*
X408783Y204500D02*
D03*
X362784Y221000D02*
D03*
X397500Y183217D02*
D03*
X349500Y299284D02*
D03*
X354500Y269717D02*
D03*
D17*
X445000Y173500D02*
D03*
X141500Y339500D02*
D03*
X263500Y339000D02*
D03*
X367500Y331500D02*
D03*
D18*
X445000Y163500D02*
D03*
Y153500D02*
D03*
Y143500D02*
D03*
X475000Y173500D02*
D03*
Y163500D02*
D03*
Y153500D02*
D03*
Y143500D02*
D03*
X247000Y184000D02*
D03*
X237000D02*
D03*
X227000D02*
D03*
X257000Y154000D02*
D03*
X247000D02*
D03*
X237000D02*
D03*
X227000D02*
D03*
X141500Y329500D02*
D03*
Y319500D02*
D03*
Y309500D02*
D03*
X171500Y339500D02*
D03*
Y329500D02*
D03*
Y319500D02*
D03*
Y309500D02*
D03*
X263500Y329000D02*
D03*
Y319000D02*
D03*
Y309000D02*
D03*
X293500Y339000D02*
D03*
Y329000D02*
D03*
Y319000D02*
D03*
Y309000D02*
D03*
X367500Y321500D02*
D03*
Y311500D02*
D03*
Y301500D02*
D03*
X397500Y331500D02*
D03*
Y321500D02*
D03*
Y311500D02*
D03*
Y301500D02*
D03*
D19*
X162000Y284685D02*
D03*
X156685Y216500D02*
D03*
X115000Y342685D02*
D03*
X170685Y397500D02*
D03*
X421500Y228736D02*
D03*
X373764Y196500D02*
D03*
X270764Y377500D02*
D03*
X317000Y332764D02*
D03*
X330000Y230972D02*
D03*
X273264Y205500D02*
D03*
X425000Y333764D02*
D03*
X374764Y376000D02*
D03*
D20*
X162000Y245315D02*
D03*
X115000Y303315D02*
D03*
X421500Y258264D02*
D03*
X317000Y303236D02*
D03*
X330000Y260500D02*
D03*
X425000Y304236D02*
D03*
D21*
X106283Y273500D02*
D03*
X219717Y358500D02*
D03*
X221716Y325500D02*
D03*
X306716Y227000D02*
D03*
X444216Y204500D02*
D03*
X398217Y221000D02*
D03*
D22*
X117315Y216500D02*
D03*
X131315Y397500D02*
D03*
X344236Y196500D02*
D03*
X241236Y377500D02*
D03*
X243736Y205500D02*
D03*
X345236Y376000D02*
D03*
D23*
X257000Y184000D02*
D03*
D24*
X251500Y418000D02*
D03*
D25*
X266500D02*
D03*
D26*
X416500Y428500D02*
D03*
D27*
X426500D02*
D03*
X436500D02*
D03*
X446500D02*
D03*
D28*
X312910Y427500D02*
D03*
X328500D02*
D03*
D29*
X344091D02*
D03*
D30*
X160000Y138000D02*
D03*
X185000D02*
D03*
X273500Y137500D02*
D03*
X298500D02*
D03*
X386500D02*
D03*
X411500D02*
D03*
D31*
X135000Y138000D02*
D03*
X248500Y137500D02*
D03*
X361500D02*
D03*
M02*
