G04*
G04 #@! TF.GenerationSoftware,Altium Limited,Altium Designer,25.2.1 (25)*
G04*
G04 Layer_Color=32768*
%FSLAX25Y25*%
%MOIN*%
G70*
G04*
G04 #@! TF.SameCoordinates,6179F1C6-3400-403E-8A66-77286E143B23*
G04*
G04*
G04 #@! TF.FilePolarity,Positive*
G04*
G01*
G75*
%ADD10C,0.00787*%
%ADD48C,0.00394*%
%ADD49C,0.00197*%
D10*
X151764Y242362D02*
X172236D01*
Y287638D01*
X151764D02*
X172236D01*
X151764Y242362D02*
Y287638D01*
X114362Y206264D02*
Y226736D01*
Y206264D02*
X159638D01*
Y226736D01*
X114362D02*
X159638D01*
X104764Y300362D02*
X125236D01*
Y345638D01*
X104764D02*
X125236D01*
X104764Y300362D02*
Y345638D01*
X128362Y387264D02*
Y407736D01*
Y387264D02*
X173638D01*
Y407736D01*
X128362D02*
X173638D01*
X411264Y261216D02*
X431736D01*
X411264Y225783D02*
Y261216D01*
Y225783D02*
X431736D01*
Y261216D01*
X341283Y186264D02*
Y206736D01*
Y186264D02*
X376716D01*
Y206736D01*
X341283D02*
X376716D01*
X238283Y367264D02*
Y387736D01*
Y367264D02*
X273716D01*
Y387736D01*
X238283D02*
X273716D01*
X306764Y300284D02*
X327236D01*
Y335717D01*
X306764D02*
X327236D01*
X306764Y300284D02*
Y335717D01*
X319764Y263453D02*
X340236D01*
X319764Y228020D02*
Y263453D01*
Y228020D02*
X340236D01*
Y263453D01*
X240784Y195264D02*
Y215736D01*
Y195264D02*
X276217D01*
Y215736D01*
X240784D02*
X276217D01*
X414764Y301284D02*
X435236D01*
Y336717D01*
X414764D02*
X435236D01*
X414764Y301284D02*
Y336717D01*
X342284Y365764D02*
Y386236D01*
Y365764D02*
X377716D01*
Y386236D01*
X342284D02*
X377716D01*
D48*
X375532Y253000D02*
X379468D01*
X377500Y251031D02*
Y254969D01*
X458032Y158500D02*
X461969D01*
X460000Y156532D02*
Y160468D01*
X124000Y271532D02*
Y275468D01*
X122031Y273500D02*
X125969D01*
X202000Y356532D02*
Y360469D01*
X200031Y358500D02*
X203969D01*
X204000Y323532D02*
Y327468D01*
X202031Y325500D02*
X205968D01*
X195531Y177000D02*
X199469D01*
X197500Y175031D02*
Y178969D01*
X209032Y282283D02*
X212968D01*
X211000Y280315D02*
Y284252D01*
X242000Y167032D02*
Y170968D01*
X240032Y169000D02*
X243969D01*
X154532Y324500D02*
X158468D01*
X156500Y322532D02*
Y326468D01*
X232031Y246284D02*
X235968D01*
X234000Y244315D02*
Y248252D01*
X259000Y416032D02*
Y419969D01*
X257031Y418000D02*
X260968D01*
X250532Y247000D02*
X254468D01*
X252500Y245031D02*
Y248969D01*
X276532Y324000D02*
X280469D01*
X278500Y322031D02*
Y325969D01*
X241531Y318500D02*
X245468D01*
X243500Y316531D02*
Y320468D01*
X298031Y176000D02*
X301969D01*
X300000Y174031D02*
Y177969D01*
X289000Y225031D02*
Y228969D01*
X287032Y227000D02*
X290968D01*
X285032Y269500D02*
X288968D01*
X287000Y267531D02*
Y271468D01*
X311032Y367500D02*
X314968D01*
X313000Y365531D02*
Y369468D01*
X188031Y282000D02*
X191969D01*
X190000Y280031D02*
Y283968D01*
X304031Y266000D02*
X307968D01*
X306000Y264032D02*
Y267969D01*
X328500Y430453D02*
Y434390D01*
X326532Y432421D02*
X330469D01*
X158031Y138000D02*
X161969D01*
X160000Y136031D02*
Y139969D01*
X271532Y137500D02*
X275468D01*
X273500Y135531D02*
Y139469D01*
X395031Y266500D02*
X398969D01*
X397000Y264531D02*
Y268468D01*
X384531Y137500D02*
X388469D01*
X386500Y135531D02*
Y139469D01*
X388531Y365000D02*
X392469D01*
X390500Y363032D02*
Y366968D01*
X380532Y316500D02*
X384469D01*
X382500Y314531D02*
Y318468D01*
X426500Y202532D02*
Y206469D01*
X424532Y204500D02*
X428469D01*
X380500Y219032D02*
Y222969D01*
X378532Y221000D02*
X382469D01*
X395532Y165500D02*
X399468D01*
X397500Y163531D02*
Y167469D01*
X347532Y317000D02*
X351468D01*
X349500Y315032D02*
Y318969D01*
X352532Y252000D02*
X356469D01*
X354500Y250031D02*
Y253969D01*
D49*
X372382Y273768D02*
X382618D01*
X372382Y232232D02*
Y273768D01*
X382618Y232232D02*
Y273768D01*
X372382Y232232D02*
X382618D01*
X440906Y137437D02*
Y179563D01*
X479095Y137437D02*
Y179563D01*
X440906D02*
X479095D01*
X440906Y137437D02*
X479095D01*
X144768Y268382D02*
Y278618D01*
X103232D02*
X144768D01*
X103232Y268382D02*
X144768D01*
X103232D02*
Y278618D01*
X181232Y353382D02*
Y363618D01*
Y353382D02*
X222768D01*
X181232Y363618D02*
X222768D01*
Y353382D02*
Y363618D01*
X183232Y320382D02*
Y330618D01*
Y320382D02*
X224768D01*
X183232Y330618D02*
X224768D01*
Y320382D02*
Y330618D01*
X192382Y197768D02*
X202618D01*
X192382Y156232D02*
Y197768D01*
X202618Y156232D02*
Y197768D01*
X192382Y156232D02*
X202618D01*
X205882Y261516D02*
X216118D01*
Y303051D01*
X205882Y261516D02*
Y303051D01*
X216118D01*
X220937Y188094D02*
X263063D01*
X220937Y149906D02*
X263063D01*
Y188094D01*
X220937Y149906D02*
Y188094D01*
X137406Y303437D02*
Y345563D01*
X175594Y303437D02*
Y345563D01*
X137406D02*
X175594D01*
X137406Y303437D02*
X175594D01*
X228882Y267051D02*
X239118D01*
X228882Y225516D02*
Y267051D01*
X239118Y225516D02*
Y267051D01*
X228882Y225516D02*
X239118D01*
X277130Y412685D02*
Y449890D01*
X240870D02*
X277130D01*
X240870Y412685D02*
X277130D01*
X240870D02*
Y449890D01*
X247382Y267768D02*
X257618D01*
X247382Y226232D02*
Y267768D01*
X257618Y226232D02*
Y267768D01*
X247382Y226232D02*
X257618D01*
X259405Y302937D02*
Y345063D01*
X297594Y302937D02*
Y345063D01*
X259405D02*
X297594D01*
X259405Y302937D02*
X297594D01*
X238382Y297732D02*
X248618D01*
Y339268D01*
X238382Y297732D02*
Y339268D01*
X248618D01*
X294882Y196768D02*
X305118D01*
X294882Y155232D02*
Y196768D01*
X305118Y155232D02*
Y196768D01*
X294882Y155232D02*
X305118D01*
X268232Y221882D02*
Y232118D01*
Y221882D02*
X309768D01*
X268232Y232118D02*
X309768D01*
Y221882D02*
Y232118D01*
X281882Y248732D02*
X292118D01*
Y290268D01*
X281882Y248732D02*
Y290268D01*
X292118D01*
X307882Y388268D02*
X318118D01*
X307882Y346732D02*
Y388268D01*
X318118Y346732D02*
Y388268D01*
X307882Y346732D02*
X318118D01*
X184882Y302768D02*
X195118D01*
X184882Y261232D02*
Y302768D01*
X195118Y261232D02*
Y302768D01*
X184882Y261232D02*
X195118D01*
X300882Y286768D02*
X311118D01*
X300882Y245232D02*
Y286768D01*
X311118Y245232D02*
Y286768D01*
X300882Y245232D02*
X311118D01*
X453134Y422732D02*
Y434268D01*
X409866Y422732D02*
Y434268D01*
Y422732D02*
X453134D01*
X409866Y434268D02*
X453134D01*
X304839Y411752D02*
Y446004D01*
X352161D01*
Y411752D02*
Y446004D01*
X304839Y411752D02*
X352161D01*
X122106Y62370D02*
Y142134D01*
X197894D01*
X122106Y62370D02*
X197894D01*
Y142134D01*
X235606Y61870D02*
Y141634D01*
X311394D01*
X235606Y61870D02*
X311394D01*
Y141634D01*
X391882Y287268D02*
X402118D01*
X391882Y245732D02*
Y287268D01*
X402118Y245732D02*
Y287268D01*
X391882Y245732D02*
X402118D01*
X348606Y61870D02*
Y141634D01*
X424394D01*
X348606Y61870D02*
X424394D01*
Y141634D01*
X385382Y385768D02*
X395618D01*
X385382Y344232D02*
Y385768D01*
X395618Y344232D02*
Y385768D01*
X385382Y344232D02*
X395618D01*
X363405Y295437D02*
Y337563D01*
X401594Y295437D02*
Y337563D01*
X363405D02*
X401594D01*
X363405Y295437D02*
X401594D01*
X405732Y199382D02*
Y209618D01*
Y199382D02*
X447268D01*
X405732Y209618D02*
X447268D01*
Y199382D02*
Y209618D01*
X359732Y215882D02*
Y226118D01*
Y215882D02*
X401268D01*
X359732Y226118D02*
X401268D01*
Y215882D02*
Y226118D01*
X392382Y186268D02*
X402618D01*
X392382Y144732D02*
Y186268D01*
X402618Y144732D02*
Y186268D01*
X392382Y144732D02*
X402618D01*
X344382Y296232D02*
X354618D01*
Y337768D01*
X344382Y296232D02*
Y337768D01*
X354618D01*
X349382Y272768D02*
X359618D01*
X349382Y231232D02*
Y272768D01*
X359618Y231232D02*
Y272768D01*
X349382Y231232D02*
X359618D01*
M02*
