G04*
G04 #@! TF.GenerationSoftware,Altium Limited,Altium Designer,25.2.1 (25)*
G04*
G04 Layer_Color=16711935*
%FSLAX25Y25*%
%MOIN*%
G70*
G04*
G04 #@! TF.SameCoordinates,6179F1C6-3400-403E-8A66-77286E143B23*
G04*
G04*
G04 #@! TF.FilePolarity,Positive*
G04*
G01*
G75*
%ADD10C,0.00787*%
%ADD48C,0.00394*%
D10*
X152157Y247284D02*
X171843D01*
Y282716D01*
X152157D02*
X171843D01*
X152157Y247284D02*
Y282716D01*
X119283Y206658D02*
Y226343D01*
Y206658D02*
X154717D01*
Y226343D01*
X119283D02*
X154717D01*
X105157Y305283D02*
X124843D01*
Y340717D01*
X105157D02*
X124843D01*
X105157Y305283D02*
Y340717D01*
X133283Y387657D02*
Y407342D01*
Y387657D02*
X168717D01*
Y407342D01*
X133283D02*
X168717D01*
X411657Y258264D02*
X431343D01*
X411657Y228736D02*
Y258264D01*
Y228736D02*
X431343D01*
Y258264D01*
X344236Y186658D02*
Y206343D01*
Y186658D02*
X373764D01*
Y206343D01*
X344236D02*
X373764D01*
X241236Y367657D02*
Y387343D01*
Y367657D02*
X270764D01*
Y387343D01*
X241236D02*
X270764D01*
X307157Y303236D02*
X326842D01*
Y332764D01*
X307157D02*
X326842D01*
X307157Y303236D02*
Y332764D01*
X320158Y260500D02*
X339843D01*
X320158Y230972D02*
Y260500D01*
Y230972D02*
X339843D01*
Y260500D01*
X243736Y195658D02*
Y215342D01*
Y195658D02*
X273264D01*
Y215342D01*
X243736D02*
X273264D01*
X415158Y304236D02*
X434842D01*
Y333764D01*
X415158D02*
X434842D01*
X415158Y304236D02*
Y333764D01*
X345236Y366158D02*
Y385842D01*
Y366158D02*
X374764D01*
Y385842D01*
X345236D02*
X374764D01*
D48*
X452520Y174937D02*
G03*
X452520Y174937I-1969J0D01*
G01*
X260405Y178449D02*
G03*
X260405Y178449I-1969J0D01*
G01*
X149020Y340937D02*
G03*
X149020Y340937I-1969J0D01*
G01*
X271020Y340437D02*
G03*
X271020Y340437I-1969J0D01*
G01*
X375020Y332937D02*
G03*
X375020Y332937I-1969J0D01*
G01*
X372776Y240598D02*
X382224D01*
X372776D02*
Y265402D01*
X382224Y240598D02*
Y265402D01*
X372776D02*
X382224D01*
X447008Y138520D02*
Y178480D01*
X472992Y138520D02*
Y178480D01*
X447008D02*
X472992D01*
X447008Y138520D02*
X472992D01*
X111598Y268776D02*
Y278224D01*
X136402D01*
X111598Y268776D02*
X136402D01*
Y278224D01*
X214402Y353776D02*
Y363224D01*
X189598Y353776D02*
X214402D01*
X189598Y363224D02*
X214402D01*
X189598Y353776D02*
Y363224D01*
X216402Y320776D02*
Y330224D01*
X191598Y320776D02*
X216402D01*
X191598Y330224D02*
X216402D01*
X191598Y320776D02*
Y330224D01*
X192776Y164598D02*
X202224D01*
X192776D02*
Y189402D01*
X202224Y164598D02*
Y189402D01*
X192776D02*
X202224D01*
X206276Y294685D02*
X215724D01*
Y269882D02*
Y294685D01*
X206276Y269882D02*
Y294685D01*
Y269882D02*
X215724D01*
X222020Y181992D02*
X261980D01*
X222020Y156008D02*
X261980D01*
Y181992D01*
X222020Y156008D02*
Y181992D01*
X143508Y304520D02*
Y344480D01*
X169492Y304520D02*
Y344480D01*
X143508D02*
X169492D01*
X143508Y304520D02*
X169492D01*
X229276Y233882D02*
X238724D01*
X229276D02*
Y258685D01*
X238724Y233882D02*
Y258685D01*
X229276D02*
X238724D01*
X241264Y413276D02*
Y449496D01*
X276736D01*
Y413276D02*
Y449496D01*
X241264Y413276D02*
X276736D01*
X247776Y234598D02*
X257224D01*
X247776D02*
Y259402D01*
X257224Y234598D02*
Y259402D01*
X247776D02*
X257224D01*
X265508Y304020D02*
Y343980D01*
X291492Y304020D02*
Y343980D01*
X265508D02*
X291492D01*
X265508Y304020D02*
X291492D01*
X238776Y330902D02*
X248224D01*
Y306098D02*
Y330902D01*
X238776Y306098D02*
Y330902D01*
Y306098D02*
X248224D01*
X295276Y163598D02*
X304724D01*
X295276D02*
Y188402D01*
X304724Y163598D02*
Y188402D01*
X295276D02*
X304724D01*
X301402Y222276D02*
Y231724D01*
X276598Y222276D02*
X301402D01*
X276598Y231724D02*
X301402D01*
X276598Y222276D02*
Y231724D01*
X282276Y281902D02*
X291724D01*
Y257098D02*
Y281902D01*
X282276Y257098D02*
Y281902D01*
Y257098D02*
X291724D01*
X308276Y355098D02*
X317724D01*
X308276D02*
Y379902D01*
X317724Y355098D02*
Y379902D01*
X308276D02*
X317724D01*
X185276Y269598D02*
X194724D01*
X185276D02*
Y294402D01*
X194724Y269598D02*
Y294402D01*
X185276D02*
X194724D01*
X301276Y253598D02*
X310724D01*
X301276D02*
Y278402D01*
X310724Y253598D02*
Y278402D01*
X301276D02*
X310724D01*
X452248Y423618D02*
Y433382D01*
X410752Y423618D02*
Y433382D01*
Y423618D02*
X452248D01*
X410752Y433382D02*
X452248D01*
X346651Y419627D02*
X351768D01*
Y445610D01*
X305232Y419627D02*
X310351D01*
X305232D02*
Y445610D01*
X310351Y412147D02*
Y419627D01*
X346651Y412147D02*
Y419627D01*
X310351Y412147D02*
X346651D01*
X305232Y445610D02*
X351768D01*
X197500Y62764D02*
Y140756D01*
X122500Y62764D02*
X197500D01*
X122500Y140756D02*
X197500D01*
X122500Y62764D02*
Y140756D01*
X311000Y62264D02*
Y140256D01*
X236000Y62264D02*
X311000D01*
X236000Y140256D02*
X311000D01*
X236000Y62264D02*
Y140256D01*
X392276Y254098D02*
X401724D01*
X392276D02*
Y278902D01*
X401724Y254098D02*
Y278902D01*
X392276D02*
X401724D01*
X424000Y62264D02*
Y140256D01*
X349000Y62264D02*
X424000D01*
X349000Y140256D02*
X424000D01*
X349000Y62264D02*
Y140256D01*
X385776Y352598D02*
X395224D01*
X385776D02*
Y377402D01*
X395224Y352598D02*
Y377402D01*
X385776D02*
X395224D01*
X369508Y296520D02*
Y336480D01*
X395492Y296520D02*
Y336480D01*
X369508D02*
X395492D01*
X369508Y296520D02*
X395492D01*
X438902Y199776D02*
Y209224D01*
X414098Y199776D02*
X438902D01*
X414098Y209224D02*
X438902D01*
X414098Y199776D02*
Y209224D01*
X392902Y216276D02*
Y225724D01*
X368098Y216276D02*
X392902D01*
X368098Y225724D02*
X392902D01*
X368098Y216276D02*
Y225724D01*
X392776Y153098D02*
X402224D01*
X392776D02*
Y177902D01*
X402224Y153098D02*
Y177902D01*
X392776D02*
X402224D01*
X344776Y329402D02*
X354224D01*
Y304598D02*
Y329402D01*
X344776Y304598D02*
Y329402D01*
Y304598D02*
X354224D01*
X349776Y239598D02*
X359224D01*
X349776D02*
Y264402D01*
X359224Y239598D02*
Y264402D01*
X349776D02*
X359224D01*
M02*
